<svg width="76" height="80" viewBox="0 0 76 80" fill="none" xmlns="http://www.w3.org/2000/svg">
<mask id="mask0_50_2128" style="mask-type:luminance" maskUnits="userSpaceOnUse" x="0" y="0" width="76" height="80">
<path d="M0 0H75.0525V80H0V0Z" fill="white"/>
</mask>
<g mask="url(#mask0_50_2128)">
<path d="M37.5262 79.9932C37.5208 79.9932 37.5153 79.9932 37.5099 79.9932C35.7129 79.9524 34.3607 79.0831 33.1663 78.3146C32.176 77.6766 31.2401 77.0739 30.1178 76.9393C29.1057 76.8236 27.9481 77.4371 26.7129 78.0792C25.0002 78.9716 23.059 79.9796 20.7791 79.5497C18.2693 79.0464 17.5497 77.229 16.9729 75.768C16.5852 74.7872 16.2492 73.9411 15.4874 73.4976C14.6971 73.0228 13.7652 73.5384 12.3274 74.443C11.0704 75.2334 9.64613 76.1312 8.19601 75.6864C6.26162 75.1259 6.07117 73.4772 5.91745 72.1522C5.82631 71.37 5.74061 70.63 5.3774 70.0219C5.30258 69.8941 5.22504 69.8097 5.17335 69.7961C4.9625 69.7458 4.3313 70.1117 3.92048 70.3593C2.97096 70.9293 1.78611 71.6462 0.5278 71.0816C0.176833 70.9266 0.00271022 70.5307 0.12378 70.1661L0.949504 67.6781C8.84081 43.8926 17.0001 19.2977 31.6741 16.4628C31.7203 16.4519 31.7679 16.4478 31.8155 16.4478H43.139C43.1866 16.4478 43.2995 16.4519 43.3457 16.4628C57.987 19.2923 66.1518 43.8096 74.0472 67.5189L74.9287 70.1661C75.0497 70.5293 74.8756 70.9266 74.5246 71.0816C73.2677 71.6394 72.076 70.932 71.1211 70.362C70.6803 70.0995 70.0791 69.7499 69.8478 69.7961C69.7947 69.8111 69.7186 69.8927 69.6465 70.0165C69.2792 70.63 69.1989 71.3714 69.1146 72.1577C68.9704 73.4799 68.7908 75.1259 66.8469 75.6891C65.3859 76.1271 63.9603 75.2293 62.7033 74.4362C61.2763 73.5357 60.354 73.0283 59.5718 73.4935C58.7856 73.9451 58.4495 74.794 58.0605 75.7762C57.4837 77.2344 56.7655 79.0491 54.2475 79.5484C51.9798 79.9782 50.0345 78.9716 48.3205 78.0779C47.088 77.4371 45.9168 76.8236 44.9264 76.9406C43.8082 77.0753 42.8642 77.682 41.863 78.3214C40.6115 79.1239 39.3178 79.9538 37.5425 79.9932C37.5371 79.9932 37.5317 79.9932 37.5262 79.9932ZM29.8702 75.4361C30.009 75.4361 30.1478 75.4429 30.2865 75.4578C31.7584 75.6347 32.8848 76.3611 33.9744 77.0603C35.0967 77.784 36.1577 78.4655 37.5262 78.5009C38.8743 78.4655 39.9354 77.7854 41.0577 77.0671C42.1554 76.3625 43.2913 75.636 44.7564 75.4592C46.2188 75.3014 47.5709 76.0074 49.0088 76.7542C50.5814 77.5732 52.2097 78.4207 53.9618 78.0833C55.6772 77.7432 56.1166 76.6332 56.6729 75.2279C57.1042 74.1424 57.5912 72.9113 58.8168 72.2066C60.4302 71.2435 62.0612 72.2679 63.4991 73.1752C64.5833 73.8594 65.6049 74.5056 66.4252 74.2594C67.3312 73.9955 67.474 73.4296 67.6305 71.9958C67.7257 71.1279 67.8318 70.143 68.3623 69.2561C68.6453 68.7745 69.0221 68.4684 69.4778 68.3514C70.3062 68.1406 71.1102 68.6194 71.8856 69.0806C72.3372 69.3499 72.797 69.6247 73.2133 69.7376L72.631 67.9896C64.8839 44.7251 56.8743 20.6703 43.1322 17.9388H31.8808C18.1414 20.5969 10.1209 44.77 2.36561 68.1474L1.83644 69.739C2.20509 69.6383 2.63224 69.3935 3.15189 69.0806C3.91912 68.6194 4.71355 68.1433 5.54064 68.3514C5.99635 68.4671 6.37316 68.7732 6.66019 69.2615C7.18528 70.1389 7.29819 71.117 7.39886 71.9808C7.5553 73.3235 7.67228 73.9819 8.6218 74.2567C9.42984 74.5002 10.4501 73.8594 11.5329 73.1793C12.979 72.2719 14.6168 71.2394 16.2465 72.2134C17.4477 72.9127 17.9319 74.1383 18.3604 75.2198C18.9182 76.6305 19.3576 77.7432 21.0648 78.0847C22.8251 78.4247 24.452 77.5745 26.0246 76.757C27.3264 76.0795 28.5643 75.4361 29.8702 75.4361ZM43.9933 74.0295C43.9824 74.0295 43.9729 74.0295 43.962 74.0281C43.5511 74.0118 43.2301 73.6649 43.2478 73.2541C43.8287 58.7516 39.6864 32.0223 39.6456 31.7543C39.5817 31.3476 39.8606 30.9667 40.2673 30.9014C40.6727 30.8443 41.0549 31.1177 41.1189 31.5244C41.161 31.7938 45.325 58.6659 44.7374 73.314C44.721 73.7153 44.3905 74.0295 43.9933 74.0295ZM31.0265 74.0295C30.628 74.0295 30.2974 73.7139 30.2824 73.3112C29.7274 58.6659 33.8914 31.7938 33.9336 31.5244C33.9975 31.1163 34.3838 30.8415 34.7865 30.9014C35.1932 30.9667 35.4708 31.3476 35.4082 31.7543C35.366 32.0223 31.2238 58.7543 31.772 73.2568C31.7883 73.6676 31.4673 74.0132 31.0551 74.0281C31.0456 74.0295 31.0361 74.0295 31.0265 74.0295ZM57.0212 70.2192C56.6607 70.2192 56.3437 69.9566 56.2866 69.5894C54.0271 55.2296 46.265 35.3238 46.1861 35.1239C46.0365 34.7403 46.2256 34.309 46.6092 34.158C46.9901 34.0057 47.4254 34.1975 47.575 34.5811C47.6539 34.7824 55.4759 54.8365 57.7599 69.3567C57.8238 69.7635 57.5463 70.1457 57.1395 70.2097C57.1001 70.2151 57.0606 70.2192 57.0212 70.2192ZM18.0312 70.2192C17.9918 70.2192 17.9523 70.2151 17.9143 70.2097C17.5075 70.1457 17.2286 69.7635 17.2926 69.3567C19.5766 54.8365 27.3659 34.7824 27.4448 34.5825C27.5944 34.1975 28.0256 34.0098 28.4106 34.158C28.7942 34.3077 28.9847 34.7403 28.8337 35.1239C28.7561 35.3225 21.0253 55.2283 18.7672 69.5894C18.7087 69.9566 18.3917 70.2192 18.0312 70.2192ZM66.1463 66.2769C65.813 66.2769 65.5083 66.0511 65.424 65.711C60.1704 44.6326 49.1516 29.7478 49.0401 29.6009C48.7939 29.2704 48.8619 28.8038 49.1911 28.5575C49.5217 28.3086 49.9883 28.378 50.2358 28.7072C50.3474 28.8582 61.5457 43.9851 66.8714 65.3519C66.9707 65.7518 66.7272 66.1559 66.3273 66.2552C66.2674 66.2688 66.2062 66.2769 66.1463 66.2769ZM8.90611 66.2769C8.84625 66.2769 8.78504 66.2688 8.72518 66.2552C8.32525 66.1559 8.08175 65.7518 8.18241 65.3519C13.5068 43.9851 24.6724 28.8595 24.784 28.7085C25.0302 28.3766 25.4968 28.3113 25.8287 28.5562C26.1579 28.8024 26.2259 29.2704 25.9797 29.5996C25.8695 29.7465 14.878 44.649 9.62845 65.711C9.54547 66.0511 9.24075 66.2769 8.90611 66.2769ZM43.2043 14.6263H31.8808C31.7475 14.6263 31.5503 14.5896 31.436 14.5216C29.8063 13.5585 27.3142 11.1915 28.2963 5.9746C27.1373 5.72294 25.9443 5.20193 24.9812 4.51496C24.7799 4.37076 24.6629 4.13542 24.6697 3.88784C24.7105 2.41868 25.1104 1.2175 25.8586 0.318321C26.0164 0.127874 26.2545 0.0190468 26.5061 0.0530555C27.7277 0.174125 28.8786 0.447553 29.9655 0.877419H40.6768C41.0889 0.877419 41.4222 1.2107 41.4222 1.62288C41.4222 2.03507 41.0889 2.36835 40.6768 2.36835H32.6793C34.5076 3.68787 36.1156 5.56106 37.5235 8.00694C40.2918 3.18047 43.9837 0.507408 48.5123 0.0530555C48.7544 0.0217676 48.9911 0.122432 49.1503 0.304718C49.9461 1.21886 50.3501 2.43092 50.3501 3.90825C50.3501 4.14903 50.2345 4.3762 50.0386 4.51496C49.0578 5.21417 47.8947 5.72702 46.752 5.97596C47.707 11.2241 45.2094 13.5762 43.5797 14.5243C43.4654 14.591 43.3362 14.6263 43.2043 14.6263ZM32.0264 13.134H42.9961C45.2352 11.7275 45.9753 9.10473 45.1373 5.53521C45.0883 5.32844 45.1319 5.10806 45.2556 4.93394C45.3794 4.75846 45.5712 4.64691 45.7848 4.62378C46.7901 4.51768 47.9097 4.1123 48.8469 3.51919C48.798 2.74924 48.5994 2.10036 48.2538 1.58343C44.0273 2.15205 40.7339 4.87953 38.1928 9.91005C38.0663 10.1604 37.8092 10.3182 37.5276 10.3195H37.5262C37.246 10.3195 36.9889 10.1631 36.8624 9.91277C34.2886 4.88089 30.9857 2.15205 26.7768 1.58479C26.449 2.10172 26.2504 2.75196 26.1837 3.52599C27.1183 4.1123 28.2446 4.51632 29.2676 4.62378C29.4812 4.64555 29.6757 4.75982 29.7995 4.9353C29.9233 5.11078 29.9655 5.33252 29.9151 5.54065C29.0554 9.08841 29.7859 11.7071 32.0264 13.134Z" fill="#141515"/>
</g>
</svg>
