<svg width="34" height="32" viewBox="0 0 34 32" fill="none" xmlns="http://www.w3.org/2000/svg">
<path d="M9.69302 4.17903L7.71484 4.37685L7.91266 12.8031H9.17691L13.4248 13.2564L17.2175 14.0623L19.038 14.8681L20.1506 16.9331L19.746 18.6455L19.038 19.0988V21.0631L19.746 21.5164V22.0704L19.038 22.8762V23.8835L19.746 24.4879V28.0135L20.5045 29.877L22.5779 30.8844L24.1961 29.877L24.9041 28.0135V21.5164V17.2857L26.0166 16.1273L28.09 14.8681V1.92419L24.9041 1.21178L19.038 2.5965L11.2756 4.17903H9.69302Z" fill="#D87385" stroke="black"/>
<path fill-rule="evenodd" clip-rule="evenodd" d="M19.0068 2.02848C16.2363 2.59408 13.3853 3.1754 12.6712 3.32016C11.5982 3.5379 11.0035 3.59349 9.24376 3.64073L7.11458 3.69789V8.51028V13.3227L9.19183 13.3823C10.7411 13.4268 11.5454 13.4969 12.3559 13.6586C16.053 14.3954 17.6954 14.7549 18.0108 14.8964C18.9763 15.3297 19.6273 16.3429 19.629 17.415C19.6302 18.2194 19.57 18.3806 19.2681 18.3806C19.1384 18.3806 18.978 18.4425 18.9116 18.5181C18.759 18.6919 18.5708 20.254 18.6121 21.0041C18.6417 21.5427 18.6583 21.5742 18.9289 21.6035C19.1533 21.628 19.2146 21.6859 19.2146 21.8736C19.2146 22.0576 19.1595 22.1127 18.9757 22.1127C18.5563 22.1127 18.4875 22.2857 18.4875 23.3403C18.4875 24.3897 18.557 24.568 18.9663 24.568C19.1803 24.568 19.2008 24.6263 19.2666 25.4273C19.4977 28.2377 19.6107 29.0577 19.8203 29.4464C20.1465 30.0509 20.4912 30.3912 21.1014 30.7108C21.5936 30.9686 21.7536 31.0008 22.5382 31C23.5333 30.9991 23.8831 30.8733 24.5463 30.278C25.4412 29.4749 25.5872 28.8611 25.3776 26.784C25.0128 23.171 25.3124 18.3146 25.9758 17.0849C26.308 16.4694 26.9373 15.9667 27.738 15.6773C28.1358 15.5336 28.5075 15.3346 28.5638 15.2352C28.7056 14.9843 28.7028 2.03113 28.5607 1.7801C28.4956 1.66519 28.128 1.49293 27.6 1.32989C26.8893 1.11049 26.5163 1.0603 25.3944 1.033L24.0442 1L19.0068 2.02848ZM26.7241 1.94185C27.1352 2.02936 27.5535 2.14132 27.6534 2.19082C27.8236 2.27499 27.8352 2.67717 27.8352 8.51274V14.7448L27.1694 15.0303C25.943 15.5561 25.1873 16.4399 24.8845 17.7026C24.3846 19.7871 24.2083 23.0759 24.4494 25.8138C24.6737 28.3589 24.6656 28.7507 24.3791 29.2289C23.6613 30.4272 21.9213 30.6032 20.9404 29.5766C20.477 29.0915 20.4015 28.7966 20.2488 26.876C20 23.7433 20.0403 23.9493 19.656 23.8452C19.3416 23.7602 19.3184 23.7244 19.3184 23.3261C19.3184 22.9412 19.3431 22.8984 19.5654 22.8984C19.938 22.8984 20.0268 22.721 20.0586 21.9136C20.0904 21.1047 20.0323 20.9341 19.7245 20.9341C19.4371 20.9341 19.3991 20.77 19.4946 19.941C19.5713 19.274 19.5976 19.2145 19.8203 19.2039C20.1981 19.1858 20.3239 18.9789 20.4459 18.1743C20.7136 16.4067 19.9169 14.8831 18.3497 14.1657C17.9047 13.9619 12.7684 12.8793 11.3125 12.6822C10.8887 12.6249 9.94608 12.5744 9.2178 12.57L7.89355 12.562V9.37504V6.18806L8.16723 6.39155C8.4032 6.56716 8.58527 6.59505 9.49148 6.59456C10.9767 6.59377 11.7854 6.45952 18.3837 5.11823L24.2519 3.92535L25.7255 3.98035L27.1991 4.03535L27.4652 3.73629C27.8771 3.27332 27.7713 2.69465 27.2258 2.42791C26.7758 2.20781 25.3192 2.07857 24.3972 2.17688C23.9631 2.22313 21.0736 2.77381 17.9763 3.4007C10.883 4.83627 11.515 4.72656 9.8443 4.8123C8.54311 4.87909 8.39677 4.9056 8.15653 5.11902L7.89355 5.35267V4.89814V4.44371L8.39178 4.4995C9.67105 4.64279 11.5315 4.36269 17.9163 3.0656C24.7232 1.68277 25.213 1.62031 26.7241 1.94185ZM0.18176 2.08603C0.0116337 2.17904 0 2.58947 0 8.50312C0 14.0421 0.0195262 14.8362 0.158183 14.945C0.288738 15.0475 0.739397 14.9547 2.72878 14.4157C4.05562 14.0562 5.48633 13.7004 5.90822 13.6249C6.33011 13.5495 6.71502 13.4286 6.76353 13.3561C6.81203 13.2837 6.85243 11.0931 6.85337 8.48799L6.85493 3.75151L6.62124 3.61254C6.49265 3.53613 6.15385 3.44293 5.86823 3.40531C5.58261 3.3677 4.29731 3.05205 3.01201 2.70378C1.72672 2.35543 0.605 2.05166 0.519313 2.02867C0.433627 2.00559 0.28178 2.03142 0.18176 2.08603ZM28.9316 2.29571C28.7896 2.48742 28.7701 3.2357 28.7714 8.45853C28.7721 11.728 28.8006 14.501 28.8345 14.6208C28.9821 15.1415 29.5905 14.9267 30.6743 13.9714C32.3138 12.5262 33.2336 10.3068 33.099 8.12146C32.9957 6.44528 32.4852 5.15162 31.4182 3.8622C30.8499 3.1754 29.5054 2.07739 29.2325 2.07739C29.156 2.07739 29.0205 2.1756 28.9316 2.29571ZM3.01201 3.53653C4.01169 3.80445 5.0984 4.07895 5.42682 4.14652L6.02403 4.26929V8.51804V12.7668L5.27102 12.9282C4.85682 13.0169 3.72846 13.3078 2.76337 13.5744C1.79838 13.8411 0.968726 14.0593 0.919807 14.0593C0.870887 14.0593 0.830901 11.5593 0.830901 8.5037C0.830901 3.25878 0.841079 2.95089 1.01266 2.99872C1.11268 3.02661 2.01234 3.2686 3.01201 3.53653ZM26.821 3.14279C26.9274 3.24425 26.8439 3.25289 26.3811 3.18836C25.0322 3.00009 24.3698 3.09447 18.0485 4.37496C11.8146 5.63787 10.5324 5.84657 9.34763 5.79118L8.67252 5.75966L9.39956 5.68747C9.79943 5.64769 10.5706 5.56873 11.1133 5.51197C11.656 5.4552 14.7874 4.85856 18.0721 4.1862L24.0442 2.96365L25.367 2.99056C26.2681 3.00893 26.7317 3.05745 26.821 3.14279ZM31.4364 5.36838C32.0938 6.56676 32.242 7.14189 32.246 8.51028C32.2489 9.54799 32.2137 9.79166 31.951 10.5493C31.787 11.0225 31.4959 11.656 31.3042 11.9572C30.8859 12.614 30.1713 13.4372 29.9005 13.5743C29.7098 13.6707 29.7048 13.5377 29.7081 8.48917L29.7116 3.30504L30.3587 3.9443C30.7507 4.33165 31.1755 4.89293 31.4364 5.36838Z" fill="black"/>
</svg>
