<svg width="154" height="58" viewBox="0 0 154 58" fill="none" xmlns="http://www.w3.org/2000/svg">
<path d="M40.3382 29.28H32.4782L31.2182 33H25.8482L33.4682 11.94H39.4082L47.0282 33H41.5982L40.3382 29.28ZM39.0182 25.32L36.4082 17.61L33.8282 25.32H39.0182ZM73.1973 11.94V33H68.0673V20.37L63.3573 33H59.2173L54.4773 20.34V33H49.3473V11.94H55.4073L61.3173 26.52L67.1673 11.94H73.1973ZM82.0164 16.05V20.31H88.8864V24.27H82.0164V28.89H89.7864V33H76.8864V11.94H89.7864V16.05H82.0164ZM98.2468 29.04H104.967V33H93.1168V11.94H98.2468V29.04ZM112.544 11.94V33H107.414V11.94H112.544ZM121.391 16.05V20.31H128.261V24.27H121.391V28.89H129.161V33H116.261V11.94H129.161V16.05H121.391Z" fill="#D87385"/>
<path d="M3.67958 53.108C3.17558 53.108 2.72358 53.024 2.32358 52.856C1.92358 52.68 1.60758 52.44 1.37558 52.136C1.14358 51.824 1.01558 51.468 0.991582 51.068H2.11958C2.15158 51.396 2.30358 51.664 2.57558 51.872C2.85558 52.08 3.21958 52.184 3.66758 52.184C4.08358 52.184 4.41158 52.092 4.65158 51.908C4.89158 51.724 5.01158 51.492 5.01158 51.212C5.01158 50.924 4.88358 50.712 4.62758 50.576C4.37158 50.432 3.97558 50.292 3.43958 50.156C2.95158 50.028 2.55158 49.9 2.23958 49.772C1.93558 49.636 1.67158 49.44 1.44758 49.184C1.23158 48.92 1.12358 48.576 1.12358 48.152C1.12358 47.816 1.22358 47.508 1.42358 47.228C1.62358 46.948 1.90758 46.728 2.27558 46.568C2.64358 46.4 3.06358 46.316 3.53558 46.316C4.26358 46.316 4.85158 46.5 5.29958 46.868C5.74758 47.236 5.98758 47.74 6.01958 48.38H4.92758C4.90358 48.036 4.76358 47.76 4.50758 47.552C4.25958 47.344 3.92358 47.24 3.49958 47.24C3.10758 47.24 2.79558 47.324 2.56358 47.492C2.33158 47.66 2.21558 47.88 2.21558 48.152C2.21558 48.368 2.28358 48.548 2.41958 48.692C2.56358 48.828 2.73958 48.94 2.94758 49.028C3.16358 49.108 3.45958 49.2 3.83558 49.304C4.30758 49.432 4.69158 49.56 4.98758 49.688C5.28358 49.808 5.53558 49.992 5.74358 50.24C5.95958 50.488 6.07158 50.812 6.07958 51.212C6.07958 51.572 5.97958 51.896 5.77958 52.184C5.57958 52.472 5.29558 52.7 4.92758 52.868C4.56758 53.028 4.15158 53.108 3.67958 53.108ZM10.6931 49.688C10.6931 49.016 10.8291 48.428 11.1011 47.924C11.3731 47.412 11.7451 47.016 12.2171 46.736C12.6971 46.456 13.2291 46.316 13.8131 46.316C14.3891 46.316 14.8891 46.44 15.3131 46.688C15.7371 46.936 16.0531 47.248 16.2611 47.624V46.424H17.3651V53H16.2611V51.776C16.0451 52.16 15.7211 52.48 15.2891 52.736C14.8651 52.984 14.3691 53.108 13.8011 53.108C13.2171 53.108 12.6891 52.964 12.2171 52.676C11.7451 52.388 11.3731 51.984 11.1011 51.464C10.8291 50.944 10.6931 50.352 10.6931 49.688ZM16.2611 49.7C16.2611 49.204 16.1611 48.772 15.9611 48.404C15.7611 48.036 15.4891 47.756 15.1451 47.564C14.8091 47.364 14.4371 47.264 14.0291 47.264C13.6211 47.264 13.2491 47.36 12.9131 47.552C12.5771 47.744 12.3091 48.024 12.1091 48.392C11.9091 48.76 11.8091 49.192 11.8091 49.688C11.8091 50.192 11.9091 50.632 12.1091 51.008C12.3091 51.376 12.5771 51.66 12.9131 51.86C13.2491 52.052 13.6211 52.148 14.0291 52.148C14.4371 52.148 14.8091 52.052 15.1451 51.86C15.4891 51.66 15.7611 51.376 15.9611 51.008C16.1611 50.632 16.2611 50.196 16.2611 49.7ZM23.7825 44.12V53H22.6905V44.12H23.7825ZM31.9916 53.108C31.3756 53.108 30.8156 52.968 30.3116 52.688C29.8156 52.408 29.4236 52.012 29.1356 51.5C28.8556 50.98 28.7156 50.38 28.7156 49.7C28.7156 49.028 28.8596 48.436 29.1476 47.924C29.4436 47.404 29.8436 47.008 30.3476 46.736C30.8516 46.456 31.4156 46.316 32.0396 46.316C32.6636 46.316 33.2276 46.456 33.7316 46.736C34.2356 47.008 34.6316 47.4 34.9196 47.912C35.2156 48.424 35.3636 49.02 35.3636 49.7C35.3636 50.38 35.2116 50.98 34.9076 51.5C34.6116 52.012 34.2076 52.408 33.6956 52.688C33.1836 52.968 32.6156 53.108 31.9916 53.108ZM31.9916 52.148C32.3836 52.148 32.7516 52.056 33.0956 51.872C33.4396 51.688 33.7156 51.412 33.9236 51.044C34.1396 50.676 34.2476 50.228 34.2476 49.7C34.2476 49.172 34.1436 48.724 33.9356 48.356C33.7276 47.988 33.4556 47.716 33.1196 47.54C32.7836 47.356 32.4196 47.264 32.0276 47.264C31.6276 47.264 31.2596 47.356 30.9236 47.54C30.5956 47.716 30.3316 47.988 30.1316 48.356C29.9316 48.724 29.8316 49.172 29.8316 49.7C29.8316 50.236 29.9276 50.688 30.1196 51.056C30.3196 51.424 30.5836 51.7 30.9116 51.884C31.2396 52.06 31.5996 52.148 31.9916 52.148ZM43.4834 46.304C44.2834 46.304 44.9314 46.548 45.4274 47.036C45.9234 47.516 46.1714 48.212 46.1714 49.124V53H45.0914V49.28C45.0914 48.624 44.9274 48.124 44.5994 47.78C44.2714 47.428 43.8234 47.252 43.2554 47.252C42.6794 47.252 42.2194 47.432 41.8754 47.792C41.5394 48.152 41.3714 48.676 41.3714 49.364V53H40.2794V46.424H41.3714V47.36C41.5874 47.024 41.8794 46.764 42.2474 46.58C42.6234 46.396 43.0354 46.304 43.4834 46.304ZM60.7904 47.324H59.4104V53H58.3184V47.324H57.4664V46.424H58.3184V45.956C58.3184 45.22 58.5064 44.684 58.8824 44.348C59.2664 44.004 59.8784 43.832 60.7184 43.832V44.744C60.2384 44.744 59.8984 44.84 59.6984 45.032C59.5064 45.216 59.4104 45.524 59.4104 45.956V46.424H60.7904V47.324ZM68.4116 53.108C67.7956 53.108 67.2356 52.968 66.7316 52.688C66.2356 52.408 65.8436 52.012 65.5556 51.5C65.2756 50.98 65.1356 50.38 65.1356 49.7C65.1356 49.028 65.2796 48.436 65.5676 47.924C65.8636 47.404 66.2636 47.008 66.7676 46.736C67.2716 46.456 67.8356 46.316 68.4596 46.316C69.0836 46.316 69.6476 46.456 70.1516 46.736C70.6556 47.008 71.0516 47.4 71.3396 47.912C71.6356 48.424 71.7836 49.02 71.7836 49.7C71.7836 50.38 71.6316 50.98 71.3276 51.5C71.0316 52.012 70.6276 52.408 70.1156 52.688C69.6036 52.968 69.0356 53.108 68.4116 53.108ZM68.4116 52.148C68.8036 52.148 69.1716 52.056 69.5156 51.872C69.8596 51.688 70.1356 51.412 70.3436 51.044C70.5596 50.676 70.6676 50.228 70.6676 49.7C70.6676 49.172 70.5636 48.724 70.3556 48.356C70.1476 47.988 69.8756 47.716 69.5396 47.54C69.2036 47.356 68.8396 47.264 68.4476 47.264C68.0476 47.264 67.6796 47.356 67.3436 47.54C67.0156 47.716 66.7516 47.988 66.5516 48.356C66.3516 48.724 66.2516 49.172 66.2516 49.7C66.2516 50.236 66.3476 50.688 66.5396 51.056C66.7396 51.424 67.0036 51.7 67.3316 51.884C67.6596 52.06 68.0196 52.148 68.4116 52.148ZM78.0314 47.324V51.2C78.0314 51.52 78.0994 51.748 78.2354 51.884C78.3714 52.012 78.6074 52.076 78.9434 52.076H79.7474V53H78.7634C78.1554 53 77.6994 52.86 77.3954 52.58C77.0914 52.3 76.9394 51.84 76.9394 51.2V47.324H76.0874V46.424H76.9394V44.768H78.0314V46.424H79.7474V47.324H78.0314ZM87.4185 53.108C86.8025 53.108 86.2425 52.968 85.7385 52.688C85.2425 52.408 84.8505 52.012 84.5625 51.5C84.2825 50.98 84.1425 50.38 84.1425 49.7C84.1425 49.028 84.2865 48.436 84.5745 47.924C84.8705 47.404 85.2705 47.008 85.7745 46.736C86.2785 46.456 86.8425 46.316 87.4665 46.316C88.0905 46.316 88.6545 46.456 89.1585 46.736C89.6625 47.008 90.0585 47.4 90.3465 47.912C90.6425 48.424 90.7905 49.02 90.7905 49.7C90.7905 50.38 90.6385 50.98 90.3345 51.5C90.0385 52.012 89.6345 52.408 89.1225 52.688C88.6105 52.968 88.0425 53.108 87.4185 53.108ZM87.4185 52.148C87.8105 52.148 88.1785 52.056 88.5225 51.872C88.8665 51.688 89.1425 51.412 89.3505 51.044C89.5665 50.676 89.6745 50.228 89.6745 49.7C89.6745 49.172 89.5705 48.724 89.3625 48.356C89.1545 47.988 88.8825 47.716 88.5465 47.54C88.2105 47.356 87.8465 47.264 87.4545 47.264C87.0545 47.264 86.6865 47.356 86.3505 47.54C86.0225 47.716 85.7585 47.988 85.5585 48.356C85.3585 48.724 85.2585 49.172 85.2585 49.7C85.2585 50.236 85.3545 50.688 85.5465 51.056C85.7465 51.424 86.0105 51.7 86.3385 51.884C86.6665 52.06 87.0265 52.148 87.4185 52.148ZM103.477 47.648C103.701 47.256 104.029 46.936 104.461 46.688C104.893 46.44 105.385 46.316 105.937 46.316C106.529 46.316 107.061 46.456 107.533 46.736C108.005 47.016 108.377 47.412 108.649 47.924C108.921 48.428 109.057 49.016 109.057 49.688C109.057 50.352 108.921 50.944 108.649 51.464C108.377 51.984 108.001 52.388 107.521 52.676C107.049 52.964 106.521 53.108 105.937 53.108C105.369 53.108 104.869 52.984 104.437 52.736C104.013 52.488 103.693 52.172 103.477 51.788V53H102.385V44.12H103.477V47.648ZM107.941 49.688C107.941 49.192 107.841 48.76 107.641 48.392C107.441 48.024 107.169 47.744 106.825 47.552C106.489 47.36 106.117 47.264 105.709 47.264C105.309 47.264 104.937 47.364 104.593 47.564C104.257 47.756 103.985 48.04 103.777 48.416C103.577 48.784 103.477 49.212 103.477 49.7C103.477 50.196 103.577 50.632 103.777 51.008C103.985 51.376 104.257 51.66 104.593 51.86C104.937 52.052 105.309 52.148 105.709 52.148C106.117 52.148 106.489 52.052 106.825 51.86C107.169 51.66 107.441 51.376 107.641 51.008C107.841 50.632 107.941 50.192 107.941 49.688ZM115.067 47.492C115.259 47.116 115.531 46.824 115.883 46.616C116.243 46.408 116.679 46.304 117.191 46.304V47.432H116.903C115.679 47.432 115.067 48.096 115.067 49.424V53H113.975V46.424H115.067V47.492ZM122.495 45.356C122.287 45.356 122.111 45.284 121.967 45.14C121.823 44.996 121.751 44.82 121.751 44.612C121.751 44.404 121.823 44.228 121.967 44.084C122.111 43.94 122.287 43.868 122.495 43.868C122.695 43.868 122.863 43.94 122.999 44.084C123.143 44.228 123.215 44.404 123.215 44.612C123.215 44.82 123.143 44.996 122.999 45.14C122.863 45.284 122.695 45.356 122.495 45.356ZM123.023 46.424V53H121.931V46.424H123.023ZM127.957 49.688C127.957 49.016 128.093 48.428 128.365 47.924C128.637 47.412 129.009 47.016 129.481 46.736C129.961 46.456 130.497 46.316 131.089 46.316C131.601 46.316 132.077 46.436 132.517 46.676C132.957 46.908 133.293 47.216 133.525 47.6V44.12H134.629V53H133.525V51.764C133.309 52.156 132.989 52.48 132.565 52.736C132.141 52.984 131.645 53.108 131.077 53.108C130.493 53.108 129.961 52.964 129.481 52.676C129.009 52.388 128.637 51.984 128.365 51.464C128.093 50.944 127.957 50.352 127.957 49.688ZM133.525 49.7C133.525 49.204 133.425 48.772 133.225 48.404C133.025 48.036 132.753 47.756 132.409 47.564C132.073 47.364 131.701 47.264 131.293 47.264C130.885 47.264 130.513 47.36 130.177 47.552C129.841 47.744 129.573 48.024 129.373 48.392C129.173 48.76 129.073 49.192 129.073 49.688C129.073 50.192 129.173 50.632 129.373 51.008C129.573 51.376 129.841 51.66 130.177 51.86C130.513 52.052 130.885 52.148 131.293 52.148C131.701 52.148 132.073 52.052 132.409 51.86C132.753 51.66 133.025 51.376 133.225 51.008C133.425 50.632 133.525 50.196 133.525 49.7ZM139.546 49.688C139.546 49.016 139.682 48.428 139.954 47.924C140.226 47.412 140.598 47.016 141.07 46.736C141.55 46.456 142.082 46.316 142.666 46.316C143.242 46.316 143.742 46.44 144.166 46.688C144.59 46.936 144.906 47.248 145.114 47.624V46.424H146.218V53H145.114V51.776C144.898 52.16 144.574 52.48 144.142 52.736C143.718 52.984 143.222 53.108 142.654 53.108C142.07 53.108 141.542 52.964 141.07 52.676C140.598 52.388 140.226 51.984 139.954 51.464C139.682 50.944 139.546 50.352 139.546 49.688ZM145.114 49.7C145.114 49.204 145.014 48.772 144.814 48.404C144.614 48.036 144.342 47.756 143.998 47.564C143.662 47.364 143.29 47.264 142.882 47.264C142.474 47.264 142.102 47.36 141.766 47.552C141.43 47.744 141.162 48.024 140.962 48.392C140.762 48.76 140.662 49.192 140.662 49.688C140.662 50.192 140.762 50.632 140.962 51.008C141.162 51.376 141.43 51.66 141.766 51.86C142.102 52.052 142.474 52.148 142.882 52.148C143.29 52.148 143.662 52.052 143.998 51.86C144.342 51.66 144.614 51.376 144.814 51.008C145.014 50.632 145.114 50.196 145.114 49.7ZM152.635 44.12V53H151.543V44.12H152.635Z" fill="black"/>
</svg>
