<svg width="34" height="30" viewBox="0 0 34 30" fill="none" xmlns="http://www.w3.org/2000/svg">
<path d="M28.5767 11.557C28.5767 11.6047 28.5864 11.6507 28.6058 11.6951C28.6252 11.7395 28.6527 11.7785 28.6887 11.8126C28.7246 11.8467 28.7658 11.8727 28.8126 11.8911C28.8595 11.9095 28.908 11.9187 28.9588 11.9187C29.0097 11.9187 29.0582 11.9095 29.1051 11.8911C29.1519 11.8727 29.1931 11.8467 29.229 11.8126C29.265 11.7785 29.2924 11.7395 29.3119 11.6951C29.3313 11.6507 29.341 11.6047 29.341 11.557C29.3301 11.2717 29.305 10.988 29.265 10.7053C29.225 10.4222 29.1708 10.1422 29.1017 9.86447C29.0325 9.58671 28.9497 9.31274 28.852 9.04311C28.7549 8.77293 28.6435 8.50817 28.5184 8.24882C28.3933 7.98893 28.2557 7.73608 28.1043 7.48918C27.9529 7.24229 27.7895 7.00351 27.613 6.77178C27.4371 6.54004 27.2497 6.31751 27.0504 6.1031C26.851 5.88923 26.6414 5.68457 26.4209 5.49019C26.2004 5.29582 25.9707 5.11173 25.7314 4.93847C25.4915 4.76521 25.2436 4.60386 24.9877 4.45334C24.7312 4.30336 24.4678 4.16529 24.1971 4.03968C23.9263 3.91407 23.6498 3.80145 23.3676 3.70128C23.0855 3.60111 22.7987 3.51448 22.5074 3.44139C22.216 3.36775 21.9213 3.3082 21.6242 3.26272C21.3266 3.21669 21.0273 3.18475 20.7263 3.16634C20.4258 3.14847 20.1248 3.14414 19.8232 3.15389C18.9263 3.18258 18.0523 3.3331 17.2024 3.60599C17.1532 3.62169 17.1092 3.64551 17.0698 3.678C17.031 3.71049 17.0007 3.74893 16.9784 3.79333C16.9562 3.83772 16.9436 3.88429 16.9413 3.93356C16.939 3.98283 16.947 4.02993 16.9653 4.07596C16.9819 4.1209 17.007 4.16096 17.0401 4.1967C17.0733 4.23243 17.1127 4.26059 17.1578 4.2817C17.2024 4.30282 17.2503 4.31473 17.3 4.31798C17.3503 4.32123 17.3994 4.31527 17.4468 4.30011C18.2266 4.05213 19.028 3.91352 19.85 3.88429C20.1253 3.87562 20.4007 3.87941 20.676 3.89566C20.9513 3.91244 21.225 3.94168 21.4969 3.98391C21.7688 4.0256 22.0384 4.08029 22.3046 4.14688C22.5708 4.21402 22.8335 4.29307 23.0917 4.38403C23.3499 4.47554 23.603 4.57841 23.8503 4.69265C24.0982 4.80744 24.3393 4.93359 24.5741 5.07058C24.8083 5.20756 25.0356 5.35483 25.2544 5.51293C25.4738 5.67103 25.6846 5.83888 25.8868 6.01647C26.0884 6.19406 26.2809 6.38032 26.4637 6.57578C26.6459 6.77123 26.8184 6.97427 26.9801 7.18598C27.1418 7.39714 27.292 7.61534 27.4308 7.84057C27.5702 8.06581 27.697 8.29701 27.8118 8.53416C27.9272 8.77131 28.0295 9.01333 28.1197 9.25968C28.21 9.50604 28.2871 9.75618 28.3511 10.0101C28.4156 10.2635 28.4664 10.5196 28.5041 10.7784C28.5418 11.0367 28.5658 11.296 28.5767 11.557Z" fill="black"/>
<path d="M14.4403 5.03049C13.5577 5.69105 12.8288 6.47938 12.2547 7.39549C12.229 7.4361 12.2119 7.4805 12.2045 7.5276C12.197 7.57525 12.1993 7.62181 12.2113 7.66838C12.2239 7.71494 12.245 7.75717 12.2747 7.79562C12.305 7.83406 12.3415 7.866 12.3844 7.89037C12.4444 7.92556 12.5095 7.94343 12.5798 7.94505C12.6472 7.94505 12.71 7.92881 12.7688 7.89741C12.8271 7.866 12.8739 7.82269 12.9082 7.76746C13.4383 6.92877 14.1084 6.20595 14.9178 5.59846C14.9578 5.56814 14.9898 5.53241 15.0143 5.49017C15.0395 5.44794 15.0543 5.403 15.06 5.35536C15.0663 5.30771 15.0617 5.2606 15.048 5.21404C15.0338 5.16802 15.0109 5.12579 14.9795 5.08843C14.9475 5.05053 14.9098 5.0202 14.8652 4.99692C14.8207 4.97364 14.7727 4.95902 14.7224 4.95361C14.6716 4.94819 14.6219 4.95198 14.5733 4.96552C14.5242 4.97906 14.4802 5.00071 14.4403 5.03049Z" fill="black"/>
<mask id="mask0_24_1184" style="mask-type:luminance" maskUnits="userSpaceOnUse" x="0" y="0" width="34" height="30">
<path d="M0 0H33.3416V30H0V0Z" fill="white"/>
</mask>
<g mask="url(#mask0_24_1184)">
<path d="M33.2497 18.763C33.2297 18.5865 33.1908 18.4138 33.1343 18.2448C33.0777 18.0754 33.0035 17.9135 32.9126 17.7581C32.8218 17.6032 32.7156 17.4576 32.5945 17.3228C32.4728 17.1874 32.3385 17.065 32.1912 16.9551L31.5303 16.4597C31.6148 16.274 31.6942 16.0867 31.7685 15.8966C31.8427 15.7071 31.9118 15.516 31.9758 15.3232C32.0392 15.1305 32.0981 14.9361 32.1512 14.7401C32.2043 14.5441 32.2523 14.3476 32.2946 14.1494C32.3368 13.9512 32.374 13.752 32.4054 13.5522C32.4368 13.3524 32.4631 13.1515 32.4836 12.9501C32.5042 12.7492 32.5191 12.5478 32.5288 12.3459C32.5379 12.1439 32.5419 11.9414 32.5408 11.7395C32.539 11.5375 32.5322 11.3355 32.5196 11.1336C32.5071 10.9316 32.4888 10.7302 32.4654 10.5293C32.4414 10.3285 32.4128 10.1281 32.378 9.92888C32.3437 9.72909 32.3037 9.53093 32.258 9.3333C32.2129 9.13568 32.162 8.93968 32.1061 8.74422C32.0495 8.5493 31.9884 8.356 31.9215 8.16379C31.8547 7.97158 31.7827 7.78154 31.7056 7.59312C31.6285 7.40416 31.5462 7.2179 31.4594 7.03327C31.372 6.84918 31.2795 6.66672 31.1824 6.48696C31.0853 6.30666 30.983 6.12907 30.8756 5.95419C30.7688 5.7793 30.6574 5.60712 30.5409 5.43765C30.4244 5.26818 30.3033 5.10142 30.1782 4.93791C30.0525 4.77439 29.9222 4.61413 29.788 4.45657C29.6538 4.29955 29.5155 4.14578 29.3727 3.99526C29.2299 3.84474 29.0831 3.69801 28.9323 3.55453C28.7821 3.41159 28.6273 3.2719 28.469 3.13654C28.3108 3.00064 28.1486 2.86907 27.9829 2.74129C27.8173 2.61351 27.6487 2.49006 27.4762 2.37041C27.3037 2.25075 27.1284 2.13596 26.9496 2.02497C26.7713 1.91397 26.5897 1.80785 26.4052 1.70552C26.2207 1.60373 26.0339 1.50627 25.8437 1.41314C25.654 1.32056 25.4621 1.2323 25.2673 1.14892C25.0725 1.06554 24.876 0.987032 24.6772 0.913397C24.4784 0.83922 24.2773 0.770457 24.0746 0.706567C23.8723 0.642678 23.6678 0.583661 23.4622 0.530059C23.256 0.475915 23.0492 0.427185 22.8401 0.383329C22.6316 0.339473 22.422 0.30103 22.2118 0.267461C22.001 0.233892 21.7896 0.205196 21.5771 0.182455C21.3652 0.159174 21.1521 0.141306 20.9391 0.128312C20.726 0.115317 20.5124 0.108278 20.2987 0.105571C20.0851 0.103406 19.872 0.106113 19.6584 0.114234C19.4447 0.122897 19.2317 0.135892 19.0192 0.154842C18.8067 0.173251 18.5942 0.197074 18.3828 0.225771C18.1715 0.255008 17.9612 0.289119 17.7516 0.328102C17.542 0.367627 17.3335 0.412025 17.1267 0.461296C16.9193 0.511108 16.7137 0.565252 16.5097 0.62481C16.3052 0.684369 16.103 0.749341 15.9025 0.818645C15.702 0.887949 15.5032 0.962126 15.3067 1.04172C15.1102 1.12077 14.916 1.20469 14.7241 1.29349C14.5321 1.38228 14.3425 1.47541 14.1557 1.57341C13.9689 1.67141 13.785 1.77374 13.6039 1.88095C13.4222 1.98815 13.244 2.09915 13.0692 2.21501C12.8939 2.33088 12.7219 2.45054 12.5534 2.57507C12.3849 2.69906 12.2198 2.82738 12.0581 2.95949C11.8965 3.0916 11.7388 3.2275 11.5846 3.36774C11.4304 3.50743 11.2801 3.65145 11.1339 3.79872C10.9877 3.94599 10.8454 4.09651 10.7072 4.25082C10.5695 4.40513 10.4359 4.56269 10.3062 4.7235C10.1765 4.8843 10.052 5.04836 9.93146 5.21512C9.81093 5.38243 9.69497 5.5519 9.58415 5.72462C9.47276 5.89733 9.36651 6.07222 9.26483 6.25035C9.16315 6.42794 9.06661 6.60824 8.97465 6.79071C8.88325 6.97317 8.79642 7.15834 8.71474 7.34514C8.63305 7.53194 8.5565 7.72036 8.4851 7.91094C8.4137 8.10153 8.34801 8.29374 8.28688 8.48757C8.22633 8.68141 8.17092 8.87633 8.12066 9.07287L7.13128 6.31803C7.11129 6.26389 7.08616 6.21191 7.05588 6.16264C7.02504 6.11337 6.98962 6.06735 6.94963 6.02457C6.90965 5.9818 6.86566 5.94336 6.81768 5.9087C6.7697 5.87405 6.71886 5.84373 6.66459 5.81883C6.61032 5.79392 6.55377 5.77389 6.4955 5.75927C6.43724 5.74411 6.37783 5.7349 6.31785 5.73111C6.2573 5.72786 6.19732 5.72949 6.13734 5.73707C6.07736 5.74411 6.0191 5.7571 5.96198 5.77551L5.878 5.80421C5.38503 4.43058 4.63615 2.3585 4.05921 0.742302C3.11553 -1.86093 -0.46094 3.38885 0.0743028 4.88593C0.353063 5.65964 0.700943 6.62882 0.975705 7.38791L0.891734 7.41336C0.834039 7.43123 0.77863 7.45397 0.725506 7.48212C0.672381 7.51028 0.622684 7.54331 0.576414 7.58067C0.530145 7.61857 0.488445 7.65972 0.450744 7.7052C0.413614 7.75068 0.381054 7.79886 0.353635 7.8503C0.326215 7.90174 0.304509 7.95534 0.288514 8.01057C0.271949 8.06634 0.262238 8.12264 0.257668 8.18004C0.253098 8.23797 0.254812 8.29482 0.262809 8.35221C0.270235 8.40907 0.283944 8.46538 0.303366 8.51952L3.14981 16.3693L2.00335 16.731L6.03452 27.9106C6.06423 27.994 6.0985 28.0752 6.13677 28.1553C6.17562 28.2354 6.21789 28.314 6.26473 28.3898C6.311 28.4661 6.36127 28.5397 6.41553 28.6112C6.4698 28.6827 6.52806 28.7514 6.58919 28.818C6.65031 28.8841 6.71543 28.9469 6.78341 29.007C6.85138 29.0671 6.92221 29.1239 6.9959 29.1775C7.06959 29.2306 7.14614 29.2804 7.22497 29.327C7.30437 29.3735 7.38548 29.4158 7.46888 29.4548C7.55228 29.4937 7.63797 29.5284 7.72479 29.5593C7.81219 29.5901 7.90016 29.6167 7.99042 29.6394C8.0801 29.6621 8.17092 29.6805 8.26289 29.6946C8.35429 29.7087 8.44683 29.7184 8.53937 29.7239C8.63248 29.7293 8.72502 29.7309 8.81813 29.7276C8.91124 29.7244 9.00378 29.7174 9.09575 29.7055C9.18771 29.6935 9.27911 29.6778 9.36994 29.6578C9.46019 29.6372 9.5493 29.6129 9.63727 29.5847L13.3703 28.3806C13.4582 28.3519 13.5445 28.3194 13.629 28.2831C13.7136 28.2468 13.7964 28.2062 13.8764 28.1624C13.9569 28.118 14.0352 28.0703 14.1106 28.0189C14.186 27.9674 14.2585 27.9127 14.3282 27.8548C14.3979 27.7969 14.4647 27.7357 14.5281 27.6713C14.5916 27.6068 14.6515 27.5397 14.7081 27.4699C14.7641 27.4 14.8172 27.3275 14.8657 27.2527C14.9149 27.178 14.96 27.1011 15.0006 27.0221C15.0417 26.9436 15.0788 26.8629 15.1114 26.7801C15.1439 26.6978 15.1719 26.6144 15.1959 26.5294C15.2199 26.4444 15.2393 26.3583 15.2542 26.2717C15.269 26.1845 15.2799 26.0973 15.2856 26.0096C15.2913 25.9219 15.293 25.8342 15.2896 25.7459C15.2867 25.6582 15.2787 25.5705 15.2667 25.4833C15.2542 25.3961 15.2376 25.3101 15.2165 25.224C15.1948 25.1384 15.1696 25.054 15.1394 24.9711L14.0963 22.0782C15.3701 22.7572 16.7291 23.2055 18.1732 23.4231L17.386 24.3598L24.928 29.9967L32.6573 20.7403C32.7738 20.6028 32.8744 20.455 32.9595 20.298C33.0446 20.1409 33.1126 19.978 33.1634 19.808C33.2142 19.6385 33.2474 19.4652 33.2617 19.2893C33.2759 19.1133 33.2719 18.9379 33.2497 18.763ZM10.6192 14.7244L11.6663 17.6168L4.01694 20.0933L2.97387 17.2009L10.6192 14.7244ZM14.2985 26.7026C14.1786 26.9371 14.0146 27.1396 13.8078 27.3118C13.601 27.4834 13.3674 27.6106 13.1069 27.6935L9.37394 28.9009C9.24484 28.9426 9.11288 28.9718 8.97807 28.9886C8.84269 29.0059 8.70731 29.0102 8.57136 29.0016C8.4354 28.9935 8.30174 28.9729 8.17035 28.9393C8.0384 28.9063 7.91159 28.8608 7.78934 28.804C7.6671 28.7471 7.55171 28.6794 7.44375 28.6015C7.33579 28.523 7.23639 28.4352 7.14671 28.3383C7.05702 28.2414 6.97762 28.1374 6.90965 28.0259C6.8411 27.9144 6.78512 27.7974 6.74113 27.6756L4.63615 21.7929L12.2775 19.3196L14.3945 25.1877C14.4887 25.4351 14.5293 25.6907 14.5144 25.9533C14.4996 26.2164 14.4316 26.466 14.3105 26.7026H14.2985ZM13.011 19.11L11.1008 13.8094L9.95431 14.1711C9.90918 13.9929 9.86919 13.8137 9.83378 13.6334C9.79893 13.4531 9.76923 13.2717 9.74524 13.0903C9.72067 12.9084 9.70182 12.726 9.68811 12.5429C9.6744 12.3605 9.66583 12.1775 9.66298 11.9939C9.66012 11.8109 9.66241 11.6274 9.6704 11.4444C9.6784 11.2614 9.69154 11.0784 9.70982 10.8959C9.72867 10.7134 9.75209 10.5315 9.78179 10.3507C9.81093 10.1693 9.8452 9.98898 9.88519 9.80977C9.9246 9.63001 9.96973 9.45188 10.02 9.27483C10.0703 9.09778 10.1251 8.92235 10.1857 8.74855C10.2462 8.5742 10.3119 8.40203 10.3827 8.23093C10.453 8.06038 10.5284 7.89145 10.6089 7.72523C10.6895 7.55847 10.7746 7.39387 10.8648 7.23144C10.9551 7.06955 11.0499 6.90982 11.1493 6.75226C11.2487 6.59525 11.3527 6.4404 11.4612 6.28879C11.5697 6.13665 11.6828 5.9883 11.8 5.84211C11.9171 5.69646 12.0387 5.55352 12.1644 5.41383C12.2901 5.27468 12.4197 5.13824 12.5534 5.00559C12.6871 4.87293 12.8242 4.74407 12.9653 4.61846C13.1064 4.49284 13.2514 4.37102 13.3994 4.25353C13.5479 4.13549 13.6993 4.02179 13.8547 3.91134C14.0095 3.80143 14.1677 3.69585 14.3288 3.59406C14.4899 3.49281 14.6538 3.39535 14.8206 3.30222C14.9874 3.20909 15.1571 3.12084 15.329 3.03638C15.5015 2.95245 15.6758 2.87286 15.8523 2.7976C16.0293 2.72288 16.2081 2.6525 16.3886 2.58698C16.5697 2.52147 16.7525 2.46029 16.9365 2.40452C17.121 2.34821 17.3072 2.29731 17.4945 2.25129C17.6819 2.20473 17.8704 2.16358 18.0601 2.1273C18.2503 2.09048 18.4411 2.05962 18.6324 2.03309C18.8244 2.00656 19.0163 1.98544 19.2094 1.9692C19.4025 1.95296 19.5955 1.94159 19.7892 1.93563H20.1713C20.3387 1.93617 20.5055 1.93996 20.6729 1.94809C20.8397 1.95621 21.0065 1.96812 21.1733 1.98328C21.3395 1.99898 21.5057 2.01847 21.6714 2.04121C21.8365 2.06449 22.0016 2.09102 22.1655 2.12135C22.33 2.15221 22.4928 2.18632 22.6556 2.22422C22.8178 2.26212 22.9795 2.30381 23.1394 2.34875C23.3 2.39369 23.4588 2.44296 23.617 2.49494C23.7747 2.54746 23.9312 2.60322 24.086 2.66278C24.2414 2.72234 24.3944 2.78515 24.5464 2.85175C24.6983 2.91834 24.8486 2.98819 24.9965 3.06128C25.145 3.13438 25.2913 3.21072 25.4358 3.29085C25.5803 3.37044 25.7226 3.45382 25.8631 3.53991C26.003 3.626 26.1413 3.71588 26.2772 3.80792C26.4126 3.90051 26.5463 3.99635 26.6771 4.09489C26.8079 4.19343 26.9364 4.29468 27.0621 4.39918C27.1878 4.50367 27.3106 4.61088 27.4311 4.72079C27.5516 4.8307 27.6687 4.94332 27.7836 5.05865C27.8984 5.17397 28.0098 5.29147 28.1189 5.41166C28.2274 5.5324 28.3331 5.65477 28.4353 5.77984C28.5381 5.90491 28.6375 6.03269 28.7335 6.1621C28.8295 6.2915 28.922 6.42307 29.0117 6.55735C29.1008 6.69108 29.1871 6.82644 29.2699 6.96451C29.3522 7.10203 29.431 7.24172 29.507 7.3825C29.5824 7.52381 29.6543 7.66675 29.7223 7.81132C29.7909 7.95588 29.8554 8.10207 29.916 8.24934C29.9771 8.39661 30.0342 8.54551 30.0879 8.69549C30.141 8.84546 30.1907 8.99653 30.2364 9.14921C30.2821 9.30136 30.3238 9.45458 30.3621 9.60889C30.3998 9.76266 30.4341 9.91751 30.4643 10.0734C30.4946 10.2294 30.5203 10.3853 30.5426 10.5423C30.5649 10.6993 30.5832 10.8564 30.598 11.0145C30.6123 11.172 30.6226 11.3301 30.6289 11.4882C30.6791 12.8039 30.4586 14.0779 29.9679 15.3097L29.0968 14.6556C29.0237 14.601 28.9477 14.5501 28.8695 14.503C28.7912 14.4553 28.7107 14.412 28.6278 14.3719C28.545 14.3319 28.4605 14.2961 28.3736 14.2642C28.2874 14.2317 28.1994 14.2041 28.1097 14.1797C28.0206 14.1559 27.9298 14.1364 27.8384 14.1207C27.747 14.1055 27.655 14.0942 27.5619 14.0871C27.4694 14.0801 27.3768 14.0774 27.2837 14.079C27.1906 14.0806 27.0981 14.0866 27.0061 14.0969C26.9136 14.1072 26.8222 14.1212 26.7313 14.1402C26.6405 14.1591 26.5508 14.1819 26.4623 14.209C26.3738 14.236 26.2869 14.2669 26.2018 14.3021C26.1167 14.3367 26.0333 14.3757 25.9522 14.4185C25.8711 14.4613 25.7922 14.5078 25.7157 14.5576C25.6392 14.608 25.5655 14.6616 25.4946 14.7184C25.4238 14.7753 25.3558 14.8354 25.2913 14.8987C25.2267 14.9616 25.1656 15.0276 25.1079 15.0964L19.5561 21.7458C18.9512 21.7149 18.3537 21.6342 17.7636 21.5043C17.1741 21.3743 16.6006 21.1968 16.0431 20.9721C15.4861 20.7468 14.9537 20.4777 14.4465 20.1642C13.9392 19.8507 13.4645 19.4983 13.0224 19.1063L13.011 19.11ZM32.0461 20.2958L24.7869 28.9734L18.4519 24.2299L25.7111 15.5523C25.7962 15.451 25.8905 15.359 25.9939 15.2756C26.0979 15.1922 26.2092 15.1191 26.3286 15.0563C26.4474 14.9935 26.572 14.9426 26.7016 14.9031C26.8307 14.8636 26.9633 14.8359 27.0986 14.8213C27.234 14.8062 27.3694 14.804 27.5054 14.8143C27.6413 14.8246 27.7744 14.8473 27.9058 14.882C28.0366 14.9172 28.1628 14.9643 28.284 15.0227C28.4056 15.0812 28.5199 15.1505 28.6267 15.2301L31.7216 17.5442C31.9353 17.7066 32.1089 17.9016 32.2409 18.129C32.3734 18.3564 32.4551 18.5989 32.4853 18.8567C32.5185 19.1133 32.4979 19.3661 32.4237 19.6152C32.3494 19.8637 32.2277 20.0895 32.0575 20.292L32.0461 20.2958Z" fill="#D87385"/>
<path d="M33.2497 18.763C33.2297 18.5865 33.1908 18.4138 33.1343 18.2448C33.0777 18.0754 33.0035 17.9135 32.9126 17.7581C32.8218 17.6032 32.7156 17.4576 32.5945 17.3228C32.4728 17.1874 32.3385 17.065 32.1912 16.9551L31.5303 16.4597C31.6148 16.274 31.6942 16.0867 31.7685 15.8966C31.8427 15.7071 31.9118 15.516 31.9758 15.3232C32.0392 15.1305 32.0981 14.9361 32.1512 14.7401C32.2043 14.5441 32.2523 14.3476 32.2946 14.1494C32.3368 13.9512 32.374 13.752 32.4054 13.5522C32.4368 13.3524 32.4631 13.1515 32.4836 12.9501C32.5042 12.7492 32.5191 12.5478 32.5288 12.3459C32.5379 12.1439 32.5419 11.9414 32.5408 11.7395C32.539 11.5375 32.5322 11.3355 32.5196 11.1336C32.5071 10.9316 32.4888 10.7302 32.4654 10.5293C32.4414 10.3285 32.4128 10.1281 32.378 9.92888C32.3437 9.72909 32.3037 9.53093 32.258 9.3333C32.2129 9.13568 32.162 8.93968 32.1061 8.74422C32.0495 8.5493 31.9884 8.35601 31.9215 8.16379C31.8547 7.97158 31.7827 7.78154 31.7056 7.59312C31.6285 7.40416 31.5462 7.2179 31.4594 7.03327C31.372 6.84918 31.2795 6.66672 31.1824 6.48696C31.0853 6.30666 30.983 6.12907 30.8756 5.95419C30.7688 5.7793 30.6574 5.60712 30.5409 5.43765C30.4243 5.26818 30.3032 5.10142 30.1781 4.93791C30.0525 4.77439 29.9222 4.61413 29.788 4.45657C29.6538 4.29955 29.5155 4.14578 29.3727 3.99526C29.2299 3.84474 29.0831 3.69801 28.9323 3.55453C28.7821 3.41159 28.6273 3.2719 28.469 3.13654C28.3108 3.00064 28.1486 2.86907 27.9829 2.74129C27.8173 2.61351 27.6487 2.49006 27.4762 2.37041C27.3037 2.25075 27.1283 2.13596 26.9496 2.02497C26.7713 1.91397 26.5897 1.80785 26.4052 1.70552C26.2207 1.60373 26.0339 1.50627 25.8437 1.41314C25.654 1.32056 25.4621 1.2323 25.2673 1.14892C25.0725 1.06554 24.876 0.987032 24.6772 0.913397C24.4784 0.83922 24.2773 0.770457 24.0746 0.706568C23.8723 0.642678 23.6678 0.583661 23.4622 0.530059C23.256 0.475915 23.0492 0.427185 22.8401 0.383329C22.6316 0.339473 22.422 0.30103 22.2118 0.267461C22.001 0.233892 21.7896 0.205196 21.5771 0.182455C21.3652 0.159174 21.1521 0.141306 20.9391 0.128312C20.726 0.115317 20.5124 0.108278 20.2987 0.105571C20.0851 0.103405 19.872 0.106113 19.6584 0.114234C19.4447 0.122897 19.2317 0.135892 19.0192 0.154842C18.8067 0.173251 18.5942 0.197074 18.3828 0.22577C18.1715 0.255008 17.9612 0.289119 17.7516 0.328102C17.542 0.367627 17.3335 0.412025 17.1267 0.461296C16.9193 0.511108 16.7137 0.565252 16.5097 0.62481C16.3052 0.684369 16.103 0.749341 15.9025 0.818645C15.702 0.887949 15.5032 0.962126 15.3067 1.04172C15.1102 1.12077 14.916 1.20469 14.7241 1.29349C14.5321 1.38228 14.3425 1.47541 14.1557 1.57341C13.9689 1.67141 13.785 1.77374 13.6039 1.88095C13.4222 1.98815 13.244 2.09915 13.0692 2.21501C12.8939 2.33088 12.7219 2.45054 12.5534 2.57507C12.3849 2.69906 12.2198 2.82738 12.0581 2.95949C11.8965 3.0916 11.7388 3.2275 11.5846 3.36774C11.4304 3.50743 11.2801 3.65145 11.1339 3.79872C10.9877 3.94599 10.8454 4.09651 10.7072 4.25082C10.5695 4.40513 10.4359 4.56269 10.3062 4.7235C10.1765 4.8843 10.052 5.04836 9.93146 5.21512C9.81093 5.38243 9.69497 5.5519 9.58415 5.72462C9.47276 5.89733 9.36651 6.07222 9.26483 6.25035C9.16315 6.42794 9.06661 6.60824 8.97464 6.79071C8.88325 6.97317 8.79642 7.15834 8.71473 7.34514C8.63305 7.53194 8.5565 7.72036 8.4851 7.91094C8.4137 8.10153 8.348 8.29374 8.28688 8.48757C8.22633 8.68141 8.17092 8.87633 8.12066 9.07287L7.13128 6.31803C7.11129 6.26389 7.08616 6.21191 7.05588 6.16264C7.02504 6.11337 6.98962 6.06735 6.94963 6.02457C6.90965 5.9818 6.86566 5.94336 6.81768 5.9087C6.7697 5.87405 6.71886 5.84373 6.66459 5.81883C6.61032 5.79392 6.55377 5.77389 6.4955 5.75927C6.43724 5.74411 6.37783 5.7349 6.31785 5.73111C6.2573 5.72786 6.19732 5.72949 6.13734 5.73707C6.07736 5.74411 6.0191 5.7571 5.96198 5.77551L5.878 5.80421C5.38503 4.43058 4.63615 2.3585 4.05921 0.742302C3.11553 -1.86093 -0.46094 3.38885 0.0743028 4.88593C0.353063 5.65964 0.700943 6.62882 0.975705 7.38791L0.891734 7.41336C0.834039 7.43123 0.77863 7.45397 0.725506 7.48212C0.672381 7.51028 0.622684 7.54331 0.576414 7.58067C0.530145 7.61857 0.488445 7.65972 0.450744 7.7052C0.413614 7.75068 0.381054 7.79887 0.353635 7.8503C0.326215 7.90174 0.304509 7.95534 0.288514 8.01057C0.271949 8.06634 0.262238 8.12265 0.257668 8.18004C0.253098 8.23797 0.254812 8.29482 0.262809 8.35222C0.270235 8.40907 0.283944 8.46538 0.303366 8.51952L3.14981 16.3693L2.00335 16.731L6.03452 27.9106C6.06423 27.994 6.0985 28.0752 6.13677 28.1553C6.17562 28.2354 6.21789 28.314 6.26473 28.3898C6.311 28.4661 6.36127 28.5397 6.41553 28.6112C6.4698 28.6827 6.52806 28.7514 6.58919 28.818C6.65031 28.8841 6.71543 28.9469 6.7834 29.007C6.85138 29.0671 6.92221 29.1239 6.9959 29.1775C7.06959 29.2306 7.14614 29.2804 7.22497 29.327C7.30437 29.3736 7.38548 29.4158 7.46888 29.4548C7.55228 29.4937 7.63797 29.5284 7.72479 29.5593C7.81219 29.5901 7.90016 29.6167 7.99041 29.6394C8.0801 29.6621 8.17092 29.6805 8.26289 29.6946C8.35429 29.7087 8.44683 29.7184 8.53937 29.7239C8.63248 29.7293 8.72502 29.7309 8.81813 29.7277C8.91124 29.7244 9.00378 29.7174 9.09575 29.7055C9.18771 29.6935 9.27911 29.6778 9.36994 29.6578C9.46019 29.6372 9.5493 29.6129 9.63727 29.5847L13.3703 28.3806C13.4582 28.3519 13.5445 28.3194 13.629 28.2831C13.7136 28.2468 13.7964 28.2062 13.8764 28.1624C13.9569 28.118 14.0352 28.0703 14.1106 28.0189C14.186 27.9674 14.2585 27.9128 14.3282 27.8548C14.3979 27.7969 14.4647 27.7357 14.5281 27.6713C14.5916 27.6068 14.6515 27.5397 14.7081 27.4699C14.7641 27.4 14.8172 27.3275 14.8657 27.2527C14.9149 27.178 14.96 27.1011 15.0006 27.0221C15.0417 26.9436 15.0788 26.8629 15.1114 26.7801C15.1439 26.6978 15.1719 26.6144 15.1959 26.5294C15.2199 26.4444 15.2393 26.3583 15.2542 26.2717C15.269 26.1845 15.2799 26.0973 15.2856 26.0096C15.2913 25.9219 15.293 25.8342 15.2896 25.7459C15.2867 25.6582 15.2787 25.5705 15.2667 25.4833C15.2542 25.3961 15.2376 25.3101 15.2165 25.224C15.1948 25.1384 15.1696 25.054 15.1394 24.9711L14.0963 22.0782C15.3701 22.7572 16.7291 23.2055 18.1732 23.4231L17.386 24.3598L24.928 29.9967L32.6573 20.7403C32.7738 20.6028 32.8744 20.455 32.9595 20.298C33.0446 20.1409 33.1126 19.978 33.1634 19.808C33.2142 19.6385 33.2474 19.4652 33.2617 19.2893C33.2759 19.1133 33.2719 18.9379 33.2497 18.763ZM1.04082 8.2775C1.03397 8.25909 1.03111 8.24068 1.03283 8.22119C1.03397 8.20224 1.03911 8.18383 1.04768 8.1665C1.05682 8.14918 1.06882 8.13402 1.08424 8.12156C1.09966 8.10857 1.1168 8.09936 1.13622 8.09287L6.21046 6.4626C6.22703 6.45935 6.24359 6.45935 6.26016 6.4626C6.28301 6.45718 6.30586 6.45718 6.32871 6.4626C6.36869 6.4783 6.3944 6.50591 6.40525 6.54544L9.24027 14.4022L3.89126 16.1343L1.04082 8.2775ZM10.6192 14.7244L11.6663 17.6168L4.01694 20.0933L2.97387 17.2009L10.6192 14.7244ZM14.2985 26.7026C14.1786 26.9371 14.0146 27.1396 13.8078 27.3118C13.601 27.4834 13.3674 27.6106 13.1069 27.6935L9.37393 28.9009C9.24484 28.9426 9.11288 28.9718 8.97807 28.9886C8.84269 29.0059 8.70731 29.0102 8.57136 29.0016C8.4354 28.9935 8.30174 28.9729 8.17035 28.9393C8.0384 28.9063 7.91158 28.8608 7.78934 28.804C7.6671 28.7471 7.55171 28.6794 7.44375 28.6015C7.33578 28.523 7.23639 28.4352 7.14671 28.3383C7.05702 28.2414 6.97762 28.1374 6.90965 28.0259C6.8411 27.9144 6.78512 27.7974 6.74113 27.6756L4.63615 21.7929L12.2775 19.3196L14.3945 25.1877C14.4887 25.4351 14.5293 25.6907 14.5144 25.9533C14.4996 26.2164 14.4316 26.466 14.3105 26.7026H14.2985ZM13.011 19.11L11.1008 13.8094L9.95431 14.1711C9.90918 13.9929 9.86919 13.8137 9.83378 13.6334C9.79893 13.4531 9.76923 13.2717 9.74524 13.0903C9.72067 12.9084 9.70182 12.726 9.68811 12.5429C9.6744 12.3605 9.66583 12.1775 9.66298 11.9939C9.66012 11.8109 9.66241 11.6274 9.6704 11.4444C9.6784 11.2614 9.69154 11.0784 9.70982 10.8959C9.72867 10.7134 9.75209 10.5315 9.78179 10.3507C9.81093 10.1693 9.8452 9.98898 9.88519 9.80977C9.9246 9.63001 9.96973 9.45188 10.02 9.27483C10.0703 9.09778 10.1251 8.92235 10.1857 8.74855C10.2462 8.5742 10.3119 8.40203 10.3827 8.23093C10.453 8.06038 10.5284 7.89145 10.6089 7.72523C10.6895 7.55847 10.7746 7.39387 10.8648 7.23144C10.9551 7.06955 11.0499 6.90982 11.1493 6.75227C11.2487 6.59525 11.3527 6.4404 11.4612 6.28879C11.5697 6.13665 11.6828 5.9883 11.8 5.84211C11.9171 5.69646 12.0387 5.55352 12.1644 5.41383C12.2901 5.27468 12.4197 5.13824 12.5534 5.00559C12.6871 4.87293 12.8242 4.74407 12.9653 4.61846C13.1064 4.49284 13.2514 4.37102 13.3994 4.25353C13.5479 4.1355 13.6993 4.02179 13.8547 3.91134C14.0095 3.80143 14.1677 3.69585 14.3288 3.59406C14.4899 3.49281 14.6538 3.39535 14.8206 3.30222C14.9874 3.20909 15.1571 3.12084 15.329 3.03638C15.5015 2.95245 15.6758 2.87286 15.8523 2.7976C16.0293 2.72288 16.2081 2.6525 16.3886 2.58698C16.5697 2.52147 16.7525 2.46029 16.9365 2.40452C17.121 2.34821 17.3072 2.29731 17.4945 2.25129C17.6819 2.20473 17.8704 2.16358 18.0601 2.1273C18.2503 2.09048 18.4411 2.05962 18.6324 2.03309C18.8244 2.00656 19.0163 1.98544 19.2094 1.9692C19.4025 1.95296 19.5955 1.94159 19.7892 1.93563H20.1713C20.3387 1.93617 20.5055 1.93996 20.6729 1.94809C20.8397 1.95621 21.0065 1.96812 21.1733 1.98328C21.3395 1.99898 21.5057 2.01847 21.6714 2.04121C21.8365 2.06449 22.0016 2.09102 22.1655 2.12135C22.33 2.15221 22.4928 2.18632 22.6556 2.22422C22.8178 2.26212 22.9795 2.30381 23.1394 2.34875C23.3 2.39369 23.4588 2.44296 23.617 2.49494C23.7747 2.54746 23.9312 2.60323 24.086 2.66278C24.2414 2.72234 24.3944 2.78515 24.5464 2.85175C24.6983 2.91834 24.8486 2.98819 24.9965 3.06128C25.145 3.13438 25.2913 3.21072 25.4358 3.29085C25.5803 3.37044 25.7226 3.45382 25.8631 3.53991C26.003 3.626 26.1413 3.71588 26.2772 3.80792C26.4126 3.90051 26.5463 3.99635 26.6771 4.09489C26.8079 4.19343 26.9364 4.29468 27.0621 4.39918C27.1878 4.50367 27.3106 4.61088 27.4311 4.72079C27.5516 4.8307 27.6687 4.94332 27.7836 5.05865C27.8984 5.17397 28.0098 5.29147 28.1189 5.41166C28.2274 5.53241 28.3331 5.65477 28.4353 5.77984C28.5381 5.90491 28.6375 6.03269 28.7335 6.1621C28.8295 6.2915 28.922 6.42307 29.0117 6.55735C29.1008 6.69108 29.1871 6.82644 29.2699 6.96451C29.3521 7.10203 29.431 7.24173 29.507 7.3825C29.5824 7.52381 29.6543 7.66675 29.7223 7.81132C29.7909 7.95588 29.8554 8.10207 29.916 8.24934C29.9771 8.39661 30.0342 8.54551 30.0879 8.69549C30.141 8.84547 30.1907 8.99653 30.2364 9.14921C30.2821 9.30136 30.3238 9.45458 30.3621 9.60889C30.3998 9.76266 30.4341 9.91751 30.4643 10.0734C30.4946 10.2294 30.5203 10.3853 30.5426 10.5423C30.5649 10.6993 30.5832 10.8564 30.598 11.0145C30.6123 11.172 30.6226 11.3301 30.6288 11.4882C30.6791 12.8039 30.4586 14.0779 29.9679 15.3097L29.0968 14.6556C29.0237 14.601 28.9477 14.5501 28.8695 14.503C28.7912 14.4553 28.7107 14.412 28.6278 14.3719C28.545 14.3319 28.4605 14.2961 28.3736 14.2642C28.2874 14.2317 28.1994 14.2041 28.1097 14.1797C28.0206 14.1559 27.9298 14.1364 27.8384 14.1207C27.747 14.1055 27.655 14.0942 27.5619 14.0871C27.4694 14.0801 27.3768 14.0774 27.2837 14.079C27.1906 14.0806 27.0981 14.0866 27.0061 14.0969C26.9136 14.1072 26.8222 14.1212 26.7313 14.1402C26.6405 14.1591 26.5508 14.1819 26.4623 14.209C26.3738 14.236 26.2869 14.2669 26.2018 14.3021C26.1167 14.3367 26.0333 14.3757 25.9522 14.4185C25.8711 14.4613 25.7922 14.5078 25.7157 14.5576C25.6392 14.608 25.5655 14.6616 25.4946 14.7184C25.4238 14.7753 25.3558 14.8354 25.2913 14.8987C25.2267 14.9616 25.1656 15.0276 25.1079 15.0964L19.5561 21.7458C18.9512 21.7149 18.3537 21.6342 17.7636 21.5043C17.1741 21.3743 16.6006 21.1968 16.0431 20.9721C15.4861 20.7468 14.9537 20.4777 14.4465 20.1642C13.9392 19.8507 13.4645 19.4983 13.0224 19.1063L13.011 19.11ZM32.0461 20.2958L24.7869 28.9734L18.4519 24.2299L25.7111 15.5523C25.7962 15.451 25.8905 15.359 25.9939 15.2756C26.0978 15.1922 26.2092 15.1191 26.3286 15.0563C26.4474 14.9935 26.572 14.9426 26.7016 14.9031C26.8307 14.8636 26.9633 14.8359 27.0986 14.8213C27.234 14.8062 27.3694 14.804 27.5054 14.8143C27.6413 14.8246 27.7744 14.8473 27.9058 14.882C28.0366 14.9172 28.1628 14.9643 28.2839 15.0227C28.4056 15.0812 28.5199 15.1505 28.6267 15.2301L31.7216 17.5442C31.9353 17.7066 32.1089 17.9016 32.2409 18.129C32.3734 18.3564 32.4551 18.5989 32.4853 18.8567C32.5185 19.1133 32.4979 19.3661 32.4237 19.6152C32.3494 19.8637 32.2277 20.0895 32.0575 20.292L32.0461 20.2958Z" fill="black"/>
</g>
</svg>
