<svg width="99" height="80" viewBox="0 0 99 80" fill="none" xmlns="http://www.w3.org/2000/svg">
<mask id="mask0_50_2136" style="mask-type:luminance" maskUnits="userSpaceOnUse" x="0" y="0" width="99" height="80">
<path d="M0 0H98.7632V80H0V0Z" fill="white"/>
</mask>
<g mask="url(#mask0_50_2136)">
<path d="M34.4616 60.3656C34.3107 60.5681 34.2591 60.7707 34.3107 61.0235C34.361 61.226 34.5133 61.4285 34.7158 61.5304C37.1949 62.6436 39.7746 63.2498 42.4059 63.2498C42.4575 63.2498 42.4575 63.2498 42.5078 63.2498C45.1392 63.2498 47.6685 62.6436 50.0974 61.5304C50.2999 61.4285 50.4521 61.226 50.5024 61.0235C50.5527 60.8209 50.5024 60.5681 50.3502 60.3656L49.0345 58.6449C48.4786 57.9368 47.7705 57.3809 47.0107 57.0765C46.6057 56.9256 46.2523 56.8237 45.797 56.7734C44.7341 56.6728 44.1266 56.874 43.621 57.0262C43.2159 57.1281 42.9129 57.2287 42.4575 57.2287C42.0009 57.2287 41.6978 57.1281 41.2927 56.9759C40.7368 56.7734 40.1293 56.6212 39.0664 56.6728C38.6111 56.7231 38.308 56.7734 38.1055 56.874C37.1949 57.1784 36.3345 57.7343 35.727 58.5947L34.4616 60.3656ZM36.9924 59.5569C37.4477 58.9494 38.0036 58.5444 38.6111 58.3418C38.7633 58.2916 38.9156 58.2413 39.269 58.2413C40.0287 58.1896 40.4324 58.2916 40.8877 58.4438C41.2927 58.5947 41.7997 58.7469 42.4575 58.7469C43.1657 58.7469 43.6713 58.5947 44.0763 58.4941C44.5316 58.3418 44.9366 58.2413 45.695 58.2916C45.9995 58.3418 46.2523 58.3921 46.5051 58.4941C47.0107 58.6966 47.5163 59.05 47.9213 59.5569L48.6295 60.4676C46.6573 61.226 44.6322 61.631 42.5078 61.631C40.3821 61.631 38.2577 61.226 36.2842 60.4173L36.9924 59.5569ZM48.7817 64.8699C49.0345 65.173 48.9842 65.6786 48.6811 65.9314L47.1126 67.1968C47.061 67.1968 47.061 67.247 47.0107 67.247C46.3529 67.6521 45.6448 67.9049 44.8863 68.0068C44.5819 68.0571 44.2788 68.0571 43.9744 68.0571H41.1922C41.0399 68.0571 40.8374 68.0571 40.6866 68.0571C39.8765 68.0068 39.1167 67.754 38.4086 67.3993C38.3583 67.3993 38.308 67.349 38.308 67.349L36.4868 65.9314C36.132 65.6786 36.0817 65.2233 36.3345 64.8699C36.5873 64.5151 37.0427 64.4649 37.3974 64.7177L39.1684 66.0836C39.674 66.3364 40.2299 66.4886 40.7871 66.5389C40.8877 66.5389 41.0399 66.5389 41.1419 66.5389H43.9241C44.1769 66.5389 44.3794 66.5389 44.6322 66.4886C45.1894 66.3881 45.695 66.2358 46.202 65.9314L47.7188 64.7177C48.0233 64.4649 48.4786 64.5151 48.7817 64.8699ZM36.9421 48.2732C36.8401 47.8682 37.0929 47.4632 37.498 47.3612C37.903 47.2606 38.308 47.5134 38.4086 47.9185C38.4589 48.019 38.8136 48.2216 39.1167 48.4241C39.3709 48.5763 39.6237 48.7788 39.9771 49.0316C41.0902 49.8417 43.2662 49.8417 44.3794 49.0316C44.7341 48.7788 45.0372 48.5763 45.2397 48.4241C45.5442 48.2216 45.8976 48.019 45.9479 47.9185C46.0498 47.5134 46.4548 47.2606 46.8585 47.3612C47.2635 47.4632 47.5163 47.8682 47.4157 48.2732C47.2635 48.931 46.8585 49.1838 46.1001 49.6895C45.8473 49.8417 45.5945 50.0442 45.2397 50.2453C44.4297 50.8026 43.3165 51.1057 42.1531 51.1057C41.0399 51.1057 39.8765 50.8026 39.0664 50.2453C38.7131 49.9925 38.4589 49.8417 38.2061 49.6895C37.498 49.2341 37.0929 48.931 36.9421 48.2732ZM35.9295 33.7003C36.0301 34.104 35.8289 34.509 35.4239 34.6612C34.8666 34.8135 34.1082 35.016 33.1976 35.2688C30.6166 35.9769 30.009 36.1291 29.2506 36.2297C28.9978 36.2297 28.6431 36.28 28.1375 36.28C27.5802 36.28 26.8721 36.2297 26.1137 36.0775C25.9112 36.0272 25.6584 35.9769 25.4558 35.9266C24.8986 36.0272 23.8357 36.3819 23.5326 37.2423C23.4307 37.5454 23.1276 37.7479 22.8245 37.7479C22.7226 37.7479 22.622 37.7479 22.5717 37.6976C22.1667 37.5454 21.9642 37.0901 22.1164 36.7353C22.4195 35.9769 22.9754 35.4713 23.5326 35.1166C23.027 34.8135 22.5717 34.509 22.1164 34.104C21.9139 33.9531 21.256 33.4978 20.3454 33.4978C19.5353 33.4978 18.9781 33.8512 18.675 34.104C18.3203 34.3582 17.8649 34.3065 17.6121 33.9531C17.3593 33.5984 17.4096 33.1431 17.7644 32.8903C18.1694 32.5872 19.08 32.0299 20.3454 31.9796C21.6597 31.9293 22.6723 32.5355 23.1276 32.8903C24.1402 33.7506 25.3036 34.3582 26.5173 34.611C27.6821 34.8638 28.6934 34.8135 29.1487 34.7618C29.7562 34.7115 30.2618 34.611 32.7926 33.8512C33.7032 33.5984 34.4616 33.3959 34.9686 33.245C35.3736 33.0425 35.8289 33.2953 35.9295 33.7003ZM61.9886 34.0034C61.5333 34.3582 61.078 34.7115 60.6227 35.016C61.1786 35.3694 61.7358 35.875 62.0389 36.6347C62.1911 37.0398 61.9886 37.4448 61.5836 37.5957C61.483 37.646 61.3811 37.646 61.3308 37.646C61.0277 37.646 60.7232 37.4448 60.6227 37.1403C60.2679 36.28 59.2567 35.9266 58.6995 35.8247C58.4969 35.875 58.2944 35.9266 58.0416 35.9769C57.2832 36.1291 56.5737 36.1794 56.0178 36.1794C55.5625 36.1794 55.1575 36.1291 54.9047 36.1291C54.1449 36.0775 53.5387 35.9266 50.9577 35.1669C50.0471 34.914 49.2873 34.7115 48.7314 34.5607C48.3264 34.4587 48.0736 34.0034 48.2258 33.5984C48.3264 33.1934 48.7817 32.9406 49.1867 33.0928C49.744 33.245 50.5024 33.4462 51.3627 33.7003C53.9438 34.4084 54.4494 34.509 55.0053 34.611C55.4606 34.6612 56.4732 34.7618 57.6366 34.4587C58.8517 34.2059 59.9648 33.5984 60.9761 32.738C61.483 32.333 62.4439 31.7771 63.7596 31.7771C65.025 31.7771 65.8853 32.333 66.3406 32.6877C66.694 32.9406 66.7443 33.3959 66.4915 33.7506C66.2387 34.104 65.7834 34.1556 65.43 33.9028C65.1758 33.7003 64.5697 33.3456 63.7596 33.2953C62.8993 33.3959 62.2414 33.8009 61.9886 34.0034ZM60.0654 66.3364C60.3699 66.6409 60.3699 67.0962 60.0654 67.3993C58.9523 68.5124 57.7385 69.5753 56.5737 70.6381C56.2707 70.8909 55.9676 71.194 55.6631 71.4468C53.3865 73.37 50.9074 75.2933 48.3264 77.1145C46.4032 78.4805 44.2285 79.1383 42.1028 79.1383C39.9268 79.1383 37.8011 78.4805 35.8792 77.1145C29.1487 72.3588 17.5116 62.997 14.9305 53.332C13.3621 47.4129 12.4011 41.1879 12.2489 35.4197C12.2489 35.016 12.552 34.6612 13.0073 34.6612C13.4123 34.6612 13.7671 34.9643 13.7671 35.4197C13.9696 41.0873 14.8802 47.1601 16.3984 52.9786C18.8272 62.1366 30.2115 71.296 36.7396 75.9008C40.0287 78.2277 44.1769 78.2277 47.466 75.9008C50.0471 74.0782 52.4759 72.2066 54.7022 70.3337C55.0053 70.0809 55.3097 69.7778 55.6128 69.525C56.7763 68.5124 57.9411 67.4496 59.0542 66.3364C59.307 66.0333 59.7623 66.0333 60.0654 66.3364ZM29.6556 21.404C33.8038 22.2141 35.6264 24.5912 35.727 24.6932C35.9798 25.0466 35.9295 25.5032 35.5748 25.756C35.4239 25.8566 35.2717 25.9069 35.1194 25.9069C34.8666 25.9069 34.6641 25.8063 34.5133 25.6038C34.4616 25.5535 32.8931 23.58 29.4015 22.9222C25.6584 22.2141 20.9516 22.9222 20.9013 22.9222C20.4963 22.9725 20.0912 22.7197 20.041 22.2644C19.9907 21.8593 20.2435 21.4543 20.6988 21.404C20.851 21.404 25.6584 20.6456 29.6556 21.404ZM52.1211 23.0228C49.0345 23.7825 47.6685 25.5535 47.6685 25.5535C47.5163 25.756 47.3152 25.8566 47.061 25.8566C46.9101 25.8566 46.7579 25.8063 46.6057 25.7044C46.2523 25.4516 46.202 24.9963 46.4548 24.6429C46.5051 24.541 48.1239 22.4669 51.7678 21.5563C52.1728 21.4543 52.5765 21.7071 52.6784 22.1121C52.7287 22.5172 52.5262 22.9222 52.1211 23.0228ZM12.5017 59.7078C13.9696 64.3629 13.2601 69.7778 10.6302 73.8254C8.3522 77.3673 4.91218 79.5433 0.914895 80.0489C0.863246 80.0489 0.863246 80.0489 0.812958 80.0489C0.459577 80.0489 0.104837 79.7459 0.0545477 79.3911C0.00289995 78.9874 0.307351 78.5824 0.71238 78.5308C4.25434 78.0755 7.34099 76.1536 9.36478 73.0167C11.7433 69.3225 12.4011 64.4146 11.0855 60.1631C10.2754 57.684 8.85917 55.3571 7.49186 53.0792C7.03654 52.3711 6.58122 51.6127 6.17619 50.9032C2.88839 45.2369 1.9764 37.2423 3.79903 30.4614C6.22784 21.6065 13.3621 18.1652 20.2435 14.876C24.798 12.7013 29.5034 10.475 32.8931 6.62863C33.1976 6.32553 33.6529 6.27524 33.956 6.57834C34.2591 6.83114 34.3107 7.33675 34.0063 7.6412C30.414 11.6888 25.5564 14.017 20.9013 16.2433C14.0199 19.5325 7.5435 22.6178 5.26556 30.8665C3.49457 37.2926 4.35492 44.8318 7.44157 50.1448C7.8466 50.8529 8.30191 51.561 8.75723 52.2705C10.1735 54.5974 11.6917 57.0262 12.5017 59.7078ZM44.4813 0.860362C44.4297 0.455333 44.7844 0.101952 45.1894 0.0503037C45.5945 1.49509e-05 45.9479 0.354755 45.9995 0.759784C46.6573 9.41218 52.5262 15.8886 57.3335 19.8356C59.5598 21.6568 62.1911 23.0228 64.7205 24.3887C68.0097 26.1094 71.4008 27.8804 74.1327 30.664C75.9037 32.4852 77.3716 34.6612 78.3828 37.0398C78.535 37.4448 78.3828 37.8485 77.9778 38.051C77.8772 38.1026 77.7752 38.1026 77.6747 38.1026C77.3716 38.1026 77.1174 37.9504 76.9665 37.646C76.0043 35.4197 74.6886 33.4462 73.0195 31.7268C70.4888 29.0955 67.3519 27.4754 64.0124 25.7044C61.3811 24.3384 58.6995 22.9222 56.3726 20.999C51.3124 16.9011 45.1392 10.0184 44.4813 0.860362ZM98.7239 45.6419C98.5717 45.2369 98.168 45.0343 97.763 45.1866L85.4164 49.7397L83.7977 44.2746L96.5996 41.3401C97.0032 41.2396 97.2574 40.8345 97.1555 40.4295C97.0549 40.0245 96.6499 39.7717 96.2448 39.8736L82.7348 43.0105L75.4484 43.8192C72.2598 43.3136 69.0223 43.0105 65.8337 43.0105C63.254 43.0105 60.5724 43.1614 57.9913 43.5162C56.6757 43.6684 55.7148 44.8318 55.765 46.1475C55.8656 49.3347 56.3726 52.473 57.3335 55.508C58.1939 58.3418 59.4592 61.0738 60.9761 63.6045C61.483 64.4146 62.2917 64.8182 63.1521 64.8182C63.5068 64.8182 63.9118 64.7177 64.2652 64.5654C67.2513 63.0989 73.0698 59.9103 78.6356 54.7999L85.2642 51.4604L98.3189 46.6531C98.6234 46.4506 98.8259 45.9953 98.7239 45.6419ZM63.5571 63.1492C63.0515 63.402 62.4942 63.1995 62.1911 62.7442C60.7232 60.3153 59.5095 57.7343 58.6995 55.0024C57.7888 52.1183 57.2832 49.0819 57.2316 46.0456C57.2316 45.4897 57.5863 45.0343 58.1436 44.984C60.6227 44.6796 63.1018 44.5287 65.5809 44.5287C65.6312 44.5287 65.7331 44.5287 65.7834 44.5287C68.7695 44.5287 71.7542 44.7815 74.6886 45.2369L75.0936 46.6531C72.3114 46.5022 69.5279 46.4506 66.7443 46.6028C64.923 46.7034 63.1521 46.8053 61.3308 47.0078C60.9258 47.0581 60.6227 47.4129 60.673 47.8682C60.7232 48.2732 61.0277 48.526 61.4314 48.526C61.483 48.526 61.483 48.526 61.5333 48.526C63.3043 48.3235 65.0753 48.1713 66.8463 48.121C69.7304 47.9688 72.6648 48.019 75.6006 48.2216L75.7515 48.7285C74.6383 49.2844 73.4749 49.8417 72.2598 50.297C71.3491 50.6504 70.4385 50.9548 69.4776 51.2579C69.0726 51.3599 68.87 51.8152 68.972 52.2188C69.0726 52.5233 69.3756 52.7761 69.6801 52.7761C69.7304 52.7761 69.831 52.7761 69.8826 52.7258C70.8435 52.4214 71.8045 52.1183 72.7667 51.7132C73.9302 51.2579 75.0433 50.7523 76.1565 50.1951L76.5112 51.3082C74.183 53.0289 71.8045 54.6477 69.3254 56.1155C67.8072 57.0262 66.2387 57.8865 64.6702 58.6449C64.3155 58.8475 64.1646 59.3028 64.3155 59.6575C64.4677 59.9103 64.7205 60.0625 64.9733 60.0625C65.0753 60.0625 65.2275 60.0123 65.3281 59.9606C66.9468 59.1519 68.5153 58.2916 70.0851 57.3809C72.4623 55.9633 74.7402 54.4451 76.9665 52.8264L77.2696 53.839C71.9567 58.7469 66.3909 61.7832 63.5571 63.1492ZM78.5853 53.0289L76.2584 45.2369L82.2292 44.5287L83.9485 50.297L78.5853 53.0289Z" fill="black"/>
</g>
</svg>
