<svg width="24" height="30" viewBox="0 0 24 30" fill="none" xmlns="http://www.w3.org/2000/svg">
<path d="M5.34766 9.89649C3.62368 9.89649 2.22121 11.2258 2.22121 12.8599V17.989C2.22121 19.498 3.51713 20.7263 5.10969 20.7263H5.65509C7.24765 20.7263 8.5431 19.498 8.5431 17.989V12.8599C8.5431 11.2258 7.14063 9.89649 5.41712 9.89649H5.34766ZM5.65509 21.3345H5.10969C3.16323 21.3345 1.57959 19.8339 1.57959 17.989V12.8599C1.57959 10.8904 3.26978 9.28833 5.34766 9.28833H5.41712C7.495 9.28833 9.18519 10.8904 9.18519 12.8599V17.989C9.18519 19.8339 7.60155 21.3345 5.65509 21.3345Z" fill="black"/>
<path d="M9.18519 14.9891H8.5431C8.5431 13.355 7.14063 12.0257 5.41712 12.0257H5.34766C3.62368 12.0257 2.22121 13.355 2.22121 14.9891H1.57959V12.8599C1.57959 10.8904 3.26978 9.28833 5.34766 9.28833H5.41712C7.495 9.28833 9.18519 10.8904 9.18519 12.8599V14.9891Z" fill="#D87385"/>
<path d="M5.34766 11.4176H5.41712C6.71727 11.4176 7.8658 12.0448 8.5431 12.9969V12.8599C8.5431 11.2258 7.14063 9.89649 5.41712 9.89649H5.34766C3.62368 9.89649 2.22121 11.2258 2.22121 12.8599V12.9969C2.89898 12.0448 4.04751 11.4176 5.34766 11.4176ZM9.18519 14.9891H8.5431C8.5431 13.355 7.14063 12.0257 5.41712 12.0257H5.34766C3.62368 12.0257 2.22121 13.355 2.22121 14.9891H1.57959V12.8599C1.57959 10.8904 3.26978 9.28833 5.34766 9.28833H5.41712C7.495 9.28833 9.18519 10.8904 9.18519 12.8599V14.9891Z" fill="black"/>
<mask id="mask0_24_859" style="mask-type:luminance" maskUnits="userSpaceOnUse" x="0" y="13" width="3" height="17">
<path d="M0 13.3261H2.22292V30H0V13.3261Z" fill="white"/>
</mask>
<g mask="url(#mask0_24_859)">
<path d="M0.321046 30.0254C0.143626 30.0254 0 29.8892 0 29.7211V17.0948C0 15.7058 0.612053 14.3632 1.67939 13.4107C1.80847 13.2959 2.0117 13.3017 2.13327 13.4236C2.25436 13.5459 2.24826 13.7385 2.11919 13.8538C1.16684 14.7039 0.642092 15.8549 0.642092 17.0948V29.7211C0.642092 29.8892 0.498466 30.0254 0.321046 30.0254Z" fill="black"/>
</g>
<mask id="mask1_24_859" style="mask-type:luminance" maskUnits="userSpaceOnUse" x="8" y="13" width="3" height="17">
<path d="M8.53613 13.315H10.7849V30H8.53613V13.315Z" fill="white"/>
</mask>
<g mask="url(#mask1_24_859)">
<path d="M10.4553 30.0254C10.2779 30.0254 10.1343 29.8892 10.1343 29.7211V17.0948C10.1343 15.8669 9.59167 14.6821 8.64496 13.8431C8.51589 13.7287 8.50885 13.5357 8.62994 13.4133C8.75104 13.2905 8.95428 13.2847 9.08335 13.3991C10.1591 14.352 10.7764 15.6991 10.7764 17.0948V29.7211C10.7764 29.8892 10.6323 30.0254 10.4553 30.0254Z" fill="black"/>
</g>
<path d="M7.65529 26.3217C7.63136 26.3217 7.60695 26.3168 7.58395 26.3061C5.54268 25.3385 3.3606 26.2977 3.33901 26.307C3.25828 26.343 3.163 26.3106 3.12498 26.2349C3.08696 26.1593 3.12075 26.0685 3.20101 26.0325C3.29583 25.9902 5.54315 24.999 7.72758 26.0338C7.8069 26.0712 7.83882 26.1629 7.79939 26.238C7.77123 26.2914 7.71443 26.3217 7.65529 26.3217Z" fill="black"/>
<path d="M7.65529 27.2559C7.63136 27.2559 7.60695 27.251 7.58395 27.2399C5.54268 26.2727 3.3606 27.2315 3.33901 27.2413C3.25875 27.2768 3.163 27.2448 3.12498 27.1692C3.08696 27.0936 3.12075 27.0028 3.20101 26.9668C3.29583 26.9241 5.54315 25.9328 7.72758 26.9681C7.8069 27.0055 7.83882 27.0967 7.79939 27.1719C7.77123 27.2252 7.71443 27.2559 7.65529 27.2559Z" fill="black"/>
<path d="M7.65529 28.1902C7.63136 28.1902 7.60695 28.1853 7.58395 28.1742C5.54268 27.207 3.3606 28.1657 3.33901 28.1755C3.25875 28.2111 3.163 28.1791 3.12498 28.1034C3.08696 28.0278 3.12075 27.9371 3.20101 27.901C3.29583 27.8583 5.54315 26.8671 7.72758 27.9024C7.8069 27.9397 7.83882 28.0309 7.79939 28.1061C7.77123 28.1595 7.71443 28.1902 7.65529 28.1902Z" fill="black"/>
<path d="M4.43673 3.69211C4.43438 3.70023 4.43485 3.70701 4.43438 3.71829L4.42969 3.71739L4.43673 3.69211Z" fill="black"/>
<path d="M18.1175 22.9054L18.2494 22.3515L17.9396 22.267L17.8077 22.8213L17.7383 23.1216L18.0462 23.2035L18.6221 23.3618L18.6934 23.0638L18.1175 22.9054Z" fill="black"/>
<path d="M14.526 16.7913L14.5978 16.4933L14.0219 16.3353L14.1538 15.781L13.8463 15.6951L13.7121 16.2508L13.6436 16.5471L13.9505 16.633L14.526 16.7913Z" fill="black"/>
<path d="M19.0032 23.1483L19.1346 22.594L18.8248 22.5094L18.6934 23.0638L18.6221 23.3618L18.9333 23.4486L19.5092 23.607L19.5805 23.3089L19.0032 23.1483Z" fill="black"/>
<path d="M20.4663 23.5514L20.3945 23.8494L20.7043 23.9335L21.2802 24.0915L21.3516 23.7938L20.7733 23.6372L20.4663 23.5514Z" fill="black"/>
<path d="M15.9624 18.6825L15.387 18.5246L15.5203 17.973L15.2086 17.8858L15.0772 18.4401L15.0054 18.7382L15.317 18.8249L15.8925 18.9833L15.9624 18.6825Z" fill="black"/>
<path d="M15.2798 17.5877L14.7044 17.4297L14.8358 16.8754L14.526 16.7913L14.3946 17.3456L14.3232 17.6433L14.6326 17.7278L15.2085 17.8857L15.2798 17.5877Z" fill="black"/>
<path d="M13.8183 17.1873L13.9501 16.633L13.6432 16.5471L13.5113 17.1014L13.4399 17.399L13.7469 17.4854L14.3228 17.6433L14.3942 17.3457L13.8183 17.1873Z" fill="black"/>
<path d="M14.5259 16.7913L14.8357 16.8754L15.4116 17.0338L15.4801 16.7375L14.9047 16.5791L15.0389 16.0235L14.7291 15.9389L14.5977 16.4933L14.5259 16.7913Z" fill="black"/>
<path d="M14.7291 15.9389L14.8004 15.6413L14.2222 15.4847L14.3564 14.929L14.0466 14.8445L13.9152 15.3984L13.8462 15.6951L14.1536 15.781L14.7291 15.9389Z" fill="black"/>
<path d="M20.5977 22.9971L20.4663 23.5514L20.7733 23.6372L20.9075 23.0816L20.9746 22.7826L21.1089 22.227L20.7991 22.1424L20.6691 22.699L20.5977 22.9971Z" fill="black"/>
<path d="M15.2085 17.8857L15.5202 17.9729L16.0956 18.1309L16.1655 17.8301L15.5896 17.6722L15.7215 17.1179L15.4117 17.0338L15.2798 17.5877L15.2085 17.8857Z" fill="black"/>
<path d="M19.8857 23.3921L20.0176 22.8378L19.7106 22.7519L19.5806 23.3089L19.5093 23.607L19.8191 23.6911L20.3945 23.8494L20.4663 23.5514L19.8857 23.3921Z" fill="black"/>
<path d="M18.0109 21.9689L17.4354 21.811L17.5668 21.2567L17.2599 21.1708L17.128 21.7251L17.0566 22.0228L17.3636 22.1091L17.9395 22.267L18.0109 21.9689Z" fill="black"/>
<path d="M16.646 19.7796L16.0706 19.6217L16.202 19.0674L15.8922 18.9833L15.7608 19.5372L15.6895 19.8352L15.9992 19.9198L16.5747 20.0777L16.646 19.7796Z" fill="black"/>
<path d="M17.3306 20.8772L16.7505 20.7179L16.8847 20.1622L16.5749 20.0777L16.4435 20.632L16.375 20.9283L16.682 21.0142L17.2602 21.1708L17.3306 20.8772Z" fill="black"/>
<path d="M11.5901 9.31323L11.0105 9.15396L10.9429 9.45292L11.5188 9.61086L11.8257 9.69717L11.8957 9.39642L11.5901 9.31323Z" fill="black"/>
<path d="M8.61523 3.36912L9.19115 3.52705L9.06066 4.07738L9.36763 4.16324L9.50093 3.61158L9.57227 3.31351L9.26108 3.22675L8.68517 3.06837L8.61523 3.36912Z" fill="black"/>
<path d="M11.751 6.04333L12.3264 6.20126L12.1969 6.75826L12.5038 6.84412L12.6362 6.28579L12.708 5.98816L12.3982 5.90363L11.8223 5.74525L11.751 6.04333Z" fill="black"/>
<path d="M16.8653 10.9166L16.8306 11.0701L16.9878 11.1128L16.8653 10.9166Z" fill="black"/>
<path d="M10.9621 4.01198L10.8331 4.56497L11.1386 4.64816L11.2691 4.09829L11.339 3.79754L11.0335 3.71435L10.458 3.55597L10.3862 3.85404L10.9621 4.01198Z" fill="black"/>
<path d="M11.0684 4.94892L11.6443 5.10686L11.5124 5.66118L11.8222 5.74527L11.9541 5.19138L12.0254 4.89331L11.7156 4.80878L11.1383 4.64818L11.0684 4.94892Z" fill="black"/>
<path d="M10.0764 3.76952L9.94781 4.32251L10.2548 4.40837L10.3862 3.85404L10.458 3.55597L10.1482 3.47189L9.57232 3.31351L9.50098 3.61158L10.0764 3.76952Z" fill="black"/>
<path d="M6.91423 2.58345L6.8457 2.87974L7.42115 3.03812L7.49249 2.74005L6.91423 2.58345Z" fill="black"/>
<path d="M7.49273 2.74005L7.42139 3.03812L7.72835 3.12399L7.7997 2.82591L7.49273 2.74005Z" fill="black"/>
<path d="M7.79915 2.82592L7.93104 2.27159L8.00239 1.97396L7.69261 1.88943L7.62408 2.18573L7.49219 2.74006L7.79915 2.82592Z" fill="black"/>
<path d="M8.5099 2.42818L8.37988 2.98518L8.68544 3.06837L8.81733 2.51404L8.88868 2.21642L8.5803 2.13456L8.00298 1.97395L7.93164 2.27158L8.5099 2.42818Z" fill="black"/>
<path d="M10.9376 5.50279L10.6278 5.41871L10.0519 5.26033L9.9834 5.55662L10.5588 5.715L10.426 6.27334L10.7344 6.35519L10.8658 5.80087L10.9376 5.50279Z" fill="black"/>
<path d="M10.7614 4.8626L10.6271 5.41871L10.9369 5.50279L11.0683 4.94891L11.1383 4.64816L10.8327 4.56497L10.2544 4.40837L10.1831 4.706L10.7614 4.8626Z" fill="black"/>
<path d="M10.8652 5.80087L11.4411 5.9588L11.3093 6.51313L11.6195 6.59766L11.7509 6.04333L11.8223 5.74526L11.5125 5.66117L10.937 5.50279L10.8652 5.80087Z" fill="black"/>
<path d="M12.0269 8.84211L12.6028 9.00049L12.4728 9.55704L12.7825 9.64157L12.914 9.08724L12.9858 8.78961L12.676 8.70508L12.0987 8.54448L12.0269 8.84211Z" fill="black"/>
<path d="M6.60729 2.4976L6.03138 2.33966L5.96191 2.63996L6.53736 2.79789L6.84573 2.87975L6.91426 2.58346L6.60729 2.4976Z" fill="black"/>
<path d="M13.5655 12.895L13.4341 13.4493L13.741 13.5352L13.8729 12.9809L13.5655 12.895Z" fill="black"/>
<path d="M11.6197 6.59766L11.5479 6.89528L12.1266 7.05188L11.9937 7.61022L12.3017 7.69208L12.4335 7.13819L12.5039 6.84412L12.197 6.75826L11.6197 6.59766Z" fill="black"/>
<path d="M11.4166 7.44962L11.3452 7.74769L11.9249 7.90696L11.7935 8.46084L12.099 8.54448L12.2304 7.99015L12.3018 7.69208L11.9939 7.61022L11.4166 7.44962Z" fill="black"/>
<path d="M11.6196 6.59766L11.3094 6.51313L10.7339 6.35519L10.6626 6.65282L11.2409 6.80942L11.108 7.36775L11.4164 7.44961L11.5478 6.89529L11.6196 6.59766Z" fill="black"/>
<path d="M10.2544 4.40837L9.94743 4.32251L9.3673 4.16324L9.29736 4.46354L9.87562 4.62014L9.74138 5.1758L10.0512 5.26033L10.1831 4.706L10.2544 4.40837Z" fill="black"/>
<path d="M8.17486 3.83447L8.48183 3.92078L8.61513 3.36912L8.68506 3.06838L8.37951 2.98518L7.79937 2.82591L7.72803 3.12399L8.30816 3.28326L8.17486 3.83447Z" fill="black"/>
<path d="M10.2258 7.12396L9.64988 6.96558L9.57666 7.26098L10.154 7.42158L10.4595 7.50522L10.5309 7.20715L10.2258 7.12396Z" fill="black"/>
<path d="M13.6729 13.8315L14.2502 13.9921L14.3215 13.6945L13.7414 13.5352L13.4344 13.4493L12.859 13.291L12.7891 13.5917L13.3645 13.7496L13.6729 13.8315Z" fill="black"/>
<path d="M13.6374 12.5969L13.9443 12.6828L14.0758 12.1289L14.1476 11.8309L13.8378 11.7463L13.2661 11.5893L13.1934 11.8847L13.7688 12.0426L13.6374 12.5969Z" fill="black"/>
<path d="M13.8732 12.9809L14.4533 13.1402L14.5228 12.8394L13.9445 12.6828L13.6375 12.5969L13.0616 12.439L12.9917 12.7398L13.5657 12.895L13.8732 12.9809Z" fill="black"/>
<path d="M12.9548 11.5025L13.266 11.5893L13.396 11.0327L13.465 10.7364L13.1552 10.6519L12.5793 10.4935L12.5107 10.7903L13.0862 10.9482L12.9548 11.5025Z" fill="black"/>
<path d="M12.9549 11.5025L12.3766 11.3459L12.3076 11.6422L12.8835 11.8002L13.1933 11.8847L13.2661 11.5893L12.9549 11.5025Z" fill="black"/>
<path d="M14.1182 14.5464L13.5385 14.3872L13.6728 13.8315L13.3644 13.7496L13.233 14.304L13.1616 14.602L13.4686 14.6879L14.0468 14.8445L14.1182 14.5464Z" fill="black"/>
<path d="M17.2598 21.1708L17.5667 21.2566L18.1422 21.415L18.2154 21.1196L17.6371 20.963L17.77 20.4047L17.4602 20.3202L17.3302 20.8772L17.2598 21.1708Z" fill="black"/>
<path d="M12.2699 10.4094L11.6945 10.2511L11.6255 10.5478L12.2014 10.7057L12.5112 10.7903L12.5797 10.4935L12.2699 10.4094Z" fill="black"/>
<path d="M16.5747 20.0777L16.8845 20.1622L17.4604 20.3202L17.5317 20.0221L16.9535 19.8659L17.0877 19.3098L16.7779 19.2257L16.6461 19.7796L16.5747 20.0777Z" fill="black"/>
<path d="M17.9399 22.267L18.2497 22.3515L18.8252 22.5095L18.897 22.2114L18.3211 22.0535L18.453 21.4991L18.1427 21.415L18.0113 21.9689L17.9399 22.267Z" fill="black"/>
<path d="M10.9075 8.21837L10.3278 8.0591L10.2588 8.35584L10.8347 8.51377L11.1445 8.5983L11.213 8.302L10.9075 8.21837Z" fill="black"/>
<path d="M9.53837 6.0282L9.84862 6.11273L9.98286 5.55662L10.0514 5.26033L9.74161 5.1758L9.16616 5.01787L9.09717 5.31416L9.67308 5.47254L9.53837 6.0282Z" fill="black"/>
<path d="M10.2257 7.12396L10.5308 7.20715L10.6627 6.65282L10.734 6.35519L10.4256 6.27334L9.84878 6.11273L9.77979 6.40903L10.3557 6.56696L10.2257 7.12396Z" fill="black"/>
<path d="M9.5385 6.0282L8.96306 5.87027L8.89453 6.16656L9.46997 6.3245L9.77975 6.40903L9.84875 6.11273L9.5385 6.0282Z" fill="black"/>
<path d="M12.2697 10.4094L12.5795 10.4935L12.7114 9.93964L12.7827 9.64157L12.4729 9.55704L11.8956 9.39644L11.8257 9.69718L12.4016 9.85512L12.2697 10.4094Z" fill="black"/>
<path d="M8.85919 4.93201L8.28093 4.77541L8.2124 5.0717L8.78784 5.23008L9.09763 5.31416L9.16662 5.01787L8.85919 4.93201Z" fill="black"/>
<path d="M8.859 4.932L9.16644 5.01786L9.29786 4.46354L9.36779 4.16324L9.06083 4.07738L8.4821 3.92078L8.41357 4.21707L8.99089 4.37767L8.859 4.932Z" fill="black"/>
<path d="M11.59 9.31324L11.8955 9.39644L12.0269 8.84211L12.0988 8.54448L11.7932 8.46084L11.2131 8.30202L11.1445 8.59831L11.7219 8.75892L11.59 9.31324Z" fill="black"/>
<path d="M15.8921 18.9833L16.2019 19.0674L16.7778 19.2258L16.8491 18.9277L16.2718 18.7671L16.4009 18.2145L16.0953 18.1309L15.962 18.6825L15.8921 18.9833Z" fill="black"/>
<path d="M8.17509 3.83447L7.59683 3.67831L7.52783 3.97461L8.10515 4.13521L8.41353 4.21707L8.48205 3.92078L8.17509 3.83447Z" fill="black"/>
<path d="M10.9077 8.21838L11.2133 8.30202L11.3452 7.74769L11.4165 7.44962L11.1081 7.36776L10.5308 7.20715L10.4595 7.50523L11.0377 7.66183L10.9077 8.21838Z" fill="black"/>
<path d="M14.2061 7.6258L14.7801 7.78107L14.6501 8.33806L14.9556 8.42126L15.0547 8.01241L14.7022 7.44696L14.2779 7.32773L14.2061 7.6258Z" fill="black"/>
<path d="M21.9961 22.4716L22.5673 22.6291L22.5762 22.6309C22.6189 22.646 22.6659 22.6371 22.7016 22.6171C22.7349 22.5984 22.7626 22.5655 22.7729 22.5281C22.7973 22.4472 22.7494 22.3644 22.664 22.3417L22.6377 22.3351L22.0646 22.1753L21.9961 22.4716Z" fill="black"/>
<path d="M22.2678 21.3234L22.3997 20.7691L22.0894 20.6845L21.958 21.2389L22.2678 21.3234Z" fill="black"/>
<path d="M22.7703 21.7767L22.8027 21.787C22.8482 21.8003 22.8952 21.7914 22.9313 21.7714C22.9642 21.7532 22.9909 21.7238 23.0036 21.6846C23.028 21.6041 22.9787 21.5187 22.8933 21.496L22.8407 21.4831L22.2676 21.3234L22.1963 21.6215L22.7703 21.7767Z" fill="black"/>
<path d="M21.3823 21.0809L21.3091 21.3763L21.8845 21.5343L22.1962 21.6215L22.2675 21.3234L21.9577 21.2389L21.3823 21.0809Z" fill="black"/>
<path d="M20.3885 19.8993L19.813 19.7409L19.7417 20.039L20.3171 20.1969L20.6269 20.2815L20.6983 19.9838L20.8302 19.4295L20.5204 19.345L20.3885 19.8993Z" fill="black"/>
<path d="M21.073 20.9964L20.4956 20.8358L20.4238 21.1334L21.004 21.2927L21.3095 21.3763L21.3827 21.0809L21.5128 20.5239L21.2044 20.4421L21.073 20.9964Z" fill="black"/>
<path d="M20.6983 19.9838L20.627 20.2815L21.2043 20.4421L21.5126 20.5239L21.584 20.2263L21.7154 19.672L21.4056 19.5874L21.2742 20.1418L20.6983 19.9838Z" fill="black"/>
<path d="M20.0161 18.889L19.9443 19.187L20.5202 19.345L20.83 19.4295L20.9014 19.1314L21.0314 18.5744L20.723 18.493L20.5916 19.0469L20.0161 18.889Z" fill="black"/>
<path d="M20.0596 25.2557L20.0464 25.3122L19.4175 25.3678L19.4813 25.0991L20.0596 25.2557Z" fill="black"/>
<path d="M21.7925 23.324L22.3463 23.4766C22.3552 23.4789 22.3595 23.4802 22.3665 23.4793C22.4045 23.4864 22.4416 23.4802 22.4721 23.4628C22.5078 23.4428 22.5331 23.4112 22.5458 23.3721C22.5702 23.2916 22.5223 23.2088 22.4355 23.183L21.8643 23.026L21.7925 23.324Z" fill="black"/>
<path d="M20.5017 24.7859L20.3947 25.2304C20.2806 25.2628 20.1633 25.2895 20.0469 25.3122L20.06 25.2557L20.1914 24.7014L20.5017 24.7859Z" fill="black"/>
<path d="M19.4175 25.3678L19.4813 25.0991L19.6127 24.5448L19.3058 24.4589L19.1744 25.0133L19.1025 25.3109L19.317 25.3678L19.3213 25.3687L19.4175 25.3678Z" fill="black"/>
<path d="M22.269 24.0643C22.1977 24.1466 22.1198 24.2254 22.0404 24.3015L21.5898 24.1764L21.6612 23.8784L22.2061 24.0287C22.215 24.031 22.2254 24.0359 22.2329 24.0421C22.2479 24.0479 22.2596 24.055 22.269 24.0643Z" fill="black"/>
<path d="M18.5987 24.8549L18.5273 25.153L19.1028 25.3109L19.1746 25.0133L18.5987 24.8549Z" fill="black"/>
<path d="M21.1093 24.9541L21.0708 24.9754L21.0769 24.9439L21.1093 24.9541Z" fill="black"/>
<path d="M21.4864 24.7392C21.4245 24.7775 21.3625 24.8157 21.2992 24.8513L21.2353 24.8869C21.194 24.91 21.1527 24.9332 21.1095 24.9541L21.0771 24.9439L21.1485 24.6458L21.4555 24.7316L21.4864 24.7392Z" fill="black"/>
<path d="M16.6026 13.4133L16.5312 13.7109L17.1067 13.8693L17.4165 13.9534L17.4864 13.6531L17.6178 13.0988L17.3099 13.0169L17.1785 13.5712L16.6026 13.4133Z" fill="black"/>
<path d="M16.2909 13.3261L15.7154 13.1682L15.6455 13.4685L16.2214 13.6269L16.5312 13.7109L16.6025 13.4133L16.734 12.859L16.4228 12.7718L16.2909 13.3261Z" fill="black"/>
<path d="M17.2847 14.5077L17.2129 14.8058L17.7888 14.9637L18.0986 15.0483L18.1699 14.7502L18.3018 14.1959L17.992 14.1118L17.8601 14.6657L17.2847 14.5077Z" fill="black"/>
<path d="M16.9749 14.4232L16.399 14.2653L16.3276 14.5633L16.9035 14.7213L17.2129 14.8058L17.2847 14.5077L17.4161 13.9534L17.1063 13.8693L16.9749 14.4232Z" fill="black"/>
<path d="M16.626 11.9198L16.9372 12.007L17.0062 11.7103L17.1033 11.2988L16.9879 11.1128L16.8306 11.0701L16.6959 11.6262L16.626 11.9198Z" fill="black"/>
<path d="M16.937 12.007L17.5125 12.165L17.6697 12.2077L17.4317 11.8255L17.006 11.7103L16.937 12.007Z" fill="black"/>
<path d="M16.6263 11.9198L16.4963 12.4764L15.9204 12.3184L15.8472 12.6139L16.4231 12.7718L16.7343 12.859L16.8061 12.5609L16.9375 12.007L16.6263 11.9198Z" fill="black"/>
<path d="M19.0242 17.71L18.4483 17.5516L18.377 17.8497L18.9552 18.0063L19.2622 18.0922L19.334 17.7941L19.464 17.2375L19.157 17.1517L19.0242 17.71Z" fill="black"/>
<path d="M19.7059 18.8044L19.1304 18.6465L19.0591 18.9446L19.6345 19.1025L19.9443 19.187L20.0161 18.889L20.1475 18.3346L19.8378 18.2506L19.7059 18.8044Z" fill="black"/>
<path d="M17.6575 15.5181L17.0816 15.3601L17.0103 15.6578L17.5876 15.8184L17.8955 15.9002L17.9673 15.6026L18.0987 15.0483L17.7889 14.9637L17.6575 15.5181Z" fill="black"/>
<path d="M18.6513 16.6997L18.5781 16.9951L19.1569 17.1517L19.4638 17.2376L19.5342 16.9435L19.6656 16.3896L19.3587 16.3033L19.2268 16.8576L18.6513 16.6997Z" fill="black"/>
<path d="M19.3335 17.7941L19.2617 18.0922L19.8376 18.2506L20.1474 18.3346L20.2188 18.0366L20.3506 17.4827L20.039 17.3955L19.909 17.9525L19.3335 17.7941Z" fill="black"/>
<path d="M18.3415 16.6152L17.7642 16.4546L17.6929 16.7526L18.2711 16.9088L18.5781 16.9951L18.6513 16.6997L18.7827 16.1454L18.473 16.0608L18.3415 16.6152Z" fill="black"/>
<path d="M17.9673 15.6026L17.8955 15.9002L18.4728 16.0608L18.7826 16.1454L18.8525 15.8451L18.9844 15.2907L18.6761 15.2089L18.5446 15.7632L17.9673 15.6026Z" fill="black"/>
<path d="M15.5577 20.3896L14.9822 20.2312L15.1137 19.6773L14.8025 19.5901L14.6725 20.1471L14.6021 20.4407L14.9132 20.5279L15.4892 20.6859L15.5577 20.3896Z" fill="black"/>
<path d="M10.23 11.0714L10.2985 10.7751L9.72121 10.6141L9.41331 10.5322L9.34478 10.829L9.21289 11.3828L9.51845 11.4665L9.64987 10.9122L10.23 11.0714Z" fill="black"/>
<path d="M9.85288 10.0602L10.4302 10.2208L10.5015 9.92275L9.92141 9.76348L9.61632 9.68028L9.54732 9.97658L9.41309 10.5322L9.72099 10.6141L9.85288 10.0602Z" fill="black"/>
<path d="M18.7303 24.3006L18.4201 24.2165L18.2886 24.7708L18.2173 25.0684L18.5271 25.153L18.5984 24.8549L18.7303 24.3006Z" fill="black"/>
<path d="M11.5919 13.2621L11.6633 12.964L11.0874 12.806L10.7804 12.7202L10.7091 13.0183L10.5776 13.5721L10.8846 13.6584L11.016 13.1041L11.5919 13.2621Z" fill="black"/>
<path d="M9.54728 9.97658L9.61627 9.68028L9.04036 9.52235L8.72917 9.43515L8.66017 9.73144L8.52734 10.2898L8.83713 10.3743L8.97183 9.81864L9.54728 9.97658Z" fill="black"/>
<path d="M11.2191 12.2517L11.7946 12.4101L11.8664 12.112L11.2905 11.9541L10.9807 11.8696L10.9093 12.1676L10.7803 12.7202L11.0872 12.806L11.2191 12.2517Z" fill="black"/>
<path d="M10.9093 12.1676L10.9807 11.8696L10.4052 11.7116L10.0983 11.6258L10.0264 11.9234L9.89502 12.4777L10.202 12.5636L10.3334 12.0093L10.9093 12.1676Z" fill="black"/>
<path d="M10.5365 11.1573L11.1124 11.3152L11.1838 11.0176L10.6079 10.8592L10.2981 10.7751L10.2296 11.0714L10.0981 11.6258L10.4051 11.7116L10.5365 11.1573Z" fill="black"/>
<path d="M9.17209 8.96802L9.74753 9.12595L9.81887 8.82832L9.24155 8.66727L8.93177 8.58319L8.86043 8.88082L8.729 9.43515L9.04019 9.52235L9.17209 8.96802Z" fill="black"/>
<path d="M7.49845 6.6902L7.56744 6.39391L6.99153 6.23553L6.68175 6.15144L6.61041 6.44907L6.47852 7.0034L6.7883 7.08793L6.92019 6.5336L7.49845 6.6902Z" fill="black"/>
<path d="M8.17836 7.7864L8.24971 7.48833L7.67426 7.33039L7.36448 7.24586L7.29595 7.54216L7.16406 8.09649L7.47103 8.18235L7.60292 7.62802L8.17836 7.7864Z" fill="black"/>
<path d="M7.80546 6.77605L8.38137 6.93443L8.45272 6.63635L7.87727 6.47842L7.56749 6.39389L7.4985 6.69018L7.36426 7.24585L7.67404 7.33038L7.80546 6.77605Z" fill="black"/>
<path d="M8.48808 7.87091L9.06399 8.02885L9.13533 7.73077L8.55942 7.57284L8.24964 7.48831L8.1783 7.78639L8.04688 8.34071L8.35666 8.4248L8.48808 7.87091Z" fill="black"/>
<path d="M8.86087 8.88082L8.93221 8.58319L8.35677 8.42481L8.04699 8.34073L7.97564 8.63836L7.84375 9.19269L8.15353 9.27721L8.28542 8.72289L8.86087 8.88082Z" fill="black"/>
<path d="M11.9016 13.3466L12.4771 13.5045L12.5489 13.2069L11.973 13.0485L11.6632 12.964L11.5919 13.262L11.46 13.8164L11.7697 13.9009L11.9016 13.3466Z" fill="black"/>
<path d="M17.6066 23.6759L17.0311 23.518L17.1611 22.961L16.8556 22.8778L16.7237 23.4322L16.6523 23.7298L16.9593 23.8156L17.5352 23.974L17.6066 23.6759Z" fill="black"/>
<path d="M16.9267 22.5797L16.3466 22.4205L16.4785 21.8662L16.1715 21.7803L16.0396 22.3346L15.9683 22.6327L16.2752 22.7186L16.8554 22.8778L16.9267 22.5797Z" fill="black"/>
<path d="M16.2432 21.4827L15.6649 21.3261L15.7945 20.7691L15.4894 20.6859L15.3575 21.2402L15.2861 21.5378L15.5931 21.6237L16.1718 21.7803L16.2432 21.4827Z" fill="black"/>
<path d="M15.165 11.519L15.7405 11.6774L16.0503 11.7615L16.6262 11.9198L16.6961 11.6262L16.1207 11.4678L15.8118 11.3793L15.2364 11.2214L15.165 11.519Z" fill="black"/>
<path d="M17.7129 24.6124L17.6416 24.9105L18.2175 25.0685L18.2889 24.7708L17.7129 24.6124Z" fill="black"/>
<path d="M17.845 24.0581L17.7131 24.6124L17.6418 24.9105L17.4728 24.8602L17.4681 24.8593C17.4249 24.8375 17.3827 24.8117 17.3433 24.7846L17.4038 24.5283L17.5352 23.974L17.845 24.0581Z" fill="black"/>
<path d="M17.4034 24.5283L17.3428 24.7846C17.1588 24.6685 16.9837 24.5368 16.8228 24.3864L16.8274 24.37L17.4034 24.5283Z" fill="black"/>
<path d="M13.309 17.9534L12.7303 17.7968L12.8622 17.2429L12.5548 17.1566L12.4473 17.6059L12.7702 18.1242L13.2391 18.2541L13.309 17.9534Z" fill="black"/>
<path d="M12.7578 16.3046L12.8263 16.0083L12.2509 15.8504L12.3851 15.2943L12.0739 15.2076L11.9411 15.7659L11.8726 16.0622L12.1823 16.1467L12.7578 16.3046Z" fill="black"/>
<path d="M12.6264 16.859L12.0505 16.701L12.1824 16.1467L11.8726 16.0622L11.7646 16.5111L12.088 17.0298L12.5546 17.1566L12.6264 16.859Z" fill="black"/>
<path d="M12.9594 15.45L13.0298 15.1559L12.4544 14.998L12.5858 14.4437L12.276 14.3596L12.1446 14.9135L12.0742 15.2075L12.3854 15.2943L12.9594 15.45Z" fill="black"/>
<path d="M14.8737 19.292L14.2978 19.1341L14.4297 18.5798L14.1199 18.4957L13.9899 19.0522L13.9209 19.3485L14.2265 19.4322L14.8024 19.5901L14.8737 19.292Z" fill="black"/>
<path d="M11.7699 13.9009L11.4601 13.8164L11.3887 14.1144L11.2573 14.6688L11.5685 14.7555L11.7004 14.2012L11.7699 13.9009Z" fill="black"/>
<path d="M13.4125 18.8916L13.5439 18.3373L13.2388 18.2541L13.1309 18.703L13.4524 19.2191L13.9208 19.3485L13.9898 19.0522L13.4125 18.8916Z" fill="black"/>
<path d="M7.84332 9.19268L7.26788 9.03475L7.06934 8.97958L7.30777 9.36174L7.77479 9.48898L7.84332 9.19268Z" fill="black"/>
<path d="M22.8355 20.5711C22.8843 20.685 22.9289 20.8051 22.9622 20.9239L22.3999 20.7691L22.4712 20.471L22.8355 20.5711Z" fill="black"/>
<path d="M22.9679 20.9452C23.0487 21.2251 23.0933 21.5111 23.0984 21.7945L23.097 21.7985L22.714 23.4086L22.7131 23.4126C22.592 23.643 22.4441 23.8601 22.2691 24.0643C22.2597 24.055 22.2479 24.0479 22.2329 24.0421L22.3667 23.4793C22.4047 23.4864 22.4418 23.4802 22.4723 23.4628C22.508 23.4428 22.5333 23.4112 22.546 23.3721C22.5704 23.2916 22.5225 23.2088 22.4357 23.183L22.5671 22.6291L22.576 22.6309C22.6187 22.646 22.6657 22.6371 22.7013 22.6171C22.7347 22.5984 22.7624 22.5655 22.7727 22.5281C22.7971 22.4472 22.7492 22.3644 22.6638 22.3417L22.6375 22.3351L22.7703 21.7767L22.8027 21.787C22.8482 21.8003 22.8952 21.7914 22.9313 21.7714C22.9642 21.7531 22.9909 21.7238 23.0036 21.6846C23.028 21.6041 22.9787 21.5187 22.8933 21.496L22.8407 21.4831L22.9679 20.9452Z" fill="black"/>
<path d="M18.5274 25.153L18.5011 25.2664C18.3974 25.2433 18.2904 25.2148 18.1899 25.1797L18.2176 25.0684L18.5274 25.153Z" fill="black"/>
<path d="M19.3171 25.3679C19.2421 25.3674 19.1684 25.3625 19.0933 25.3554L19.1026 25.3109L19.3171 25.3679Z" fill="black"/>
<path d="M22.45 19.8753L22.2914 19.8299L22.1595 20.3842L21.584 20.2263L21.5127 20.5239L22.09 20.6845L22.3998 20.7691L22.4711 20.471L22.566 20.0613L22.45 19.8753Z" fill="black"/>
<path d="M21.4764 19.2894L20.9009 19.1314L20.8296 19.4295L21.405 19.5874L21.7148 19.672L21.7866 19.3739L21.8828 18.9668L21.7655 18.7782L21.6083 18.735L21.4764 19.2894Z" fill="black"/>
<path d="M21.7153 19.672L22.2912 19.8299L22.4499 19.8753L22.21 19.4904L21.7871 19.3739L21.7153 19.672Z" fill="black"/>
<path d="M21.0312 18.5744L21.6086 18.7351L21.7658 18.7782L21.5288 18.3983L21.1017 18.2808L21.0312 18.5744Z" fill="black"/>
<path d="M14.6724 20.1471L14.0965 19.9887L14.2265 19.4322L13.921 19.3485L13.8135 19.7979L14.135 20.3135L14.602 20.4407L14.6724 20.1471Z" fill="black"/>
<path d="M14.7819 21.0818L15.3573 21.2402L15.286 21.5378L14.8189 21.411L14.4941 20.8896L14.6021 20.4407L14.9133 20.5279L14.7819 21.0818Z" fill="black"/>
<path d="M11.8729 16.0621L11.9414 15.7659L11.3655 15.6075L11.4983 15.0491L11.1885 14.9651L11.0811 15.4139L11.404 15.9322L11.8729 16.0621Z" fill="black"/>
<path d="M17.6416 24.9105L17.6332 24.9505C17.5778 24.9216 17.5224 24.8927 17.4727 24.8602L17.6416 24.9105Z" fill="black"/>
<path d="M16.959 23.8156L16.8275 24.37L16.8228 24.3864C16.729 24.3014 16.6431 24.212 16.5586 24.1177L16.652 23.7298L16.959 23.8156Z" fill="black"/>
<path d="M12.1443 14.9135L12.0739 15.2075L11.498 15.0492L11.1882 14.9651L10.7217 14.8378L10.6367 14.7017L10.6813 14.5104L11.2572 14.6688L11.5684 14.7555L12.1443 14.9135Z" fill="black"/>
<path d="M16.0395 22.3346L15.9681 22.6327L15.5011 22.5055L15.1777 21.9867L15.2857 21.5378L15.5927 21.6237L15.4612 22.178L16.0395 22.3346Z" fill="black"/>
<path d="M16.7236 23.4321L16.6522 23.7298L16.1857 23.603L15.8623 23.0842L15.9684 22.6327L16.2753 22.7185L16.1439 23.2729L16.7236 23.4321Z" fill="black"/>
<path d="M17.5126 12.1649L17.3811 12.7193L16.8057 12.5609L16.7339 12.859L17.3098 13.0169L17.6177 13.0988L17.6881 12.8051L17.7857 12.3936L17.6698 12.2077L17.5126 12.1649Z" fill="black"/>
<path d="M17.6177 13.0988L18.195 13.2594L18.3522 13.3021L18.1138 12.9199L17.6881 12.8052L17.6177 13.0988Z" fill="black"/>
<path d="M18.1952 13.2594L18.0638 13.8137L17.4864 13.6531L17.4165 13.9534L17.9924 14.1118L18.3022 14.1959L18.3735 13.8982L18.4684 13.488L18.3524 13.3021L18.1952 13.2594Z" fill="black"/>
<path d="M18.3022 14.1959L18.8777 14.3542L19.0349 14.397L18.7965 14.0148L18.3736 13.8982L18.3022 14.1959Z" fill="black"/>
<path d="M14.9552 8.42125L14.8853 8.72155L15.464 8.87815L15.3321 9.43247L15.6391 9.51834L15.7367 9.10682L15.3823 8.5387L14.9552 8.42125Z" fill="black"/>
<path d="M15.5708 9.81506L16.1462 9.973L16.0148 10.5273L16.3218 10.6132L16.4213 10.2043L16.065 9.63355L15.6393 9.51833L15.5708 9.81506Z" fill="black"/>
<path d="M16.0149 10.5273L15.4395 10.369L15.3677 10.667L15.9436 10.825L15.8117 11.3793L16.1205 11.4678L16.2506 10.9108L16.8307 11.0701L16.8654 10.9166L16.749 10.7306L16.3219 10.6132L16.0149 10.5273Z" fill="black"/>
<path d="M19.6655 16.3896L20.241 16.5475L20.4024 16.5911L20.1626 16.2063L19.7369 16.0915L19.6655 16.3896Z" fill="black"/>
<path d="M20.2411 16.5475L20.1097 17.1019L19.5343 16.9435L19.4639 17.2375L20.0393 17.3955L20.351 17.4827L20.4195 17.1864L20.5185 16.7775L20.4026 16.5911L20.2411 16.5475Z" fill="black"/>
<path d="M20.7952 18.1949L20.2193 18.0366L20.1479 18.3346L20.7234 18.493L21.0318 18.5744L21.1022 18.2808L21.1998 17.8693L21.0825 17.6806L20.9266 17.6406L20.7952 18.1949Z" fill="black"/>
<path d="M20.3506 17.4827L20.926 17.6406L21.0819 17.6807L20.8462 17.3039L20.4191 17.1864L20.3506 17.4827Z" fill="black"/>
<path d="M18.8773 14.3542L18.7459 14.9081L18.17 14.7502L18.0986 15.0483L18.676 15.2089L18.9843 15.2907L19.0557 14.9927L19.1519 14.5856L19.0345 14.397L18.8773 14.3542Z" fill="black"/>
<path d="M18.9844 15.2907L19.5598 15.4487L19.7185 15.494L19.4786 15.1092L19.0557 14.9927L18.9844 15.2907Z" fill="black"/>
<path d="M19.56 15.4487L19.43 16.0057L18.8527 15.8451L18.7827 16.1454L19.3586 16.3033L19.6656 16.3896L19.7369 16.0915L19.8346 15.68L19.7186 15.494L19.56 15.4487Z" fill="black"/>
<path d="M14.6855 9.57217L15.261 9.73055L15.1291 10.2844L15.4393 10.369L15.5708 9.81508L15.6393 9.51834L15.3323 9.43248L14.7541 9.27588L14.6855 9.57217Z" fill="black"/>
<path d="M4.63341 2.86463L4.56207 3.1627L4.53391 3.1538C4.52077 3.15024 4.51044 3.14579 4.50293 3.13912C4.5217 3.04392 4.5447 2.9496 4.57521 2.85484C4.58929 2.85395 4.60525 2.85573 4.62309 2.85973L4.63341 2.86463Z" fill="black"/>
<path d="M10.4844 14.4579L10.6364 14.7017L10.681 14.5104L10.4844 14.4579Z" fill="black"/>
<path d="M6.03457 6.29114L6.61048 6.44907L6.68182 6.15144L6.10638 5.99306L5.7966 5.90898L5.7276 6.20528L5.62012 6.65417L5.70507 6.7903L5.90314 6.84547L6.03457 6.29114Z" fill="black"/>
<path d="M4.73966 3.8011L4.87155 3.24722L4.56177 3.16269L4.43692 3.6921C4.43457 3.70011 4.43504 3.70678 4.43457 3.71791L4.73966 3.8011Z" fill="black"/>
<path d="M5.79693 5.90898L5.22102 5.7506L5.02295 5.69588L5.26092 6.07803L5.72794 6.20527L5.79693 5.90898Z" fill="black"/>
<path d="M5.35469 5.19494L5.9306 5.35287L5.99913 5.05658L5.42369 4.89864L5.11203 4.81145L5.0435 5.10819L4.93555 5.55663L5.02238 5.69588L5.22045 5.7506L5.35469 5.19494Z" fill="black"/>
<path d="M5.11242 4.81144L5.0439 5.10818L4.65948 5.00541C4.61349 4.88974 4.57735 4.77229 4.5459 4.65573L5.11242 4.81144Z" fill="black"/>
<path d="M6.36621 0.933368L6.94165 1.0913L7.013 0.793229L6.52861 0.661987C6.49106 0.679338 6.45351 0.696688 6.41784 0.717153L6.36621 0.933368Z" fill="black"/>
<path d="M14.0747 8.17967L14.0029 8.47775L14.5788 8.63568L14.4474 9.19001L14.7544 9.27587L14.8858 8.72154L14.9557 8.42125L14.6502 8.33805L14.0747 8.17967Z" fill="black"/>
<path d="M7.40792 0.374146C7.42435 0.400394 7.42529 0.431981 7.41918 0.463568L7.32015 0.879091L7.01318 0.793228L7.09438 0.451111C7.19717 0.418189 7.30466 0.393276 7.40792 0.374146Z" fill="black"/>
<path d="M11.2867 1.96817L11.4045 2.1568L11.3679 2.30762L10.7925 2.14968L10.8638 1.85161L11.2867 1.96817Z" fill="black"/>
<path d="M14.5538 10.1265L14.4824 10.4246L15.0597 10.5852L14.9278 11.1395L15.2362 11.2214L15.3676 10.667L15.4395 10.369L15.1292 10.2844L14.5538 10.1265Z" fill="black"/>
<path d="M10.092 1.05082C10.0822 0.992987 10.0367 0.944049 9.97282 0.930703C9.91556 0.916911 9.85782 0.938266 9.82027 0.973412L9.19179 0.802576C9.17114 0.757642 9.13125 0.723386 9.08008 0.713153C9.03784 0.705145 8.99137 0.713598 8.95664 0.736288L8.28029 0.553439C8.25916 0.526301 8.22772 0.505392 8.1897 0.498274C8.1606 0.49338 8.13009 0.49249 8.1038 0.504057L7.5415 0.349237C7.90385 0.290957 8.26902 0.284283 8.62902 0.330107L9.70387 0.625511C10.0324 0.769654 10.337 0.95962 10.6135 1.19363L10.092 1.05082Z" fill="black"/>
<path d="M10.9428 1.51796L10.864 1.85162L10.5542 1.76754L10.672 1.26304C10.6734 1.25903 10.6744 1.25503 10.6758 1.25058C10.7682 1.33333 10.8583 1.42409 10.9428 1.51796Z" fill="black"/>
<path d="M4.94308 2.94914L5.07497 2.39482L4.78866 2.31874C4.77082 2.34988 4.7544 2.38369 4.73985 2.41973L4.73891 2.42418L4.6333 2.86462L4.94308 2.94914Z" fill="black"/>
<path d="M9.44812 11.7668L10.0264 11.9234L10.0982 11.6258L9.51806 11.4665L9.2125 11.3829L9.14116 11.6809L9.0332 12.1298L9.11675 12.2637L9.31482 12.3185L9.44812 11.7668Z" fill="black"/>
<path d="M6.47859 7.00338L5.90315 6.84545L5.70508 6.79028L5.94164 7.17022L6.41007 7.29968L6.47859 7.00338Z" fill="black"/>
<path d="M9.89491 12.4777L9.31477 12.3185L9.1167 12.2637L9.35655 12.6486L9.82356 12.7758L9.89491 12.4777Z" fill="black"/>
<path d="M8.76881 10.671L9.34472 10.829L9.41325 10.5322L8.83734 10.3743L8.52756 10.2898L8.45715 10.5838L8.35107 11.0354L8.43462 11.1689L8.63739 11.2249L8.76881 10.671Z" fill="black"/>
<path d="M10.8129 13.9561L11.3884 14.1144L11.4597 13.8164L10.8843 13.6584L10.5773 13.5721L10.5074 13.8729L10.3994 14.3218L10.4844 14.4579L10.681 14.5104L10.8129 13.9561Z" fill="black"/>
<path d="M10.5776 13.5721L9.99885 13.4155L9.80078 13.3608L10.0392 13.743L10.5076 13.8729L10.5776 13.5721Z" fill="black"/>
<path d="M10.1308 12.8617L10.7091 13.0183L10.7804 12.7202L10.2022 12.5636L9.89519 12.4777L9.82385 12.7758L9.71777 13.2274L9.80085 13.3608L9.99892 13.4155L10.1308 12.8617Z" fill="black"/>
<path d="M9.21278 11.3829L8.63734 11.2249L8.43457 11.1689L8.67442 11.5537L9.14143 11.6809L9.21278 11.3829Z" fill="black"/>
<path d="M7.16395 8.09648L6.58569 7.93988L6.38574 7.88249L6.62559 8.26732L7.09261 8.39456L7.16395 8.09648Z" fill="black"/>
<path d="M7.39937 8.48042L7.97528 8.63835L8.04663 8.34072L7.47071 8.18234L7.16375 8.09648L7.0924 8.39455L6.98633 8.84611L7.06941 8.97958L7.26795 9.03475L7.39937 8.48042Z" fill="black"/>
<path d="M6.71717 7.38554L7.29589 7.54214L7.36442 7.24585L6.78851 7.08792L6.47873 7.00339L6.4102 7.29968L6.30225 7.74857L6.38579 7.88248L6.58574 7.93987L6.71717 7.38554Z" fill="black"/>
<path d="M7.12192 5.67896L7.70206 5.83823L7.77059 5.54149L7.19233 5.38489L6.88536 5.29903L6.81214 5.59443L6.68213 6.15143L6.99191 6.23551L7.12192 5.67896Z" fill="black"/>
<path d="M8.0848 9.5735L8.66025 9.73143L8.72924 9.43514L8.15333 9.2772L7.84355 9.19267L7.77502 9.48897L7.66895 9.94053L7.75343 10.0767L7.95197 10.1318L8.0848 9.5735Z" fill="black"/>
<path d="M8.52691 10.2898L7.95147 10.1318L7.75293 10.0767L7.98996 10.4566L8.45651 10.5838L8.52691 10.2898Z" fill="black"/>
<path d="M8.81689 2.51404L9.39234 2.67242L9.26091 3.22675L9.5721 3.3135L9.70353 2.75962L9.77534 2.46155L9.46368 2.37435L8.88824 2.21642L8.81689 2.51404Z" fill="black"/>
<path d="M7.90188 4.98762L7.97322 4.68954L7.39309 4.53028L7.08612 4.44441L7.01619 4.74516L6.88477 5.29904L7.19173 5.3849L7.32456 4.82657L7.90188 4.98762Z" fill="black"/>
<path d="M7.52763 3.97462L7.59663 3.67832L7.72805 3.12399L7.42108 3.03813L7.28966 3.59201L7.21785 3.89009L7.08643 4.44442L7.39339 4.53028L7.52763 3.97462Z" fill="black"/>
<path d="M7.21787 3.89008L7.28969 3.592L6.71378 3.43407L6.84567 2.87974L6.53729 2.79788L6.40399 3.34954L6.33265 3.64761L6.20264 4.20461L6.51101 4.28647L6.64243 3.73214L7.21787 3.89008Z" fill="black"/>
<path d="M6.33303 3.64762L6.40438 3.34955L5.82893 3.19161L5.51915 3.10709L5.44734 3.40516L5.31592 3.95949L5.6257 4.04402L5.75712 3.48969L6.33303 3.64762Z" fill="black"/>
<path d="M8.89431 6.16657L8.96284 5.87028L9.09708 5.31417L8.78729 5.23009L8.65587 5.78397L8.58453 6.08204L8.45264 6.63637L8.76242 6.7209L8.89431 6.16657Z" fill="black"/>
<path d="M8.21218 5.07171L8.28071 4.77541L8.41354 4.21708L8.10517 4.13522L7.97374 4.68955L7.9024 4.98762L7.77051 5.54151L8.07747 5.62737L8.21218 5.07171Z" fill="black"/>
<path d="M8.58499 6.08204L8.65633 5.78397L8.0776 5.62737L7.77064 5.5415L7.70211 5.83824L7.56787 6.39391L7.87765 6.47843L8.00907 5.92411L8.58499 6.08204Z" fill="black"/>
<path d="M6.73853 1.94327L6.60711 2.4976L6.91407 2.58346L7.04831 2.0278L7.11731 1.73151L6.81175 1.64831L6.23161 1.48904L6.16309 1.78534L6.73853 1.94327Z" fill="black"/>
<path d="M7.62425 2.18573L7.69278 1.88944L7.11734 1.73151L7.04834 2.0278L7.62425 2.18573Z" fill="black"/>
<path d="M8.57959 2.13455L8.88796 2.21641L9.01939 1.66208L9.09073 1.36445L8.78095 1.27992L8.71242 1.57622L8.57959 2.13455Z" fill="black"/>
<path d="M5.96164 2.63995L6.0311 2.33966L5.72132 2.25513L5.64998 2.5532L5.51855 3.10708L5.82834 3.19161L5.96164 2.63995Z" fill="black"/>
<path d="M8.71302 1.57624L8.78155 1.27994L8.20611 1.12201L8.13477 1.41964L8.71302 1.57624Z" fill="black"/>
<path d="M6.16335 1.78533L5.85357 1.70081L5.72168 2.25513L6.03146 2.33966L6.16335 1.78533Z" fill="black"/>
<path d="M9.26663 7.1769L9.33844 6.87883L8.76253 6.7209L8.45275 6.63637L8.3814 6.93444L8.24951 7.48832L8.55929 7.57285L8.69118 7.01852L9.26663 7.1769Z" fill="black"/>
<path d="M6.2314 1.48904L6.16288 1.78533L5.8531 1.7008L5.30957 1.55266C5.34947 1.5095 5.38702 1.46724 5.42832 1.42631C5.47009 1.38538 5.51421 1.34312 5.5574 1.30486L5.92162 1.40451L6.2314 1.48904Z" fill="black"/>
<path d="M8.00265 1.97396L8.13454 1.41963L8.20589 1.122L7.89611 1.03748L7.82711 1.33377L7.69287 1.88943L8.00265 1.97396Z" fill="black"/>
<path d="M12.9914 12.7398L13.0614 12.439L13.1933 11.8847L12.8835 11.8002L12.7516 12.3545L12.6803 12.6526L12.5488 13.2069L12.8586 13.291L12.9914 12.7398Z" fill="black"/>
<path d="M6.81162 5.59443L6.88485 5.29903L6.30893 5.14109L5.99915 5.05656L5.93063 5.35286L5.79639 5.90897L6.10617 5.99305L6.23618 5.4365L6.81162 5.59443Z" fill="black"/>
<path d="M12.3079 11.6422L12.3769 11.3459L12.5111 10.7903L12.2014 10.7057L12.0671 11.2614L11.9981 11.5577L11.8667 12.112L12.1765 12.1965L12.3079 11.6422Z" fill="black"/>
<path d="M12.6569 14.146L12.7888 13.5917L12.8587 13.291L12.5489 13.2069L12.4771 13.5045L12.3457 14.0588L12.6569 14.146Z" fill="black"/>
<path d="M13.8461 15.6951L13.9151 15.3984L13.3364 15.2422L13.4682 14.6879L13.1613 14.6021L13.0294 15.1559L12.959 15.45L13.2659 15.5359L13.8461 15.6951Z" fill="black"/>
<path d="M13.2327 14.304L12.6568 14.146L12.3456 14.0588L11.7697 13.9009L11.7002 14.2012L12.2756 14.3596L12.5854 14.4437L13.1613 14.602L13.2327 14.304Z" fill="black"/>
<path d="M11.9981 11.5577L12.0671 11.2614L11.4912 11.1035L11.1842 11.0176L11.1128 11.3152L10.981 11.8696L11.2907 11.9541L11.4226 11.3998L11.9981 11.5577Z" fill="black"/>
<path d="M10.2591 8.35585L10.3281 8.05911L10.4596 7.50522L10.154 7.42159L10.0226 7.97591L9.94935 8.27132L9.81934 8.82831L10.1249 8.91151L10.2591 8.35585Z" fill="black"/>
<path d="M9.57646 7.26098L9.64968 6.96557L9.77969 6.40902L9.46991 6.32449L9.33849 6.87882L9.26668 7.17689L9.13525 7.73078L9.44644 7.81798L9.57646 7.26098Z" fill="black"/>
<path d="M10.6329 9.3684L10.7047 9.07077L10.1245 8.9115L9.81898 8.82831L9.74763 9.12594L9.61621 9.68026L9.9213 9.76346L10.0532 9.20958L10.6329 9.3684Z" fill="black"/>
<path d="M11.6253 10.5478L11.6943 10.2511L11.8257 9.69718L11.5187 9.61087L11.3873 10.1652L11.3155 10.4633L11.1841 11.0176L11.491 11.1035L11.6253 10.5478Z" fill="black"/>
<path d="M9.94924 8.27133L10.0225 7.97592L9.44655 7.81799L9.13536 7.73079L9.06402 8.02886L8.93213 8.58319L9.24191 8.66727L9.3738 8.11339L9.94924 8.27133Z" fill="black"/>
<path d="M10.9427 9.45293L11.0103 9.15397L11.1445 8.59831L10.8347 8.51378L10.7047 9.07078L10.6329 9.3684L10.5015 9.92273L10.8084 10.0086L10.9427 9.45293Z" fill="black"/>
<path d="M11.3155 10.4633L11.3873 10.1652L10.8085 10.0086L10.5016 9.92273L10.4302 10.2208L10.2983 10.7751L10.6081 10.8592L10.7381 10.3022L11.3155 10.4633Z" fill="black"/>
<path d="M11.1653 3.16003L11.0334 3.71436L11.3389 3.79755L11.4704 3.24323L11.5417 2.9456L11.2366 2.86196L10.6607 2.70403L10.5894 3.0021L11.1653 3.16003Z" fill="black"/>
<path d="M16.6068 17.3608L16.2971 17.2762L16.1656 17.8301L16.0957 18.1309L16.4013 18.2145L16.9814 18.3733L17.0509 18.0726L16.4726 17.9164L16.6068 17.3608Z" fill="black"/>
<path d="M16.6067 17.3608L17.1826 17.5187L17.253 17.2246L16.6757 17.064L16.3701 16.9809L16.2969 17.2763L16.6067 17.3608Z" fill="black"/>
<path d="M17.2879 18.4592L17.8662 18.6158L17.9375 18.3182L17.3579 18.1589L17.0504 18.0726L16.981 18.3734L17.2879 18.4592Z" fill="black"/>
<path d="M15.9245 16.2659L16.5 16.4238L16.5704 16.1302L15.993 15.9696L15.6833 15.8851L15.6143 16.1814L15.9245 16.2659Z" fill="black"/>
<path d="M15.9246 16.2659L15.6144 16.1814L15.4801 16.7375L15.4116 17.0338L15.7214 17.1179L16.2968 17.2763L16.3701 16.9809L15.7899 16.8216L15.9246 16.2659Z" fill="black"/>
<path d="M15.2392 15.1728L14.9322 15.087L14.8003 15.6413L14.729 15.9389L15.0388 16.0234L15.6142 16.1814L15.6832 15.8851L15.1073 15.7272L15.2392 15.1728Z" fill="black"/>
<path d="M17.288 18.4592L16.9811 18.3734L16.8492 18.9277L16.7778 19.2258L17.0876 19.3098L17.6635 19.4682L17.7349 19.1701L17.1547 19.0109L17.288 18.4592Z" fill="black"/>
<path d="M19.3381 21.7416L19.914 21.9L19.9844 21.6059L19.4085 21.448L19.0987 21.3634L19.0283 21.6575L19.3381 21.7416Z" fill="black"/>
<path d="M15.2396 15.1728L15.815 15.3308L15.8868 15.0332L15.3109 14.8748L15.004 14.7889L14.9326 15.087L15.2396 15.1728Z" fill="black"/>
<path d="M19.3377 21.7416L19.0279 21.6575L18.8965 22.2114L18.8247 22.5095L19.1345 22.594L19.7104 22.7519L19.7817 22.4538L19.2063 22.2959L19.3377 21.7416Z" fill="black"/>
<path d="M18.6556 20.6472L18.3458 20.5626L18.2158 21.1196L18.1426 21.415L18.4528 21.4991L19.0283 21.6575L19.0987 21.3634L18.5214 21.2028L18.6556 20.6472Z" fill="black"/>
<path d="M18.6555 20.6472L19.2314 20.8051L19.2999 20.5088L18.7245 20.3509L18.417 20.2646L18.3457 20.5626L18.6555 20.6472Z" fill="black"/>
<path d="M17.973 19.5523L17.6637 19.4682L17.5318 20.0221L17.4604 20.3202L17.7702 20.4047L18.3457 20.5626L18.417 20.2645L17.8388 20.1079L17.973 19.5523Z" fill="black"/>
<path d="M17.9729 19.5523L18.5488 19.7107L18.6201 19.4126L18.0419 19.256L17.7349 19.1702L17.6636 19.4682L17.9729 19.5523Z" fill="black"/>
<path d="M12.9141 9.08724L13.49 9.24562L13.3581 9.7995L13.6679 9.88403L13.7998 9.3297L13.8711 9.03207L13.5613 8.94755L12.9859 8.78961L12.9141 9.08724Z" fill="black"/>
<path d="M11.9546 5.19138L12.53 5.34932L12.3986 5.90365L12.7084 5.98817L12.8398 5.43385L12.9112 5.13577L12.6014 5.05125L12.0259 4.89331L11.9546 5.19138Z" fill="black"/>
<path d="M12.6362 6.2858L13.2121 6.44374L13.0821 7.00073L13.3919 7.08526L13.5233 6.53094L13.5951 6.23286L13.2835 6.14611L12.708 5.98817L12.6362 6.2858Z" fill="black"/>
<path d="M14.5599 14.0766L14.2501 13.9921L14.1182 14.5464L14.0469 14.8445L14.3567 14.929L14.9326 15.087L15.0039 14.7889L14.4257 14.6323L14.5599 14.0766Z" fill="black"/>
<path d="M13.6435 16.5471L13.712 16.2508L13.1366 16.0929L13.2661 15.5359L12.9592 15.45L12.8263 16.0083L12.7578 16.3046L13.0648 16.3905L13.6435 16.5471Z" fill="black"/>
<path d="M11.269 4.09829L11.8473 4.25444L11.7159 4.80877L12.0257 4.8933L12.1547 4.34031L12.2261 4.04268L11.9191 3.95682L11.339 3.79755L11.269 4.09829Z" fill="black"/>
<path d="M10.2795 2.91757L10.1481 3.4719L10.4579 3.55598L10.5893 3.0021L10.6606 2.70403L10.3509 2.6195L9.77543 2.46156L9.70361 2.75964L10.2795 2.91757Z" fill="black"/>
<path d="M12.3013 7.69208L12.23 7.99015L12.8059 8.14809L12.6759 8.70508L12.9857 8.78961L13.1171 8.23528L13.1884 7.93721L12.8772 7.85001L12.3013 7.69208Z" fill="black"/>
<path d="M12.504 6.84413L12.4336 7.1382L13.009 7.29614L12.8776 7.85002L13.1888 7.93722L13.3188 7.38066L13.392 7.08526L13.0823 7.00073L12.504 6.84413Z" fill="black"/>
<path d="M14.6545 12.2855L14.5226 12.8394L14.4532 13.1401L14.3213 13.6945L14.6268 13.7777L14.7601 13.226L14.8296 12.9257L14.9615 12.3714L14.6545 12.2855Z" fill="black"/>
<path d="M14.0762 12.1289L14.6549 12.2855L14.9619 12.3714L15.5373 12.5293L15.6091 12.2313L15.0332 12.0733L14.7253 11.9915L14.148 11.8309L14.0762 12.1289Z" fill="black"/>
<path d="M14.3213 13.6945L14.25 13.9921L14.5598 14.0766L15.1352 14.2346L15.2052 13.9343L14.6269 13.7777L14.3213 13.6945Z" fill="black"/>
<path d="M12.7828 9.64157L12.7114 9.93964L13.2869 10.0976L13.1554 10.6519L13.4652 10.7364L13.5966 10.1821L13.668 9.88403L13.3582 9.79951L12.7828 9.64157Z" fill="black"/>
<path d="M13.3965 11.0327L13.9724 11.1907L13.8382 11.7463L14.1479 11.8309L14.2794 11.2765L14.3507 10.9789L14.0409 10.8944L13.4655 10.7364L13.3965 11.0327Z" fill="black"/>
<path d="M20.0174 22.8378L20.5976 22.997L20.6689 22.699L20.0888 22.5401L19.7818 22.4538L19.7104 22.7519L20.0174 22.8378Z" fill="black"/>
<path d="M12.6802 12.6526L12.7515 12.3545L12.1761 12.1965L11.8663 12.112L11.7945 12.4101L11.6631 12.964L11.9729 13.0485L12.1048 12.4942L12.6802 12.6526Z" fill="black"/>
<path d="M12.1548 4.34031L12.733 4.49735L12.6012 5.05124L12.9109 5.13576L13.0076 4.72869L12.6518 4.15746L12.2261 4.04268L12.1548 4.34031Z" fill="black"/>
<path d="M13.3921 7.08525L13.3188 7.38066L13.8948 7.53859L13.7647 8.09559L14.0745 8.17967L14.2059 7.62579L14.2778 7.32771L13.968 7.24319L13.3921 7.08525Z" fill="black"/>
<path d="M13.5234 6.53092L14.0993 6.68886L13.9679 7.24319L14.2777 7.32771L14.3739 6.9202L14.0181 6.34941L13.5953 6.23285L13.5234 6.53092Z" fill="black"/>
<path d="M12.8398 5.43383L13.4158 5.59177L13.2839 6.14609L13.5955 6.23285L13.6903 5.82311L13.3346 5.25232L12.9112 5.13576L12.8398 5.43383Z" fill="black"/>
<path d="M11.4707 3.24322L12.0508 3.40248L11.9194 3.95681L12.2264 4.04268L12.324 3.63116L11.971 3.06571L11.542 2.94559L11.4707 3.24322Z" fill="black"/>
<path d="M10.3506 2.61949L10.6604 2.70402L10.7923 2.14969L10.8636 1.85162L10.5538 1.76753L10.4806 2.06294L10.3506 2.61949Z" fill="black"/>
<path d="M11.5414 2.94558L11.639 2.53406L11.4044 2.1568L11.3678 2.30762L11.2363 2.86194L11.5414 2.94558Z" fill="black"/>
<path d="M13.7998 9.3297L14.3752 9.48808L14.2438 10.042L14.5536 10.1265L14.6855 9.57217L14.754 9.27587L14.4471 9.19001L13.8711 9.03207L13.7998 9.3297Z" fill="black"/>
<path d="M14.2793 11.2765L14.8576 11.4331L14.7252 11.9915L15.0331 12.0733L15.165 11.519L15.2363 11.2214L14.928 11.1395L14.3506 10.9789L14.2793 11.2765Z" fill="black"/>
<path d="M15.5366 12.5293L15.8464 12.6139L15.9196 12.3184L16.0496 11.7615L15.7399 11.6774L15.6084 12.2313L15.5366 12.5293Z" fill="black"/>
<path d="M15.4056 13.0837L14.8297 12.9257L14.7603 13.226L15.3357 13.3844L15.6455 13.4685L15.7154 13.1682L15.8468 12.6139L15.5371 12.5293L15.4056 13.0837Z" fill="black"/>
<path d="M13.668 9.88402L13.5967 10.1821L14.1726 10.34L14.0407 10.8944L14.3505 10.9789L14.4824 10.4246L14.5537 10.1265L14.2439 10.042L13.668 9.88402Z" fill="black"/>
<path d="M13.1885 7.93721L13.1172 8.23528L13.6931 8.39322L13.5612 8.94755L13.871 9.03207L14.0024 8.47775L14.0742 8.17967L13.7644 8.09559L13.1885 7.93721Z" fill="black"/>
<path d="M10.4812 2.06293L10.5544 1.76753L9.97898 1.60915L9.90576 1.90455L10.4812 2.06293Z" fill="black"/>
<path d="M7.11757 1.73151L7.25181 1.17585L7.32033 0.879106L7.01337 0.793243L6.94203 1.09132L6.81201 1.64831L7.11757 1.73151Z" fill="black"/>
<path d="M5.51905 3.10707L4.94314 2.94914L4.63336 2.86461L4.56201 3.16268L4.87179 3.24721L5.44724 3.40515L5.51905 3.10707Z" fill="black"/>
<path d="M5.26065 1.60515L5.14613 2.09719L4.94336 2.04114C5.03582 1.89032 5.14143 1.74262 5.26065 1.60515Z" fill="black"/>
<path d="M5.31565 3.95948L5.2443 4.25711L4.66839 4.09918L4.44404 4.03778C4.43324 3.93057 4.4323 3.82201 4.43465 3.71791L4.73974 3.8011L5.31565 3.95948Z" fill="black"/>
<path d="M5.72167 2.25513L5.65033 2.5532L5.07489 2.39482L4.78857 2.31875C4.83316 2.22265 4.88386 2.131 4.94346 2.04114L5.14623 2.09719L5.72167 2.25513Z" fill="black"/>
<path d="M6.44118 4.58678L7.01663 4.74516L7.08656 4.44441L6.51112 4.28648L6.20275 4.20462L6.1314 4.50269L5.99951 5.05658L6.30929 5.14111L6.44118 4.58678Z" fill="black"/>
<path d="M6.1313 4.50268L6.20264 4.2046L5.62532 4.044L5.31554 3.95947L5.2442 4.2571L5.1123 4.81143L5.42396 4.89863L5.55539 4.3443L6.1313 4.50268Z" fill="black"/>
<path d="M13.5117 17.1014L12.9335 16.9448L13.0649 16.3905L12.7579 16.3046L12.6265 16.859L12.5547 17.1566L12.8621 17.2429L13.4404 17.399L13.5117 17.1014Z" fill="black"/>
<path d="M9.66699 1.52241L9.97865 1.60916L10.0941 1.11356C10.0983 1.08998 10.0993 1.06818 10.0922 1.05083L9.82047 0.973419C9.80076 0.995219 9.7848 1.01791 9.77964 1.04594L9.66699 1.52241Z" fill="black"/>
<path d="M8.78125 1.27993L9.09103 1.36446L9.2018 0.895996C9.21072 0.86263 9.20556 0.830153 9.19194 0.80257L8.95679 0.736282C8.92253 0.758971 8.89765 0.790558 8.8892 0.831043L8.78125 1.27993Z" fill="black"/>
<path d="M7.896 1.03748L8.20578 1.12201L8.30951 0.678454C8.32218 0.632631 8.30857 0.587253 8.28041 0.553441L8.10393 0.504059C8.05042 0.51963 8.00864 0.561004 7.99691 0.613501L7.896 1.03748Z" fill="black"/>
<path d="M9.09087 1.36446L9.01953 1.66209L9.59544 1.82046L9.46355 2.37435L9.77521 2.46155L9.90522 1.90455L9.97845 1.60914L9.66679 1.52239L9.09087 1.36446Z" fill="black"/>
<path d="M7.8274 1.33376L7.89639 1.03747L7.32048 0.879089L7.25195 1.17583L7.8274 1.33376Z" fill="black"/>
<path d="M15.2053 13.9343L15.1353 14.2346L15.0039 14.7889L15.3109 14.8748L15.4428 14.3204L15.5122 14.0201L15.6455 13.4685L15.3357 13.3844L15.2053 13.9343Z" fill="black"/>
<path d="M6.41799 0.717163L6.36636 0.933378L6.23166 1.48904L5.92188 1.40451L6.03546 0.934712C6.10023 0.895117 6.16454 0.855078 6.23119 0.818152L6.29455 0.782561C6.33586 0.759427 6.37481 0.737628 6.41799 0.717163Z" fill="black"/>
<path d="M4.6682 4.09919L4.54101 4.63661C4.48938 4.43997 4.45699 4.23888 4.44385 4.0378L4.6682 4.09919Z" fill="black"/>
<path d="M20.7039 23.9335L20.3942 23.8494L20.2627 24.4033L20.1909 24.7014L20.5012 24.7859L21.0766 24.9439L21.148 24.6458L20.5697 24.4892L20.7039 23.9335Z" fill="black"/>
<path d="M19.6845 24.2467L19.8192 23.6911L19.5094 23.607L19.3775 24.1609L19.3062 24.4589L19.6131 24.5448L20.1914 24.7014L20.2632 24.4033L19.6845 24.2467Z" fill="black"/>
<path d="M17.9149 23.7578L18.0463 23.2035L17.7384 23.1216L17.6065 23.6759L17.5352 23.974L17.8449 24.0581L18.4204 24.2165L18.4903 23.9157L17.9149 23.7578Z" fill="black"/>
<path d="M18.802 24.0029L18.9334 23.4486L18.6222 23.3618L18.4903 23.9157L18.4204 24.2165L18.7307 24.3006L19.3061 24.4589L19.3774 24.1609L18.802 24.0029Z" fill="black"/>
<path d="M21.1484 24.6458L21.4554 24.7316L21.5901 24.1764L21.2803 24.0914L21.1484 24.6458Z" fill="black"/>
<path d="M21.5526 22.9392L20.9743 22.7826L20.9072 23.0816L21.4827 23.2395L21.7925 23.324L21.8643 23.026L21.9957 22.4716L21.6845 22.3849L21.5526 22.9392Z" fill="black"/>
<path d="M21.1788 21.9329L21.1084 22.227L21.6843 22.3849L21.9955 22.4716L22.064 22.1754L22.1959 21.6215L21.8843 21.5343L21.7547 22.0908L21.1788 21.9329Z" fill="black"/>
<path d="M21.3511 23.7938L21.2798 24.0915L21.5896 24.1764L21.6609 23.8784L21.7923 23.324L21.4826 23.2395L21.3511 23.7938Z" fill="black"/>
<path d="M15.0767 18.4401L14.5008 18.2822L14.6322 17.7278L14.3229 17.6433L14.191 18.1976L14.1196 18.4957L14.4294 18.5798L15.0049 18.7382L15.0767 18.4401Z" fill="black"/>
<path d="M13.6157 18.0392L13.7471 17.4854L13.4401 17.399L13.3087 17.9534L13.2388 18.2541L13.5439 18.3373L14.1198 18.4957L14.1911 18.1976L13.6157 18.0392Z" fill="black"/>
<path d="M15.7607 19.5372L15.1852 19.3792L15.3167 18.8249L15.005 18.7381L14.8736 19.292L14.8022 19.5901L15.1134 19.6773L15.6893 19.8352L15.7607 19.5372Z" fill="black"/>
<path d="M17.8078 22.8213L17.2324 22.6629L17.3638 22.1091L17.0568 22.0228L16.9268 22.5797L16.8555 22.8778L17.161 22.961L17.7383 23.1216L17.8078 22.8213Z" fill="black"/>
<path d="M17.128 21.7251L16.5497 21.5685L16.6816 21.0142L16.3746 20.9283L16.2427 21.4827L16.1714 21.7803L16.4784 21.8661L17.0566 22.0227L17.128 21.7251Z" fill="black"/>
<path d="M16.4435 20.632L15.8648 20.4754L15.9995 19.9198L15.6897 19.8353L15.5578 20.3896L15.4893 20.6859L15.7943 20.7691L16.375 20.9283L16.4435 20.632Z" fill="black"/>
<path d="M19.9845 21.6059L19.9141 21.8999L19.7822 22.4538L20.0892 22.5401L20.2211 21.9858L20.2938 21.6904L20.4238 21.1334L20.1169 21.0475L19.9845 21.6059Z" fill="black"/>
<path d="M17.2531 17.2246L17.1827 17.5187L17.0508 18.0726L17.3582 18.1589L17.4896 17.6046L17.561 17.3065L17.6929 16.7526L17.3854 16.6663L17.2531 17.2246Z" fill="black"/>
<path d="M16.8786 16.2121L16.8096 16.5084L17.385 16.6663L17.6924 16.7526L17.7638 16.4546L17.8952 15.9002L17.5873 15.8184L17.4554 16.3727L16.8786 16.2121Z" fill="black"/>
<path d="M17.5606 17.3065L17.4893 17.6046L18.0694 17.7639L18.3764 17.8497L18.4477 17.5516L18.5777 16.9951L18.2708 16.9088L18.1379 17.4671L17.5606 17.3065Z" fill="black"/>
<path d="M16.1963 15.1172L16.1245 15.4153L16.7004 15.5737L17.0102 15.6578L17.0815 15.3601L17.213 14.8058L16.9037 14.7213L16.7718 15.2756L16.1963 15.1172Z" fill="black"/>
<path d="M15.8863 15.0331L15.8145 15.3308L15.6831 15.8851L15.9929 15.9696L16.1243 15.4153L16.1961 15.1172L16.3275 14.5633L16.0178 14.4788L15.8863 15.0331Z" fill="black"/>
<path d="M17.9376 18.3182L17.8663 18.6158L17.7349 19.1701L18.0418 19.256L18.1733 18.7017L18.2451 18.404L18.3765 17.8497L18.0695 17.7638L17.9376 18.3182Z" fill="black"/>
<path d="M16.5705 16.1302L16.5001 16.4239L16.3701 16.9809L16.6757 17.0641L16.8099 16.5084L16.8789 16.2121L17.0103 15.6578L16.7006 15.5737L16.5705 16.1302Z" fill="black"/>
<path d="M18.6202 19.4126L18.5489 19.7107L18.417 20.2645L18.7244 20.3509L18.8558 19.7965L18.9272 19.4985L19.0591 18.9446L18.7521 18.8583L18.6202 19.4126Z" fill="black"/>
<path d="M19.3 20.5088L19.2315 20.8051L19.0986 21.3634L19.4084 21.4479L19.5412 20.8896L19.6098 20.5933L19.7417 20.039L19.4319 19.9545L19.3 20.5088Z" fill="black"/>
<path d="M19.6095 20.5933L19.541 20.8896L20.1165 21.0476L20.4234 21.1334L20.4952 20.8358L20.6267 20.2815L20.3169 20.1969L20.1869 20.7539L19.6095 20.5933Z" fill="black"/>
<path d="M15.5123 14.0201L15.4429 14.3204L16.0183 14.4788L16.3281 14.5633L16.3994 14.2653L16.5313 13.7109L16.2215 13.6268L16.0897 14.1807L15.5123 14.0201Z" fill="black"/>
<path d="M20.2935 21.6904L20.2207 21.9858L20.799 22.1424L21.1087 22.227L21.1791 21.9329L21.3092 21.3763L21.0036 21.2927L20.8694 21.8484L20.2935 21.6904Z" fill="black"/>
<path d="M18.9273 19.4985L18.856 19.7965L19.4319 19.9545L19.7416 20.039L19.813 19.7409L19.9444 19.187L19.6346 19.1025L19.5032 19.6568L18.9273 19.4985Z" fill="black"/>
<path d="M18.2452 18.404L18.1733 18.7017L18.7521 18.8583L19.059 18.9446L19.1304 18.6465L19.2618 18.0922L18.9548 18.0063L18.8206 18.562L18.2452 18.404Z" fill="black"/>
<mask id="mask2_24_859" style="mask-type:luminance" maskUnits="userSpaceOnUse" x="4" y="0" width="20" height="26">
<path d="M4.11182 0H23.3863V25.6802H4.11182V0Z" fill="white"/>
</mask>
<g mask="url(#mask2_24_859)">
<path d="M8.1577 0.608174C7.56348 0.608174 6.97771 0.760325 6.46282 1.04861L6.39899 1.0842C5.6311 1.51441 5.08617 2.2022 4.86369 3.02079C4.64168 3.83938 4.76935 4.69134 5.22276 5.41917L16.4983 23.5069C17.0968 24.4665 18.1993 25.0627 19.3769 25.0627C19.9712 25.0627 20.5569 24.9101 21.0718 24.6218L21.1357 24.5857C21.9035 24.156 22.4485 23.4682 22.671 22.6496C22.893 21.831 22.7653 20.9791 22.3114 20.2512L11.0358 2.1635C10.4379 1.20432 9.33487 0.608174 8.1577 0.608174ZM19.3769 25.6708C17.9735 25.6708 16.6588 24.9603 15.9459 23.8165L4.67031 5.72881C4.1296 4.86084 3.97753 3.84561 4.24225 2.86908C4.50697 1.89301 5.15705 1.07353 6.07278 0.560572L6.13614 0.524981C6.75007 0.181529 7.44896 1.52588e-05 8.1577 1.52588e-05C9.5611 1.52588e-05 10.8758 0.710498 11.5888 1.8543L22.8643 19.942C23.405 20.8096 23.5571 21.8252 23.2924 22.8013C23.0272 23.7774 22.3776 24.5973 21.4619 25.1098L21.398 25.1454C20.7846 25.4893 20.0857 25.6708 19.3769 25.6708Z" fill="black"/>
</g>
</svg>
