<svg width="84" height="70" viewBox="0 0 84 70" fill="none" xmlns="http://www.w3.org/2000/svg">
<path d="M78.0013 15.4916H5.2659C2.36144 15.4916 0 17.8495 0 20.7492V64.7424C0 64.9163 0.0690689 65.083 0.192916 65.2069L4.80028 69.8071C4.92294 69.9297 5.09084 70 5.2659 70H78.0013C78.1763 70 78.343 69.9297 78.4669 69.8071L83.0742 65.2069C83.1981 65.083 83.2672 64.9163 83.2672 64.7424V20.7492C83.2672 17.8495 80.9045 15.4916 78.0013 15.4916ZM81.9513 64.4697L77.7286 68.6853H5.5386L1.31588 64.4697V20.7492C1.31588 18.5747 3.08785 16.8063 5.2659 16.8063H78.0013C80.1793 16.8063 81.9513 18.5747 81.9513 20.7492V64.4697ZM62.8716 42.7452C62.8716 31.0536 53.3437 21.5423 41.633 21.5423C29.9223 21.5423 20.3955 31.0536 20.3955 42.7452C20.3955 54.4369 29.9223 63.9493 41.633 63.9493C53.3437 63.9493 62.8716 54.4369 62.8716 42.7452ZM41.633 62.6346C30.6487 62.6346 21.7114 53.7129 21.7114 42.7452C21.7114 31.7788 30.6487 22.857 41.633 22.857C52.6185 22.857 61.5557 31.7788 61.5557 42.7452C61.5557 53.7129 52.6185 62.6346 41.633 62.6346ZM73.5642 18.7772H60.8972C59.4456 18.7772 58.2643 19.9561 58.2643 21.4066V23.5132C58.2643 24.9636 59.4456 26.1425 60.8972 26.1425H73.5642C75.0158 26.1425 76.1971 24.9636 76.1971 23.5132V21.4066C76.1971 19.9561 75.0158 18.7772 73.5642 18.7772ZM74.8813 23.5132C74.8813 24.2384 74.2906 24.8278 73.5642 24.8278H60.8972C60.1708 24.8278 59.5801 24.2384 59.5801 23.5132V21.4066C59.5801 20.6813 60.1708 20.0919 60.8972 20.0919H73.5642C74.2906 20.0919 74.8813 20.6813 74.8813 21.4066V23.5132ZM9.70297 26.1425H22.3699C23.8216 26.1425 25.0029 24.9636 25.0029 23.5132V21.4066C25.0029 19.9561 23.8216 18.7772 22.3699 18.7772H9.70297C8.25014 18.7772 7.07002 19.9561 7.07002 21.4066V23.5132C7.07002 24.9636 8.25014 26.1425 9.70297 26.1425ZM8.3859 21.4066C8.3859 20.6813 8.97656 20.0919 9.70297 20.0919H22.3699C23.0964 20.0919 23.6858 20.6813 23.6858 21.4066V23.5132C23.6858 24.2384 23.0964 24.8278 22.3699 24.8278H9.70297C8.97656 24.8278 8.3859 24.2384 8.3859 23.5132V21.4066ZM30.2176 63.292C30.2176 63.6552 29.9234 63.9493 29.559 63.9493H11.6774C9.13613 63.9493 7.07002 61.8856 7.07002 59.3491V34.0449C7.07002 31.5073 9.13613 29.4447 11.6774 29.4447H21.4137C21.7769 29.4447 22.071 29.7389 22.071 30.1009C22.071 30.4641 21.7769 30.7582 21.4137 30.7582H11.6774C9.86254 30.7582 8.3859 32.2325 8.3859 34.0449V59.3491C8.3859 61.1604 9.86254 62.6346 11.6774 62.6346H29.559C29.9234 62.6346 30.2176 62.9288 30.2176 63.292ZM76.1971 34.0449V59.3491C76.1971 61.8856 74.1298 63.9493 71.5898 63.9493H53.7069C53.3437 63.9493 53.0496 63.6552 53.0496 63.292C53.0496 62.9288 53.3437 62.6346 53.7069 62.6346H71.5898C73.4046 62.6346 74.8813 61.1604 74.8813 59.3491V34.0449C74.8813 32.2325 73.4046 30.7582 71.5898 30.7582H61.8535C61.4903 30.7582 61.1949 30.4641 61.1949 30.1009C61.1949 29.7389 61.4903 29.4447 61.8535 29.4447H71.5898C74.1298 29.4447 76.1971 31.5073 76.1971 34.0449ZM23.4858 12.6039L27.8228 2.40431C28.448 0.943146 29.877 0 31.4632 0H51.804C53.3902 0 54.8192 0.943146 55.4432 2.40312L59.7814 12.6039C59.9231 12.9373 59.7671 13.3231 59.4325 13.4648C59.3491 13.5006 59.2622 13.5184 59.1764 13.5184C58.9192 13.5184 58.6763 13.3672 58.5691 13.1171L54.2321 2.91756C53.8153 1.94464 52.8614 1.3135 51.804 1.3135H31.4632C30.4045 1.3135 29.4519 1.94464 29.0339 2.91875L24.6968 13.1171C24.5551 13.4517 24.1681 13.6077 23.8347 13.4648C23.4989 13.3231 23.3429 12.9373 23.4858 12.6039ZM63.4349 12.8599V12.2359C63.4349 10.4246 64.9115 8.95036 66.7252 8.95036H72.9068C74.7217 8.95036 76.1971 10.4246 76.1971 12.2359V12.8599C76.1971 13.2231 75.903 13.5172 75.5398 13.5172C75.1754 13.5172 74.8813 13.2231 74.8813 12.8599V12.2359C74.8813 11.1487 73.9953 10.2639 72.9068 10.2639H66.7252C65.6368 10.2639 64.7508 11.1487 64.7508 12.2359V12.8599C64.7508 13.2231 64.4566 13.5172 64.0922 13.5172C63.729 13.5172 63.4349 13.2231 63.4349 12.8599ZM7.06883 12.8599V12.2359C7.06883 10.4246 8.54547 8.95036 10.3603 8.95036H16.5408C18.3556 8.95036 19.8323 10.4246 19.8323 12.2359V12.8599C19.8323 13.2231 19.5381 13.5172 19.1737 13.5172C18.8105 13.5172 18.5164 13.2231 18.5164 12.8599V12.2359C18.5164 11.1487 17.6304 10.2639 16.5408 10.2639H10.3603C9.27189 10.2639 8.3859 11.1487 8.3859 12.2359V12.8599C8.3859 13.2231 8.09057 13.5172 7.72737 13.5172C7.36416 13.5172 7.06883 13.2231 7.06883 12.8599ZM34.8202 3.94287V8.27992C34.8202 10.4544 36.5922 12.2228 38.7702 12.2228H44.497C46.675 12.2228 48.4458 10.4544 48.4458 8.27992V3.94287C48.4458 3.57967 48.7411 3.28553 49.1043 3.28553C49.4675 3.28553 49.7629 3.57967 49.7629 3.94287V8.27992C49.7629 11.1784 47.4002 13.5375 44.497 13.5375H38.7702C35.8669 13.5375 33.5043 11.1784 33.5043 8.27992V3.94287C33.5043 3.57967 33.7984 3.28553 34.1628 3.28553C34.526 3.28553 34.8202 3.57967 34.8202 3.94287ZM41.633 10.2496C43.5562 10.2496 45.121 8.68718 45.121 6.76755C45.121 4.84791 43.5562 3.28672 41.633 3.28672C39.711 3.28672 38.1462 4.84791 38.1462 6.76755C38.1462 8.68718 39.711 10.2496 41.633 10.2496ZM41.633 4.60141C42.8298 4.60141 43.8039 5.57313 43.8039 6.76755C43.8039 7.96315 42.8298 8.93488 41.633 8.93488C40.4362 8.93488 39.4633 7.96315 39.4633 6.76755C39.4633 5.57313 40.4362 4.60141 41.633 4.60141ZM32.1527 51.0656C32.4075 51.324 32.404 51.7396 32.1456 51.9945C32.0169 52.1207 31.8502 52.1838 31.6835 52.1838C31.5132 52.1838 31.3429 52.1183 31.2143 51.9873C27.3274 48.0457 25.3566 44.1802 25.3566 40.4993C25.3566 40.1361 25.6507 39.842 26.0151 39.842C26.3783 39.842 26.6725 40.1361 26.6725 40.4993C26.6725 43.8241 28.5159 47.3788 32.1527 51.0656ZM53.957 48.828C54.2392 49.0555 54.2845 49.4687 54.057 49.7509C52.5601 51.6063 50.6524 53.4604 48.3862 55.2598C48.2648 55.3562 48.1195 55.4027 47.9766 55.4027C47.7825 55.4027 47.5908 55.3169 47.461 55.1538C47.2347 54.8704 47.2823 54.4571 47.5658 54.2309C49.7569 52.4911 51.5956 50.7072 53.0317 48.9281C53.2592 48.6447 53.6736 48.5994 53.957 48.828ZM41.1293 33.5531C40.8959 33.2757 40.9316 32.8601 41.2102 32.6278C43.0227 31.1131 45.2591 30.3117 47.6789 30.3117C48.0433 30.3117 48.3374 30.607 48.3374 30.969C48.3374 31.3322 48.0433 31.6263 47.6789 31.6263C45.5723 31.6263 43.6276 32.3206 42.0557 33.6353C41.9331 33.7377 41.783 33.7889 41.6342 33.7889C41.446 33.7889 41.2591 33.7091 41.1293 33.5531ZM54.6143 40.1766C54.5131 37.1435 52.5387 34.6618 49.5842 33.8544C46.5714 33.0315 43.5467 34.189 41.8795 36.8017L41.633 37.1876L41.3865 36.8017C39.7193 34.1878 36.6969 33.0327 33.6829 33.8544C30.7273 34.6618 28.7528 37.1435 28.6528 40.1778C28.6492 40.2838 28.6481 40.3909 28.6481 40.4993C28.6481 48.1004 40.7792 55.4348 41.2948 55.7433C41.3996 55.8052 41.5163 55.8361 41.633 55.8361C41.7509 55.8361 41.8676 55.8052 41.9712 55.7433C42.488 55.4348 54.6191 48.1004 54.6191 40.4993C54.6191 40.3909 54.6179 40.2838 54.6143 40.1778V40.1766ZM41.633 54.4047C39.6812 53.1687 29.9639 46.7048 29.9639 40.4993C29.9639 40.4052 29.9651 40.3123 29.9687 40.2206C30.0663 37.2531 32.1313 35.6407 34.0295 35.1227C34.5534 34.9798 35.0774 34.9095 35.5907 34.9095C37.4734 34.9095 39.2156 35.8443 40.2766 37.5079L41.0781 38.7642C41.3198 39.1429 41.9474 39.1429 42.1879 38.7642L42.9905 37.5079C44.341 35.3918 46.7905 34.4546 49.2365 35.1227C51.1359 35.6407 53.1996 37.2531 53.2985 40.2206C53.3008 40.3123 53.3032 40.4052 53.3032 40.4993C53.3032 46.7 43.5848 53.1687 41.633 54.4047ZM46.5845 47.2216C46.8334 47.4872 46.8191 47.9028 46.5535 48.1505C45.2162 49.3985 43.6026 50.6941 42.0093 51.8004C41.895 51.879 41.764 51.9171 41.6342 51.9171C41.4258 51.9171 41.221 51.8194 41.0923 51.6349C40.8851 51.3371 40.959 50.9275 41.2579 50.7203C42.8 49.6509 44.3612 48.397 45.6545 47.1906C45.92 46.9429 46.3368 46.9572 46.5845 47.2216ZM36.2456 37.5413C36.2456 37.9045 35.9515 38.1986 35.5871 38.1986C34.8059 38.1986 33.3138 38.6428 33.2578 40.3266C33.2459 40.6827 32.9541 40.9625 32.6005 40.9625C32.5933 40.9625 32.5862 40.9625 32.5778 40.9625C32.2146 40.9506 31.93 40.647 31.9419 40.2838C32.0253 37.7889 34.1676 36.8839 35.5871 36.8839C35.9515 36.8839 36.2456 37.178 36.2456 37.5413Z" fill="black"/>
</svg>
