<svg width="41" height="30" viewBox="0 0 41 30" fill="none" xmlns="http://www.w3.org/2000/svg">
<path d="M40.7315 3.63975C40.7009 3.61127 40.6681 3.58589 40.6326 3.56362C40.5971 3.54135 40.5599 3.52219 40.5206 3.50665C40.4807 3.49164 40.4403 3.47972 40.3987 3.47196C40.3567 3.46419 40.3146 3.46005 40.272 3.46005C40.2294 3.46005 40.1873 3.46419 40.1452 3.47196C40.1032 3.47972 40.0627 3.49164 40.0234 3.50665C39.984 3.52219 39.9463 3.54135 39.9108 3.56362C39.8753 3.58589 39.8425 3.61127 39.8125 3.63975L39.2382 4.20735C39.0929 4.34977 38.964 4.50358 38.8498 4.6693C38.7361 4.83502 38.64 5.00955 38.5618 5.19288C38.4837 5.37569 38.4241 5.56472 38.3842 5.75841C38.3438 5.95262 38.3236 6.14838 38.3231 6.34621L38.3028 13.4547C38.3023 13.7286 38.2203 13.9788 38.0564 14.2051L33.4248 20.6097C33.3565 20.7092 33.2685 20.7895 33.1614 20.8511C33.0543 20.9122 32.9379 20.9484 32.8134 20.9593H32.727C32.5637 20.9593 32.4145 20.9153 32.2801 20.8273C32.2353 20.7993 32.1943 20.7667 32.1572 20.7299C32.0916 20.6677 32.0386 20.5963 31.9987 20.517C31.9588 20.4373 31.9337 20.3539 31.9233 20.2664C31.9135 20.1789 31.9189 20.0919 31.9402 20.0059C31.961 19.9204 31.9965 19.8402 32.0462 19.7656L36.3086 13.4894C36.3086 13.4894 36.3086 13.4505 36.3375 13.4314L36.3665 13.3728L36.3911 13.2874C36.3932 13.2667 36.3932 13.246 36.3911 13.2252C36.3927 13.203 36.3927 13.1812 36.3911 13.159V8.26341C36.3911 8.2225 36.3867 8.18262 36.3785 8.14274C36.3697 8.10287 36.3577 8.06403 36.3413 8.02674C36.3249 7.98893 36.3047 7.95372 36.2807 7.91954C36.2572 7.88587 36.2299 7.8548 36.1998 7.8258C36.1692 7.79732 36.1364 7.77194 36.1009 7.74915C36.0654 7.72637 36.0277 7.70772 35.9884 7.69219C35.9485 7.67665 35.9075 7.66474 35.866 7.65697C35.8239 7.64868 35.7813 7.64506 35.7387 7.64506C35.6955 7.64506 35.6534 7.64868 35.6114 7.65697C35.5693 7.66474 35.5283 7.67665 35.489 7.69219C35.4491 7.70772 35.4119 7.72637 35.3759 7.74915C35.3404 7.77194 35.3076 7.79732 35.277 7.8258C35.2469 7.8548 35.2202 7.88587 35.1961 7.91954C35.1721 7.95372 35.1524 7.98893 35.136 8.02674C35.1196 8.06403 35.1071 8.10287 35.0989 8.14274C35.0901 8.18262 35.0863 8.2225 35.0863 8.26341V12.4671C34.9366 12.435 34.7896 12.392 34.647 12.3392C34.5039 12.2863 34.3656 12.2231 34.2329 12.1501C34.0995 12.0776 33.9733 11.9958 33.8531 11.9046C33.7329 11.8135 33.6209 11.7146 33.5171 11.6074C33.4127 11.5007 33.3177 11.3868 33.2313 11.2661C33.1456 11.1454 33.0696 11.0191 33.0035 10.8875C32.9379 10.756 32.8828 10.6208 32.8385 10.4815C32.7942 10.3417 32.7615 10.2003 32.7396 10.0558C32.3582 7.45034 32.6369 3.77595 36.1446 1.11196C36.1802 1.08762 36.2129 1.06017 36.2424 1.0291C36.2719 0.998547 36.2982 0.964884 36.3206 0.929151C36.343 0.893417 36.3616 0.856129 36.3758 0.81677C36.39 0.777411 36.4003 0.737016 36.4058 0.695585C36.4118 0.654673 36.4129 0.613242 36.4102 0.571293C36.4069 0.529863 36.3993 0.48895 36.3872 0.449073C36.3758 0.409196 36.3594 0.370355 36.3391 0.333585C36.3195 0.296297 36.2954 0.261599 36.2676 0.229491C36.2408 0.1979 36.2113 0.169416 36.178 0.143522C36.1452 0.117628 36.1102 0.0948409 36.0725 0.0756792C36.0354 0.0559996 35.996 0.0404632 35.9556 0.0285519C35.9146 0.0161227 35.8731 0.00783654 35.8305 0.00369347C35.7884 -0.000449593 35.7458 -0.00096751 35.7032 0.00265771C35.6605 0.00628279 35.619 0.0135332 35.578 0.0249267C35.5371 0.03632 35.4977 0.0513387 35.4595 0.0699825C35.4218 0.0886263 35.3863 0.110895 35.3529 0.136272C31.3649 3.17676 31.0409 7.30274 31.472 10.2464C31.5075 10.4908 31.5665 10.7301 31.6479 10.9647C31.7288 11.1993 31.8321 11.4246 31.9561 11.6416C32.0807 11.8586 32.2244 12.0631 32.3877 12.2553C32.5511 12.4474 32.7314 12.6245 32.9281 12.7856L29.4613 16.721C29.3242 16.852 29.2084 16.9985 29.1138 17.1601C29.0193 17.3217 28.9494 17.4921 28.9046 17.6718C28.8598 17.8515 28.8417 18.0338 28.8499 18.2182C28.8581 18.403 28.8925 18.5828 28.9532 18.7583C29.0138 18.9339 29.0985 19.0986 29.2073 19.2519C29.3154 19.4051 29.4438 19.5419 29.5925 19.6615C29.7411 19.7811 29.9033 19.8795 30.0804 19.9567C30.2574 20.0339 30.4426 20.0867 30.6349 20.1157C30.6349 20.1742 30.6349 20.2364 30.6349 20.2944C30.2864 21.0437 29.8837 21.7657 29.4269 22.4601C28.9707 23.1551 28.4647 23.8165 27.9096 24.4431C27.3539 25.0703 26.7551 25.657 26.112 26.2034C25.4689 26.7503 24.7887 27.2511 24.0707 27.7063C23.8036 27.8762 23.5244 28.0263 23.2337 28.1574C22.943 28.2879 22.6436 28.3977 22.3354 28.4867C22.0278 28.5753 21.7148 28.6421 21.3962 28.6872C21.0777 28.7317 20.7575 28.7545 20.4357 28.7545C20.1139 28.7545 19.7942 28.7317 19.4757 28.6872C19.1572 28.6421 18.8441 28.5753 18.5365 28.4867C18.2283 28.3977 17.9289 28.2879 17.6382 28.1574C17.3475 28.0263 17.0683 27.8762 16.8012 27.7063C16.0832 27.2495 15.4024 26.7472 14.7593 26.1993C14.1163 25.6513 13.5169 25.0635 12.9618 24.4348C12.4066 23.8066 11.9007 23.1443 11.4445 22.4482C10.9877 21.7522 10.5856 21.0292 10.237 20.2788C10.2408 20.226 10.2408 20.1727 10.237 20.1198C10.3916 20.0976 10.5418 20.0598 10.6877 20.0059C10.8336 19.952 10.9713 19.8837 11.1008 19.8008C11.2303 19.7174 11.3483 19.6216 11.4554 19.5134C11.5625 19.4051 11.6554 19.2871 11.7346 19.1592C11.7952 19.0613 11.8466 18.9593 11.8892 18.8526C11.9318 18.7464 11.9646 18.6376 11.9876 18.5263C12.0105 18.4144 12.0236 18.3021 12.0269 18.1886C12.0296 18.0747 12.0225 17.9618 12.005 17.8494C11.9881 17.737 11.9608 17.6267 11.9242 17.5185C11.887 17.4103 11.8411 17.3057 11.7854 17.2052C11.7297 17.1047 11.6657 17.0089 11.5931 16.9183C11.5204 16.8282 11.4406 16.7443 11.3527 16.6666L7.99298 12.7664C8.19023 12.6048 8.37053 12.4282 8.53445 12.2361C8.69781 12.044 8.84206 11.8394 8.96663 11.6224C9.09121 11.4059 9.19447 11.1801 9.27643 10.9455C9.35839 10.7109 9.4174 10.4717 9.45346 10.2272C9.884 7.30274 9.56 3.17676 5.57252 0.136272C5.45287 0.0430526 5.31627 -0.00200338 5.16219 6.82896e-05C5.09499 6.82896e-05 5.02942 0.009908 4.9655 0.0295876C4.90157 0.0492671 4.84201 0.077233 4.78738 0.114003C4.73274 0.150772 4.6852 0.194792 4.64477 0.245545C4.60434 0.296297 4.57265 0.351711 4.55025 0.411785C4.52785 0.471342 4.51528 0.533488 4.51309 0.59667C4.51091 0.660369 4.51856 0.723033 4.53659 0.784143C4.55462 0.845771 4.58194 0.902738 4.61909 0.95608C4.6557 1.00942 4.69996 1.05603 4.75186 1.09643C8.26344 3.77595 8.54264 7.44671 8.16127 10.0403C8.13941 10.1848 8.10609 10.3267 8.06183 10.466C8.01757 10.6058 7.96239 10.7415 7.89628 10.873C7.83016 11.0046 7.75422 11.1304 7.66789 11.2516C7.58156 11.3723 7.48649 11.4862 7.38213 11.5929C7.27777 11.7001 7.16522 11.799 7.04502 11.8901C6.92481 11.9808 6.79805 12.0626 6.66528 12.1356C6.53197 12.2081 6.39373 12.2713 6.25003 12.3241C6.10688 12.377 5.96045 12.4194 5.8102 12.451V8.26341C5.80364 8.18573 5.78233 8.11219 5.74682 8.04228C5.71076 7.97236 5.66268 7.91073 5.60257 7.85791C5.54247 7.80508 5.47418 7.76469 5.39768 7.73621C5.32119 7.70824 5.24196 7.69374 5.16001 7.69374C5.07805 7.69374 4.99883 7.70824 4.92233 7.73621C4.84584 7.76469 4.77754 7.80508 4.71744 7.85791C4.65734 7.91073 4.60926 7.97236 4.5732 8.04228C4.53713 8.11219 4.51637 8.18573 4.50982 8.26341V13.159C4.50818 13.1838 4.50818 13.2082 4.50982 13.233C4.50763 13.2496 4.50763 13.2667 4.50982 13.2833C4.51364 13.3143 4.52184 13.3444 4.5344 13.3728L4.56281 13.4272C4.57101 13.449 4.5803 13.4697 4.59177 13.4894L7.11058 17.2109L8.83769 19.7656C8.85736 19.7941 8.87429 19.8236 8.88959 19.8542C8.90489 19.8847 8.918 19.9163 8.92893 19.9484C8.93986 19.9805 8.9486 20.0131 8.95516 20.0463C8.96172 20.0794 8.96609 20.1131 8.96773 20.1468C8.96936 20.1804 8.96882 20.2141 8.96609 20.2477C8.96335 20.2814 8.95844 20.3151 8.95079 20.3482C8.94368 20.3814 8.93385 20.4135 8.92238 20.4456C8.91036 20.4772 8.89615 20.5082 8.8803 20.5383C8.86391 20.5688 8.84588 20.5978 8.82621 20.6258C8.806 20.6538 8.78414 20.6802 8.7601 20.705C8.73661 20.7304 8.71093 20.7542 8.68415 20.776C8.65684 20.7983 8.62842 20.8185 8.59892 20.8371C8.56887 20.8557 8.53827 20.8723 8.50603 20.8868C8.4738 20.9018 8.44102 20.9143 8.40714 20.9251C8.37326 20.936 8.33884 20.9443 8.30387 20.9505C8.26891 20.9572 8.23339 20.9614 8.19788 20.9635H8.11155C7.98643 20.9521 7.8706 20.9153 7.76351 20.8531C7.65587 20.791 7.56845 20.7097 7.5007 20.6097L2.86467 14.2051C2.70075 13.9788 2.6188 13.7286 2.61825 13.4547V6.36174C2.6177 6.16391 2.59749 5.96815 2.5576 5.77395C2.51717 5.58026 2.45816 5.39123 2.37948 5.20842C2.30135 5.02509 2.20519 4.85056 2.09154 4.68484C1.97789 4.51912 1.8484 4.36531 1.70361 4.22289L1.11297 3.65529C1.05123 3.59573 0.980205 3.54964 0.898794 3.51701C0.81793 3.4849 0.733241 3.46833 0.645274 3.46833C0.46934 3.46885 0.317993 3.52582 0.189594 3.63975C0.159543 3.66875 0.13277 3.69983 0.109276 3.73349C0.0857815 3.76767 0.0655655 3.8034 0.0491741 3.84069C0.0327826 3.87798 0.0207624 3.91682 0.0125666 3.9567C0.00437104 3.99657 0 4.03645 0 4.07736C0 4.11776 0.00437104 4.15763 0.0125666 4.19751C0.0207624 4.23739 0.0327826 4.27623 0.0491741 4.31352C0.0655655 4.35132 0.0857815 4.38706 0.109276 4.42072C0.13277 4.45438 0.159543 4.48597 0.189594 4.51446L0.763838 5.07843C0.940319 5.25089 1.07637 5.44872 1.17144 5.67141C1.26651 5.8941 1.31404 6.12559 1.31404 6.36537V13.4547C1.32224 13.9311 1.45938 14.3718 1.72383 14.7768L3.16408 21.0919C3.1843 21.1779 3.21107 21.2618 3.24495 21.3436C3.27882 21.4259 3.31925 21.5046 3.3657 21.5808C3.41269 21.6569 3.46568 21.7289 3.52415 21.7973C3.58316 21.8656 3.64708 21.9293 3.71593 21.9878C3.78532 22.0469 3.85908 22.1002 3.93666 22.1484C4.0148 22.196 4.09621 22.238 4.1809 22.2742C4.26558 22.31 4.353 22.3395 4.44261 22.3623C4.53222 22.3856 4.62346 22.4016 4.7158 22.4115C4.80814 22.4213 4.90048 22.4239 4.99336 22.4197C5.08625 22.4156 5.17858 22.4047 5.26928 22.3871C5.36053 22.3695 5.44959 22.3452 5.53646 22.3146C5.62334 22.2835 5.70748 22.2468 5.78834 22.2033C5.86921 22.1603 5.94625 22.1111 6.01946 22.0567C6.09213 22.0018 6.16043 21.9423 6.22326 21.878C6.28664 21.8133 6.34401 21.7444 6.39592 21.6714C6.44782 21.5979 6.49317 21.5217 6.53251 21.4415C6.71063 21.6538 6.92536 21.8242 7.17669 21.9537C7.42803 22.0831 7.69575 22.1613 7.98042 22.1883H8.17766C8.43118 22.1872 8.67651 22.1442 8.91363 22.0593C9.15076 21.9744 9.36494 21.8527 9.55563 21.6947C9.93099 22.4032 10.3533 23.0857 10.8216 23.7429C11.2904 24.3996 11.8018 25.0252 12.3553 25.6197C12.9093 26.2138 13.5016 26.772 14.1316 27.2935C14.7615 27.8151 15.4243 28.2962 16.1198 28.7369C16.2799 28.8389 16.4433 28.9352 16.611 29.0259C16.7782 29.117 16.9492 29.2014 17.123 29.2801C17.2973 29.3589 17.4738 29.4314 17.6535 29.4977C17.8333 29.5639 18.0158 29.6235 18.1999 29.6774C18.3846 29.7307 18.5703 29.7773 18.7588 29.8177C18.9468 29.8581 19.1358 29.8918 19.3265 29.9187C19.5178 29.9456 19.709 29.9663 19.9013 29.9798C20.0936 29.9933 20.286 30 20.4788 30C20.6717 30 20.8646 29.9933 21.0569 29.9798C21.2492 29.9663 21.4405 29.9456 21.6312 29.9187C21.8218 29.8918 22.0114 29.8581 22.1994 29.8177C22.3874 29.7773 22.5737 29.7307 22.7583 29.6774C22.9425 29.6235 23.1244 29.5639 23.3042 29.4977C23.4839 29.4314 23.661 29.3589 23.8347 29.2801C24.009 29.2014 24.1795 29.117 24.3472 29.0259C24.5144 28.9352 24.6783 28.8389 24.8379 28.7369C25.5334 28.2967 26.1962 27.8156 26.8261 27.2941C27.4561 26.7726 28.0478 26.2153 28.6019 25.6213C29.1559 25.0273 29.6668 24.4022 30.1356 23.7455C30.6044 23.0889 31.0267 22.4068 31.4021 21.6983C31.5922 21.8553 31.8053 21.9759 32.0408 22.0598C32.2768 22.1442 32.5205 22.1872 32.7724 22.1883H32.9691C33.2532 22.1618 33.5209 22.0836 33.7717 21.9542C34.022 21.8247 34.2361 21.6538 34.4132 21.4415C34.4525 21.5217 34.4979 21.5989 34.5492 21.6724C34.6011 21.746 34.6585 21.8149 34.7219 21.8801C34.7847 21.9448 34.853 22.0049 34.9257 22.0598C34.9989 22.1147 35.0759 22.1639 35.1568 22.2074C35.2382 22.2509 35.3223 22.2882 35.4098 22.3193C35.4966 22.3503 35.5862 22.3747 35.6775 22.3923C35.7687 22.4104 35.8605 22.4213 35.954 22.4254C36.0468 22.4296 36.1397 22.427 36.2326 22.4172C36.3249 22.4073 36.4162 22.3913 36.5063 22.368C36.5965 22.3452 36.6839 22.3151 36.7686 22.2794C36.8538 22.2431 36.9352 22.2012 37.0134 22.1525C37.0915 22.1044 37.1653 22.051 37.2347 21.992C37.3041 21.9329 37.368 21.8687 37.4264 21.8004C37.4855 21.732 37.5379 21.6595 37.5849 21.5828C37.6313 21.5067 37.6718 21.427 37.7056 21.3446C37.739 21.2623 37.7657 21.1779 37.786 21.0919L39.2093 14.7768C39.4737 14.3729 39.6103 13.9337 39.6196 13.4583V6.36537C39.6196 6.12559 39.6671 5.89461 39.7611 5.67192C39.8556 5.44975 39.9901 5.25192 40.1654 5.07843L40.7435 4.51446C40.7736 4.48545 40.7998 4.45386 40.8227 4.41968C40.8462 4.3855 40.8654 4.34977 40.8812 4.31196C40.897 4.27416 40.9085 4.23532 40.9167 4.19544C40.9244 4.15556 40.9276 4.11517 40.9271 4.07477C40.9266 4.03438 40.9222 3.99398 40.9129 3.95462C40.9041 3.91475 40.8916 3.87642 40.8746 3.83914C40.8577 3.80133 40.8375 3.76611 40.8135 3.73245C40.7894 3.69931 40.7621 3.66823 40.7315 3.63975ZM30.4093 17.5801L34.0444 13.4272C34.246 13.5137 34.4536 13.5836 34.6678 13.6375L33.1909 15.8188L31.0983 18.9064C31.0507 18.9101 31.0027 18.9101 30.9551 18.9064C30.8846 18.9059 30.8153 18.8966 30.7475 18.8785C30.6798 18.8603 30.6153 18.8344 30.5546 18.8003C30.4945 18.7661 30.4393 18.7252 30.3907 18.677C30.3415 18.6294 30.3 18.576 30.2656 18.5175C30.2213 18.4429 30.1913 18.3632 30.1749 18.2793C30.1585 18.1949 30.1569 18.1104 30.1694 18.026C30.1825 17.9411 30.2099 17.8608 30.2508 17.7842C30.2918 17.708 30.3448 17.6402 30.4093 17.5801ZM6.88493 13.4272L10.4582 17.5221C10.5353 17.5827 10.5992 17.6542 10.65 17.736C10.7008 17.8178 10.7353 17.9054 10.7538 17.9986C10.773 18.0918 10.7741 18.1855 10.7588 18.2793C10.7435 18.373 10.7118 18.4616 10.6637 18.5449C10.6293 18.6029 10.5877 18.6563 10.5386 18.7045C10.4899 18.7521 10.4348 18.7935 10.3747 18.8277C10.314 18.8614 10.2495 18.8878 10.1818 18.9059C10.114 18.9235 10.0446 18.9328 9.97416 18.9334C9.92662 18.9375 9.87854 18.9375 9.831 18.9334L7.95201 16.1337L6.26151 13.6375C6.47514 13.5831 6.68331 13.5132 6.88493 13.4272ZM4.42349 20.8159L3.68533 17.4988L5.41626 19.894V20.7221C5.41844 20.7806 5.40861 20.8371 5.38785 20.892C5.36708 20.9469 5.33649 20.9966 5.29606 21.0406C5.25562 21.0846 5.20809 21.1199 5.15345 21.1468C5.09881 21.1737 5.0409 21.1903 4.9797 21.1965C4.91851 21.2027 4.85841 21.1981 4.79885 21.1825C4.73984 21.167 4.6852 21.1416 4.63603 21.1069C4.58686 21.0717 4.54588 21.0297 4.51364 20.98C4.48086 20.9303 4.459 20.877 4.44807 20.8195L4.42349 20.8159ZM37.244 17.4947L36.5058 20.8273C36.4949 20.8847 36.473 20.9381 36.4402 20.9878C36.408 21.0375 36.367 21.0795 36.3178 21.1147C36.2687 21.1494 36.214 21.1748 36.155 21.1903C36.0955 21.2058 36.0354 21.2105 35.9742 21.2043C35.913 21.1981 35.8551 21.1815 35.8004 21.1546C35.7458 21.1276 35.6982 21.0924 35.6578 21.0484C35.6174 21.0044 35.5868 20.9547 35.566 20.8998C35.5453 20.8449 35.5354 20.7884 35.5376 20.7299V19.9018L37.244 17.4947Z" fill="black"/>
<path d="M20.4649 25.2992C22.5777 25.2992 23.8087 24.4281 24.9779 23.456C25.0288 23.4146 25.0719 23.3664 25.1074 23.3121C25.143 23.2577 25.1686 23.1992 25.1845 23.1375C25.2009 23.0754 25.2069 23.0122 25.202 22.9485C25.1976 22.8848 25.1828 22.8232 25.1583 22.7636C25.1386 22.7087 25.1107 22.6575 25.0741 22.6098C25.038 22.5627 24.9949 22.5218 24.9457 22.4871C24.896 22.4524 24.8424 22.4254 24.784 22.4063C24.7261 22.3871 24.666 22.3768 24.6042 22.3752H24.5266C23.8611 22.2685 23.2443 22.0427 22.676 21.6983C22.4799 21.5637 22.2663 21.4611 22.0357 21.3902C21.8051 21.3187 21.5685 21.283 21.3265 21.2825C21.0271 21.283 20.7359 21.3281 20.4523 21.4182C20.1714 21.3296 19.883 21.2845 19.5868 21.2825C19.3486 21.282 19.1153 21.3151 18.8875 21.3814C18.6591 21.4477 18.4465 21.544 18.2493 21.6714C17.663 22.0557 17.0161 22.2929 16.3091 22.383C16.2468 22.3902 16.1867 22.4052 16.1288 22.4291C16.0709 22.4529 16.0184 22.4834 15.9698 22.5218C15.9217 22.5601 15.8802 22.6041 15.8452 22.6533C15.8102 22.703 15.7835 22.7564 15.7649 22.8133C15.7463 22.8703 15.7365 22.9283 15.7359 22.9879C15.7348 23.0474 15.743 23.1059 15.76 23.1634C15.7769 23.2209 15.802 23.2748 15.8354 23.325C15.8687 23.3758 15.9091 23.4203 15.9561 23.4597C17.1172 24.4281 18.3482 25.2992 20.4649 25.2992Z" fill="#D87385"/>
<path d="M20.4649 25.2992C22.5777 25.2992 23.8087 24.4281 24.9779 23.456C25.0288 23.4146 25.0719 23.3664 25.1074 23.3121C25.143 23.2577 25.1686 23.1992 25.1845 23.1375C25.2009 23.0754 25.2069 23.0122 25.202 22.9485C25.1976 22.8848 25.1828 22.8232 25.1583 22.7636C25.1386 22.7087 25.1107 22.6575 25.0741 22.6098C25.038 22.5627 24.9949 22.5218 24.9457 22.4871C24.896 22.4524 24.8424 22.4254 24.784 22.4063C24.7261 22.3871 24.666 22.3768 24.6042 22.3752H24.5266C23.8611 22.2685 23.2443 22.0427 22.676 21.6983C22.4799 21.5637 22.2663 21.4611 22.0357 21.3902C21.8051 21.3187 21.5685 21.283 21.3265 21.2825C21.0271 21.283 20.7359 21.3281 20.4523 21.4182C20.1714 21.3296 19.883 21.2845 19.5868 21.2825C19.3486 21.282 19.1153 21.3151 18.8875 21.3814C18.6591 21.4477 18.4465 21.544 18.2493 21.6714C17.663 22.0557 17.0161 22.2929 16.3091 22.383C16.2468 22.3902 16.1867 22.4052 16.1288 22.4291C16.0709 22.4529 16.0184 22.4834 15.9698 22.5218C15.9217 22.5601 15.8802 22.6041 15.8452 22.6533C15.8102 22.703 15.7835 22.7564 15.7649 22.8133C15.7463 22.8703 15.7365 22.9283 15.7359 22.9879C15.7348 23.0474 15.743 23.1059 15.76 23.1634C15.7769 23.2209 15.802 23.2748 15.8354 23.325C15.8687 23.3758 15.9091 23.4203 15.9561 23.4597C17.1172 24.4281 18.3482 25.2992 20.4649 25.2992ZM19.2339 22.5539C19.3349 22.529 19.4377 22.5161 19.542 22.515C19.6442 22.5161 19.7453 22.5264 19.8453 22.5461C19.9556 22.5715 20.0638 22.6036 20.1693 22.6435C20.2479 22.6745 20.3304 22.6901 20.4157 22.6901C20.5009 22.6901 20.5829 22.6745 20.6615 22.6435C20.8588 22.5648 21.0637 22.5233 21.2773 22.5187C21.521 22.5166 21.7412 22.5839 21.9379 22.7212C22.3083 22.9413 22.6952 23.1318 23.0989 23.2929C22.9033 23.4193 22.699 23.5311 22.4859 23.6285C22.2728 23.7258 22.0537 23.8072 21.8275 23.8734C21.6013 23.9397 21.3713 23.9895 21.1374 24.0231C20.9036 24.0563 20.6687 24.0728 20.4321 24.0728C20.1955 24.0728 19.9605 24.0563 19.7261 24.0231C19.4923 23.9895 19.2628 23.9397 19.0366 23.8734C18.8104 23.8072 18.5913 23.7258 18.3782 23.6285C18.1651 23.5311 17.9608 23.4193 17.7652 23.2929C18.1914 23.1401 18.5891 22.9381 18.959 22.6859C19.0492 22.6279 19.1459 22.5834 19.2502 22.5539H19.2339Z" fill="black"/>
<path d="M11.0697 10.3282C11.1571 10.3282 11.2413 10.3116 11.3216 10.2795C11.4019 10.2469 11.4729 10.2008 11.5336 10.1413C11.7374 9.9745 11.9559 9.82742 12.1892 9.69899C12.422 9.57107 12.6657 9.4649 12.9197 9.37997C13.1738 9.29504 13.4339 9.23341 13.7005 9.19457C13.9666 9.15625 14.2343 9.14123 14.5037 9.15003C15.1774 9.16971 15.8369 9.27225 16.4821 9.45869C17.1274 9.64461 17.7355 9.90718 18.3065 10.2464C18.3437 10.2666 18.383 10.2832 18.4234 10.2961C18.4639 10.3091 18.5054 10.3179 18.548 10.323C18.5906 10.3282 18.6332 10.3293 18.6758 10.3267C18.7185 10.3241 18.7605 10.3173 18.8021 10.3065C18.8436 10.2956 18.8829 10.2816 18.9217 10.2635C18.96 10.2454 18.996 10.2236 19.0299 10.1987C19.0638 10.1744 19.0949 10.1464 19.1228 10.1159C19.1512 10.0853 19.1758 10.0522 19.1971 10.017C19.2184 9.98175 19.2359 9.94498 19.249 9.90666C19.2627 9.86834 19.2725 9.82949 19.278 9.7891C19.2829 9.74922 19.2845 9.70883 19.2812 9.66843C19.2785 9.62804 19.2714 9.58816 19.2599 9.54932C19.249 9.51048 19.2337 9.47267 19.2146 9.43642C19.1955 9.40017 19.1731 9.36651 19.1468 9.3344C19.1206 9.30229 19.0911 9.27329 19.0589 9.24688C19.0266 9.22046 18.9922 9.19716 18.955 9.17696C18.2852 8.7813 17.5722 8.47575 16.8165 8.25979C16.0609 8.04435 15.2883 7.92627 14.4993 7.90556C14.1436 7.89727 13.7896 7.92058 13.4383 7.97651C13.0869 8.03244 12.7444 8.11893 12.4105 8.237C12.0767 8.35508 11.7576 8.50164 11.4538 8.67772C11.1495 8.85328 10.8654 9.05474 10.602 9.28209C10.5577 9.32559 10.5211 9.37428 10.4922 9.42813C10.4632 9.48199 10.443 9.53844 10.4315 9.598C10.4201 9.65756 10.4179 9.71711 10.425 9.77771C10.4315 9.83778 10.4474 9.89527 10.4725 9.9512C10.4976 10.0066 10.5304 10.0579 10.5709 10.1045C10.6113 10.1511 10.6583 10.191 10.7113 10.2246C10.7648 10.2578 10.8216 10.2837 10.8828 10.3013C10.9435 10.3189 11.0058 10.3277 11.0697 10.3282Z" fill="black"/>
<path d="M22.2902 10.3282C22.406 10.3277 22.5142 10.3008 22.6147 10.2464C23.1857 9.90665 23.7938 9.64356 24.4391 9.45661C25.0838 9.27017 25.7433 9.16659 26.4175 9.14588C26.6869 9.13759 26.9546 9.15261 27.2213 9.19145C27.4874 9.23081 27.748 9.29296 28.002 9.37789C28.2561 9.46282 28.4992 9.57002 28.7326 9.69794C28.9653 9.82638 29.1839 9.97449 29.3877 10.1412C29.4489 10.2003 29.5193 10.2459 29.5997 10.2775C29.6805 10.3096 29.7641 10.3251 29.8515 10.3241C29.9155 10.3246 29.9778 10.3158 30.0389 10.2987C30.1001 10.2816 30.157 10.2562 30.2105 10.2231C30.2635 10.1894 30.3105 10.1495 30.3515 10.1034C30.3925 10.0568 30.4252 10.0061 30.4504 9.95015C30.4755 9.89474 30.4913 9.83673 30.4979 9.77666C30.505 9.71658 30.5028 9.65703 30.4913 9.59747C30.4793 9.53791 30.4591 9.48147 30.4296 9.42761C30.4001 9.37375 30.3635 9.32558 30.3192 9.28208C30.0553 9.05473 29.7712 8.85276 29.4669 8.67719C29.162 8.50111 28.8429 8.35455 28.5085 8.23647C28.1747 8.1184 27.8316 8.03191 27.4797 7.97598C27.1284 7.92057 26.7738 7.89674 26.4175 7.90555C25.6291 7.92626 24.8576 8.04486 24.1025 8.2603C23.3474 8.47625 22.6355 8.78181 21.9662 9.17695C21.9296 9.19767 21.8957 9.22097 21.864 9.2479C21.8323 9.27483 21.8034 9.30435 21.7782 9.33646C21.7526 9.36857 21.7302 9.40275 21.7121 9.439C21.6935 9.47525 21.6788 9.51306 21.6684 9.5519C21.6575 9.59074 21.6509 9.63062 21.6487 9.67101C21.646 9.71089 21.6476 9.75128 21.6537 9.79116C21.6597 9.83104 21.6695 9.86988 21.6832 9.90768C21.6974 9.94601 21.7149 9.98226 21.7367 10.017C21.7941 10.1112 21.8717 10.1858 21.9706 10.2412C22.0689 10.2966 22.176 10.3256 22.2902 10.3282Z" fill="black"/>
<path d="M18.799 17.6972C18.7203 17.6666 18.6383 17.6511 18.5531 17.6506C18.4821 17.6552 18.4138 17.6708 18.3482 17.6967C18.2826 17.7231 18.2231 17.7583 18.1701 17.8028C18.1165 17.8474 18.0717 17.8986 18.0362 17.9571C18.0007 18.0157 17.9756 18.0778 17.9619 18.1436C17.9477 18.2099 17.945 18.2762 17.9537 18.343C17.9625 18.4103 17.9821 18.474 18.0127 18.5346C18.0439 18.5952 18.0838 18.6501 18.1335 18.6982C18.1832 18.7464 18.2395 18.7863 18.3029 18.8168L18.5941 18.9334C18.8902 19.0504 19.1956 19.1384 19.5098 19.198C19.8245 19.2575 20.142 19.2871 20.4627 19.2871C20.7834 19.2871 21.1009 19.2575 21.4156 19.198C21.7303 19.1384 22.0352 19.0504 22.3313 18.9334L22.6231 18.8168C22.6859 18.7863 22.7427 18.7464 22.7919 18.6982C22.8416 18.6501 22.8821 18.5952 22.9127 18.5346C22.9433 18.474 22.9635 18.4103 22.9722 18.343C22.981 18.2762 22.9782 18.2099 22.964 18.1436C22.9498 18.0778 22.9247 18.0157 22.8892 17.9571C22.8537 17.8986 22.8094 17.8474 22.7559 17.8028C22.7023 17.7583 22.6428 17.7231 22.5772 17.6967C22.5116 17.6708 22.4433 17.6552 22.3728 17.6506C22.2876 17.6511 22.2051 17.6666 22.1264 17.6972L21.8308 17.8095C21.3943 17.9841 20.9386 18.0706 20.4649 18.07C19.9884 18.0706 19.53 17.9841 19.0907 17.8095L18.799 17.6972Z" fill="black"/>
<path d="M26.7374 13.7498C26.9937 13.7623 27.2472 13.7421 27.4974 13.6903C27.7482 13.638 27.987 13.5556 28.2143 13.4427C28.4416 13.3298 28.6492 13.1905 28.8371 13.0253C29.0251 12.8596 29.1868 12.6732 29.3218 12.4671C29.3349 12.4432 29.3464 12.4194 29.3562 12.3945C29.366 12.3702 29.3742 12.3448 29.3802 12.3189C29.3868 12.293 29.3912 12.2671 29.3939 12.2413C29.3966 12.2148 29.3977 12.1884 29.3972 12.162C29.3961 12.1356 29.3939 12.1092 29.3895 12.0833C29.3852 12.0574 29.3792 12.0315 29.371 12.0061C29.3633 11.9808 29.354 11.9559 29.3425 11.9316C29.3316 11.9077 29.3185 11.8844 29.3043 11.8616C29.2895 11.8389 29.2737 11.8171 29.2568 11.7969C29.2393 11.7762 29.2207 11.7565 29.2005 11.7379C29.1803 11.7197 29.1595 11.7027 29.1371 11.6866C29.1147 11.6711 29.0912 11.6566 29.0672 11.6436C29.0426 11.6307 29.018 11.6193 28.9918 11.6094C28.9661 11.5996 28.9399 11.5913 28.9125 11.5846C28.8858 11.5778 28.8585 11.5727 28.8306 11.5696C28.8033 11.5665 28.7754 11.5644 28.7475 11.5649C28.6262 11.5649 28.5137 11.5944 28.4099 11.654C28.3061 11.7135 28.2257 11.7938 28.1689 11.8953C28.0908 12.002 27.9995 12.0978 27.8946 12.1817C27.7897 12.2656 27.675 12.335 27.551 12.3899C27.4264 12.4448 27.2969 12.4836 27.1614 12.5059C27.0264 12.5282 26.8904 12.5333 26.7538 12.5214C26.4183 12.5162 26.09 12.4671 25.7692 12.3733C25.2496 12.2195 24.7174 12.1392 24.1733 12.1325C23.8334 12.1232 23.5023 12.1698 23.1805 12.2723H23.1433C23.0745 12.3003 23.0127 12.3386 22.9581 12.3868C22.9029 12.4355 22.8581 12.4909 22.8237 12.5535C22.7887 12.6167 22.7663 12.683 22.7559 12.7534C22.7456 12.8239 22.7477 12.8938 22.7625 12.9632C22.7773 13.0331 22.804 13.0978 22.8428 13.1589C22.8816 13.2195 22.9297 13.2724 22.9876 13.3179C23.0455 13.363 23.1095 13.3972 23.1799 13.4215C23.2504 13.4458 23.3231 13.4578 23.3979 13.4583C23.4788 13.4593 23.5569 13.4453 23.6318 13.4158C23.8094 13.3723 23.9897 13.3526 24.1733 13.3573C24.5929 13.362 25.0032 13.4241 25.4037 13.5437C25.8381 13.6727 26.2823 13.7416 26.7374 13.7498Z" fill="black"/>
<path d="M17.2935 13.4314C17.3651 13.4541 17.4388 13.4661 17.5148 13.4661C17.5809 13.4666 17.6454 13.4578 17.7082 13.4396C17.7716 13.422 17.8306 13.3956 17.8852 13.3609C17.9404 13.3262 17.9885 13.2848 18.03 13.2366C18.0721 13.188 18.1054 13.1351 18.1305 13.0771C18.1447 13.0409 18.1557 13.0036 18.1628 12.9647C18.1699 12.9264 18.1726 12.8876 18.1721 12.8487C18.171 12.8099 18.1666 12.7711 18.1579 12.7333C18.1491 12.6949 18.1371 12.6582 18.1207 12.6219C18.1049 12.5862 18.0852 12.552 18.0622 12.5199C18.0393 12.4873 18.0131 12.4572 17.9841 12.4298C17.9551 12.4023 17.9235 12.3775 17.8896 12.3552C17.8552 12.3334 17.8196 12.3148 17.7814 12.2998L17.6831 12.2646C17.3787 12.1827 17.0684 12.1439 16.752 12.148C16.3696 12.1501 15.992 12.1915 15.6194 12.2723C15.4719 12.3034 15.32 12.3423 15.156 12.3889C14.8364 12.4826 14.5097 12.5318 14.1753 12.537C14.0387 12.5489 13.9021 12.5442 13.7666 12.522C13.6311 12.4997 13.5011 12.4608 13.3759 12.406C13.2514 12.3511 13.1366 12.2817 13.0312 12.1972C12.9263 12.1133 12.8345 12.0181 12.7558 11.9109C12.699 11.8093 12.6187 11.7291 12.5148 11.6695C12.411 11.61 12.2985 11.5804 12.1772 11.5804C12.0706 11.581 11.969 11.6043 11.8739 11.6504C11.8362 11.669 11.8007 11.6913 11.7679 11.7172C11.7352 11.7425 11.7051 11.771 11.6778 11.8021C11.6505 11.8332 11.627 11.8668 11.6068 11.902C11.5866 11.9378 11.5702 11.9751 11.5576 12.0134C11.545 12.0522 11.5368 12.0916 11.5325 12.1315C11.5281 12.1719 11.5275 12.2117 11.5314 12.2521C11.5352 12.2925 11.5434 12.3319 11.5554 12.3707C11.5674 12.4096 11.5833 12.4463 11.6029 12.4826C11.7384 12.6892 11.9002 12.8752 12.0881 13.0409C12.2755 13.2061 12.4832 13.3454 12.7105 13.4583C12.9377 13.5712 13.1771 13.6535 13.4273 13.7058C13.6781 13.7581 13.9316 13.7778 14.1879 13.7654C14.6435 13.7618 15.0894 13.697 15.5254 13.5712C15.9259 13.4521 16.3362 13.3899 16.7558 13.3847C16.9378 13.3718 17.117 13.3873 17.2935 13.4314Z" fill="black"/>
</svg>
